<svg xmlns="http://www.w3.org/2000/svg" xmlns:xlink="http://www.w3.org/1999/xlink" width="94" height="639" viewBox="0 0 94 639">
<svg width="94" height="639" viewBox="0 0 94 639" fill="none" xmlns="http://www.w3.org/2000/svg"> <g clip-path="url(#bg-clip0_717_19456)"> <mask id="bg-mask0_717_19456" style="mask-type:luminance" maskUnits="userSpaceOnUse" x="0" y="0" width="94" height="639"> <path d="M-3.05176e-05 639L94 639L94 0L2.53456e-05 -8.21774e-06L-3.05176e-05 639Z" fill="white"/> </mask> <g mask="url(#bg-mask0_717_19456)"> <path d="M-3.05176e-05 639L94 639L94 0L2.53456e-05 -8.21774e-06L-3.05176e-05 639Z" fill="white"/> <path fill-rule="evenodd" clip-rule="evenodd" d="M10.6609 53.651L9.21702 53.651L9.21702 88.306L10.6609 88.306L10.6609 53.651Z" fill="#E1EFF8"/> <path fill-rule="evenodd" clip-rule="evenodd" d="M10.6609 110.446L9.21702 110.446L9.21702 145.101L10.6609 145.101L10.6609 110.446Z" fill="#E1EFF8"/> <path fill-rule="evenodd" clip-rule="evenodd" d="M10.6609 167.723L9.21701 167.723L9.21701 202.377L10.6609 202.377L10.6609 167.723Z" fill="#E1EFF8"/> <path fill-rule="evenodd" clip-rule="evenodd" d="M10.6609 224.997L9.21701 224.997L9.217 259.651L10.6609 259.651L10.6609 224.997Z" fill="#E1EFF8"/> <path fill-rule="evenodd" clip-rule="evenodd" d="M10.6609 282.274L9.21701 282.274L9.217 316.929L10.6609 316.929L10.6609 282.274Z" fill="#E1EFF8"/> <path fill-rule="evenodd" clip-rule="evenodd" d="M8.31839 335.217L9.45749 335.217L9.45749 367.465L8.31839 367.465C7.88429 367.465 7.5323 367.116 7.5323 366.687L7.5323 335.995C7.5323 335.566 7.88429 335.217 8.31839 335.217Z" fill="#949494"/> <path d="M7.99997 638L86 638C88.7614 638 91 635.761 91 633L91 7C91 4.23859 88.7614 2 86 2L8.00003 1.99999C5.2386 1.99999 3.00002 4.23858 3.00002 6.99999L2.99997 633C2.99997 635.761 5.23855 638 7.99997 638Z" fill="white" stroke="#949494" stroke-width="2"/> <path d="M92 633.024L93 633.024C93.5523 633.024 94 632.576 94 632.024L94 615C94 614.448 93.5523 614 93 614L92 614L92 633.024Z" fill="#949494"/> <path d="M1.99997 613.976L0.999971 613.976C0.447671 613.976 -2.88936e-05 614.424 -2.89419e-05 614.976L-3.04302e-05 632C-3.04784e-05 632.552 0.44767 633 0.999969 633L1.99997 633L1.99997 613.976Z" fill="#949494"/> <path d="M92 25L93 25C93.5523 25 94 24.553 94 24L94 6.97699C94 6.42399 93.5523 5.97699 93 5.97699L92 5.97699L92 25Z" fill="#949494"/> <path d="M2.00002 5.95294L1.00002 5.95294C0.447725 5.95294 2.45122e-05 6.39994 2.44639e-05 6.95294L2.29756e-05 23.9769C2.29273e-05 24.5289 0.447723 24.9769 1.00002 24.9769L2.00002 24.9769L2.00002 5.95294Z" fill="#949494"/> <path d="M54 591L90 591L90 541L54 541L54 591Z" fill="#E9E9E9"/> <path d="M54 611L90 611L90 591L54 591L54 611Z" fill="#D1D3D3"/> <path d="M13.75 611L3.99997 611L3.99998 541L27 541L13.75 563.302L13.75 611Z" fill="#E9E9E9"/> <path fill-rule="evenodd" clip-rule="evenodd" d="M90 29L67 29L67 49L90 49L90 29Z" fill="#C4C4C4"/> <path fill-rule="evenodd" clip-rule="evenodd" d="M90 521L66 521L66 541L90 541L90 521Z" fill="#C4C4C4"/> <path fill-rule="evenodd" clip-rule="evenodd" d="M27 521L3.99998 521L3.99998 541L27 541L27 521Z" fill="#C4C4C4"/> <path fill-rule="evenodd" clip-rule="evenodd" d="M90 307L77 307L77 334L90 334L90 307Z" fill="#C4C4C4"/> <path fill-rule="evenodd" clip-rule="evenodd" d="M3.99999 334L17 334L17 307L3.99999 307L3.99999 334Z" fill="#C4C4C4"/> <path fill-rule="evenodd" clip-rule="evenodd" d="M77 307L59 307L59 334L77 334L77 307Z" fill="#E9E9E9"/> <path fill-rule="evenodd" clip-rule="evenodd" d="M27 29L4.00002 29L4.00002 49L27 49L27 29Z" fill="#E9E9E9"/> <path fill-rule="evenodd" clip-rule="evenodd" d="M17 334L35 334L35 307L17 307L17 334Z" fill="#E9E9E9"/> <path fill-rule="evenodd" clip-rule="evenodd" d="M91.762 441.082L89.5239 441.082L89.5239 474.293L91.7619 474.293L91.762 441.082Z" fill="#E1EFF8"/> <path fill-rule="evenodd" clip-rule="evenodd" d="M91.762 395.359L89.5239 395.359L89.5239 428.569L91.7619 428.569L91.762 395.359Z" fill="#E1EFF8"/> <path fill-rule="evenodd" clip-rule="evenodd" d="M91.762 349.633L89.5239 349.633L89.5239 382.844L91.7619 382.844L91.762 349.633Z" fill="#E1EFF8"/> <path fill-rule="evenodd" clip-rule="evenodd" d="M91.762 257.702L89.5239 257.702L89.5239 290.912L91.762 290.912L91.762 257.702Z" fill="#E1EFF8"/> <path fill-rule="evenodd" clip-rule="evenodd" d="M91.762 211.978L89.5239 211.978L89.5239 245.188L91.762 245.188L91.762 211.978Z" fill="#E1EFF8"/> <path fill-rule="evenodd" clip-rule="evenodd" d="M91.762 166.254L89.5239 166.254L89.5239 199.465L91.762 199.465L91.762 166.254Z" fill="#E1EFF8"/> <path fill-rule="evenodd" clip-rule="evenodd" d="M91.762 120.529L89.5239 120.529L89.5239 153.739L91.762 153.739L91.762 120.529Z" fill="#E1EFF8"/> <path fill-rule="evenodd" clip-rule="evenodd" d="M91.762 74.805L89.5239 74.805L89.5239 108.016L91.762 108.016L91.762 74.805Z" fill="#E1EFF8"/> <path fill-rule="evenodd" clip-rule="evenodd" d="M91.7619 486.807L89.5239 486.807L89.5239 509.429L91.7619 509.429L91.7619 486.807Z" fill="#E1EFF8"/> <path fill-rule="evenodd" clip-rule="evenodd" d="M4.47608 441.082L2.23809 441.082L2.23808 474.293L4.47608 474.293L4.47608 441.082Z" fill="#E1EFF8"/> <path fill-rule="evenodd" clip-rule="evenodd" d="M4.47609 395.359L2.23809 395.359L2.23809 428.569L4.47609 428.569L4.47609 395.359Z" fill="#E1EFF8"/> <path fill-rule="evenodd" clip-rule="evenodd" d="M4.47609 349.633L2.23809 349.633L2.23809 382.844L4.47609 382.844L4.47609 349.633Z" fill="#E1EFF8"/> <path fill-rule="evenodd" clip-rule="evenodd" d="M4.4761 257.702L2.2381 257.702L2.2381 290.912L4.4761 290.912L4.4761 257.702Z" fill="#E1EFF8"/> <path fill-rule="evenodd" clip-rule="evenodd" d="M4.4761 211.978L2.2381 211.978L2.2381 245.188L4.4761 245.188L4.4761 211.978Z" fill="#E1EFF8"/> <path fill-rule="evenodd" clip-rule="evenodd" d="M4.47611 166.254L2.23811 166.254L2.23811 199.465L4.4761 199.465L4.47611 166.254Z" fill="#E1EFF8"/> <path fill-rule="evenodd" clip-rule="evenodd" d="M4.47611 120.529L2.23811 120.529L2.23811 153.739L4.47611 153.739L4.47611 120.529Z" fill="#E1EFF8"/> <path fill-rule="evenodd" clip-rule="evenodd" d="M4.47612 74.805L2.23812 74.805L2.23811 108.016L4.47611 108.016L4.47612 74.805Z" fill="#E1EFF8"/> <path fill-rule="evenodd" clip-rule="evenodd" d="M4.47608 486.807L2.23808 486.807L2.23808 509.429L4.47608 509.429L4.47608 486.807Z" fill="#E1EFF8"/> </g> </g> <defs> <clipPath id="bg-clip0_717_19456"> <rect width="94" height="639" fill="white" transform="translate(94 639) rotate(-180)"/> </clipPath> </defs> </svg>
<g transform="translate(5, 486)"><svg width="22" height="26" viewBox="0 0 22 26" fill="none" xmlns="http://www.w3.org/2000/svg">
<path d="M3.03741 23.1609H18.0374C19.5286 23.1609 20.7374 21.9521 20.7374 20.4609V3.46094C20.7374 1.96977 19.5286 0.760937 18.0374 0.760937H3.03741C1.54625 0.760937 0.337415 1.96977 0.337415 3.46094V20.4609C0.337415 21.9521 1.54625 23.1609 3.03741 23.1609Z" fill="white" stroke="#2B2B2C" stroke-width="0.6"/>
<path d="M2.54439 22.0366L2.54439 22.5366C2.54439 24.0278 3.75322 25.2366 5.24439 25.2366L15.8326 25.2366C17.3237 25.2366 18.5326 24.0278 18.5326 22.5366L18.5326 22.0367C18.5326 20.5455 17.3233 19.3366 15.8321 19.3366L5.24483 19.3366C3.75361 19.3366 2.54439 20.5455 2.54439 22.0366Z" fill="white" stroke="#2B2B2C" stroke-width="0.6"/>
<path d="M0.0374146 13.6819L0.537414 13.6819C1.64198 13.6819 2.53741 14.5773 2.53741 15.6819L2.53741 22.3989" stroke="#2B2B2C" stroke-width="0.6"/>
<path d="M21.0374 13.6819L20.5374 13.6819C19.4328 13.6819 18.5374 14.5773 18.5374 15.6819L18.5374 22.3989" stroke="#2B2B2C" stroke-width="0.6"/>
<path d="M6.94801 25.2366L6.94801 23.2866C6.94801 22.9 7.26141 22.5866 7.64801 22.5866L13.4268 22.5866C13.8134 22.5866 14.1268 22.9 14.1268 23.2866L14.1268 25.2366L6.94801 25.2366Z" fill="white" stroke="#2B2B2C" stroke-width="0.6"/>
</svg></g>
<g transform="translate(46, 486)"><svg width="22" height="26" viewBox="0 0 22 26" fill="none" xmlns="http://www.w3.org/2000/svg">
<path d="M3.03741 23.1609H18.0374C19.5286 23.1609 20.7374 21.9521 20.7374 20.4609V3.46094C20.7374 1.96977 19.5286 0.760937 18.0374 0.760937H3.03741C1.54625 0.760937 0.337415 1.96977 0.337415 3.46094V20.4609C0.337415 21.9521 1.54625 23.1609 3.03741 23.1609Z" fill="white" stroke="#2B2B2C" stroke-width="0.6"/>
<path d="M2.54439 22.0366L2.54439 22.5366C2.54439 24.0278 3.75322 25.2366 5.24439 25.2366L15.8326 25.2366C17.3237 25.2366 18.5326 24.0278 18.5326 22.5366L18.5326 22.0367C18.5326 20.5455 17.3233 19.3366 15.8321 19.3366L5.24483 19.3366C3.75361 19.3366 2.54439 20.5455 2.54439 22.0366Z" fill="white" stroke="#2B2B2C" stroke-width="0.6"/>
<path d="M0.0374146 13.6819L0.537414 13.6819C1.64198 13.6819 2.53741 14.5773 2.53741 15.6819L2.53741 22.3989" stroke="#2B2B2C" stroke-width="0.6"/>
<path d="M21.0374 13.6819L20.5374 13.6819C19.4328 13.6819 18.5374 14.5773 18.5374 15.6819L18.5374 22.3989" stroke="#2B2B2C" stroke-width="0.6"/>
<path d="M6.94801 25.2366L6.94801 23.2866C6.94801 22.9 7.26141 22.5866 7.64801 22.5866L13.4268 22.5866C13.8134 22.5866 14.1268 22.9 14.1268 23.2866L14.1268 25.2366L6.94801 25.2366Z" fill="white" stroke="#2B2B2C" stroke-width="0.6"/>
</svg></g>
<g transform="translate(68, 486)"><svg width="22" height="26" viewBox="0 0 22 26" fill="none" xmlns="http://www.w3.org/2000/svg">
<path d="M3.03741 23.1609H18.0374C19.5286 23.1609 20.7374 21.9521 20.7374 20.4609V3.46094C20.7374 1.96977 19.5286 0.760937 18.0374 0.760937H3.03741C1.54625 0.760937 0.337415 1.96977 0.337415 3.46094V20.4609C0.337415 21.9521 1.54625 23.1609 3.03741 23.1609Z" fill="white" stroke="#2B2B2C" stroke-width="0.6"/>
<path d="M2.54439 22.0366L2.54439 22.5366C2.54439 24.0278 3.75322 25.2366 5.24439 25.2366L15.8326 25.2366C17.3237 25.2366 18.5326 24.0278 18.5326 22.5366L18.5326 22.0367C18.5326 20.5455 17.3233 19.3366 15.8321 19.3366L5.24483 19.3366C3.75361 19.3366 2.54439 20.5455 2.54439 22.0366Z" fill="white" stroke="#2B2B2C" stroke-width="0.6"/>
<path d="M0.0374146 13.6819L0.537414 13.6819C1.64198 13.6819 2.53741 14.5773 2.53741 15.6819L2.53741 22.3989" stroke="#2B2B2C" stroke-width="0.6"/>
<path d="M21.0374 13.6819L20.5374 13.6819C19.4328 13.6819 18.5374 14.5773 18.5374 15.6819L18.5374 22.3989" stroke="#2B2B2C" stroke-width="0.6"/>
<path d="M6.94801 25.2366L6.94801 23.2866C6.94801 22.9 7.26141 22.5866 7.64801 22.5866L13.4268 22.5866C13.8134 22.5866 14.1268 22.9 14.1268 23.2866L14.1268 25.2366L6.94801 25.2366Z" fill="white" stroke="#2B2B2C" stroke-width="0.6"/>
</svg></g>
<g transform="translate(5, 440)"><svg width="22" height="26" viewBox="0 0 22 26" fill="none" xmlns="http://www.w3.org/2000/svg">
<path d="M3.03741 23.1609H18.0374C19.5286 23.1609 20.7374 21.9521 20.7374 20.4609V3.46094C20.7374 1.96977 19.5286 0.760937 18.0374 0.760937H3.03741C1.54625 0.760937 0.337415 1.96977 0.337415 3.46094V20.4609C0.337415 21.9521 1.54625 23.1609 3.03741 23.1609Z" fill="white" stroke="#2B2B2C" stroke-width="0.6"/>
<path d="M2.54439 22.0366L2.54439 22.5366C2.54439 24.0278 3.75322 25.2366 5.24439 25.2366L15.8326 25.2366C17.3237 25.2366 18.5326 24.0278 18.5326 22.5366L18.5326 22.0367C18.5326 20.5455 17.3233 19.3366 15.8321 19.3366L5.24483 19.3366C3.75361 19.3366 2.54439 20.5455 2.54439 22.0366Z" fill="white" stroke="#2B2B2C" stroke-width="0.6"/>
<path d="M0.0374146 13.6819L0.537414 13.6819C1.64198 13.6819 2.53741 14.5773 2.53741 15.6819L2.53741 22.3989" stroke="#2B2B2C" stroke-width="0.6"/>
<path d="M21.0374 13.6819L20.5374 13.6819C19.4328 13.6819 18.5374 14.5773 18.5374 15.6819L18.5374 22.3989" stroke="#2B2B2C" stroke-width="0.6"/>
<path d="M6.94801 25.2366L6.94801 23.2866C6.94801 22.9 7.26141 22.5866 7.64801 22.5866L13.4268 22.5866C13.8134 22.5866 14.1268 22.9 14.1268 23.2866L14.1268 25.2366L6.94801 25.2366Z" fill="white" stroke="#2B2B2C" stroke-width="0.6"/>
</svg></g>
<g transform="translate(46, 440)"><svg width="22" height="26" viewBox="0 0 22 26" fill="none" xmlns="http://www.w3.org/2000/svg">
<path d="M3.03741 23.1609H18.0374C19.5286 23.1609 20.7374 21.9521 20.7374 20.4609V3.46094C20.7374 1.96977 19.5286 0.760937 18.0374 0.760937H3.03741C1.54625 0.760937 0.337415 1.96977 0.337415 3.46094V20.4609C0.337415 21.9521 1.54625 23.1609 3.03741 23.1609Z" fill="white" stroke="#2B2B2C" stroke-width="0.6"/>
<path d="M2.54439 22.0366L2.54439 22.5366C2.54439 24.0278 3.75322 25.2366 5.24439 25.2366L15.8326 25.2366C17.3237 25.2366 18.5326 24.0278 18.5326 22.5366L18.5326 22.0367C18.5326 20.5455 17.3233 19.3366 15.8321 19.3366L5.24483 19.3366C3.75361 19.3366 2.54439 20.5455 2.54439 22.0366Z" fill="white" stroke="#2B2B2C" stroke-width="0.6"/>
<path d="M0.0374146 13.6819L0.537414 13.6819C1.64198 13.6819 2.53741 14.5773 2.53741 15.6819L2.53741 22.3989" stroke="#2B2B2C" stroke-width="0.6"/>
<path d="M21.0374 13.6819L20.5374 13.6819C19.4328 13.6819 18.5374 14.5773 18.5374 15.6819L18.5374 22.3989" stroke="#2B2B2C" stroke-width="0.6"/>
<path d="M6.94801 25.2366L6.94801 23.2866C6.94801 22.9 7.26141 22.5866 7.64801 22.5866L13.4268 22.5866C13.8134 22.5866 14.1268 22.9 14.1268 23.2866L14.1268 25.2366L6.94801 25.2366Z" fill="white" stroke="#2B2B2C" stroke-width="0.6"/>
</svg></g>
<g transform="translate(68, 440)"><svg width="22" height="26" viewBox="0 0 22 26" fill="none" xmlns="http://www.w3.org/2000/svg">
<path d="M3.03741 23.1609H18.0374C19.5286 23.1609 20.7374 21.9521 20.7374 20.4609V3.46094C20.7374 1.96977 19.5286 0.760937 18.0374 0.760937H3.03741C1.54625 0.760937 0.337415 1.96977 0.337415 3.46094V20.4609C0.337415 21.9521 1.54625 23.1609 3.03741 23.1609Z" fill="white" stroke="#2B2B2C" stroke-width="0.6"/>
<path d="M2.54439 22.0366L2.54439 22.5366C2.54439 24.0278 3.75322 25.2366 5.24439 25.2366L15.8326 25.2366C17.3237 25.2366 18.5326 24.0278 18.5326 22.5366L18.5326 22.0367C18.5326 20.5455 17.3233 19.3366 15.8321 19.3366L5.24483 19.3366C3.75361 19.3366 2.54439 20.5455 2.54439 22.0366Z" fill="white" stroke="#2B2B2C" stroke-width="0.6"/>
<path d="M0.0374146 13.6819L0.537414 13.6819C1.64198 13.6819 2.53741 14.5773 2.53741 15.6819L2.53741 22.3989" stroke="#2B2B2C" stroke-width="0.6"/>
<path d="M21.0374 13.6819L20.5374 13.6819C19.4328 13.6819 18.5374 14.5773 18.5374 15.6819L18.5374 22.3989" stroke="#2B2B2C" stroke-width="0.6"/>
<path d="M6.94801 25.2366L6.94801 23.2866C6.94801 22.9 7.26141 22.5866 7.64801 22.5866L13.4268 22.5866C13.8134 22.5866 14.1268 22.9 14.1268 23.2866L14.1268 25.2366L6.94801 25.2366Z" fill="white" stroke="#2B2B2C" stroke-width="0.6"/>
</svg></g>
<g transform="translate(5, 398)"><svg width="22" height="26" viewBox="0 0 22 26" fill="none" xmlns="http://www.w3.org/2000/svg">
<path d="M3.03741 23.1609H18.0374C19.5286 23.1609 20.7374 21.9521 20.7374 20.4609V3.46094C20.7374 1.96977 19.5286 0.760937 18.0374 0.760937H3.03741C1.54625 0.760937 0.337415 1.96977 0.337415 3.46094V20.4609C0.337415 21.9521 1.54625 23.1609 3.03741 23.1609Z" fill="white" stroke="#2B2B2C" stroke-width="0.6"/>
<path d="M2.54439 22.0366L2.54439 22.5366C2.54439 24.0278 3.75322 25.2366 5.24439 25.2366L15.8326 25.2366C17.3237 25.2366 18.5326 24.0278 18.5326 22.5366L18.5326 22.0367C18.5326 20.5455 17.3233 19.3366 15.8321 19.3366L5.24483 19.3366C3.75361 19.3366 2.54439 20.5455 2.54439 22.0366Z" fill="white" stroke="#2B2B2C" stroke-width="0.6"/>
<path d="M0.0374146 13.6819L0.537414 13.6819C1.64198 13.6819 2.53741 14.5773 2.53741 15.6819L2.53741 22.3989" stroke="#2B2B2C" stroke-width="0.6"/>
<path d="M21.0374 13.6819L20.5374 13.6819C19.4328 13.6819 18.5374 14.5773 18.5374 15.6819L18.5374 22.3989" stroke="#2B2B2C" stroke-width="0.6"/>
<path d="M6.94801 25.2366L6.94801 23.2866C6.94801 22.9 7.26141 22.5866 7.64801 22.5866L13.4268 22.5866C13.8134 22.5866 14.1268 22.9 14.1268 23.2866L14.1268 25.2366L6.94801 25.2366Z" fill="white" stroke="#2B2B2C" stroke-width="0.6"/>
</svg></g>
<g transform="translate(46, 398)"><svg width="22" height="26" viewBox="0 0 22 26" fill="none" xmlns="http://www.w3.org/2000/svg">
<path d="M3.03741 23.1609H18.0374C19.5286 23.1609 20.7374 21.9521 20.7374 20.4609V3.46094C20.7374 1.96977 19.5286 0.760937 18.0374 0.760937H3.03741C1.54625 0.760937 0.337415 1.96977 0.337415 3.46094V20.4609C0.337415 21.9521 1.54625 23.1609 3.03741 23.1609Z" fill="white" stroke="#2B2B2C" stroke-width="0.6"/>
<path d="M2.54439 22.0366L2.54439 22.5366C2.54439 24.0278 3.75322 25.2366 5.24439 25.2366L15.8326 25.2366C17.3237 25.2366 18.5326 24.0278 18.5326 22.5366L18.5326 22.0367C18.5326 20.5455 17.3233 19.3366 15.8321 19.3366L5.24483 19.3366C3.75361 19.3366 2.54439 20.5455 2.54439 22.0366Z" fill="white" stroke="#2B2B2C" stroke-width="0.6"/>
<path d="M0.0374146 13.6819L0.537414 13.6819C1.64198 13.6819 2.53741 14.5773 2.53741 15.6819L2.53741 22.3989" stroke="#2B2B2C" stroke-width="0.6"/>
<path d="M21.0374 13.6819L20.5374 13.6819C19.4328 13.6819 18.5374 14.5773 18.5374 15.6819L18.5374 22.3989" stroke="#2B2B2C" stroke-width="0.6"/>
<path d="M6.94801 25.2366L6.94801 23.2866C6.94801 22.9 7.26141 22.5866 7.64801 22.5866L13.4268 22.5866C13.8134 22.5866 14.1268 22.9 14.1268 23.2866L14.1268 25.2366L6.94801 25.2366Z" fill="white" stroke="#2B2B2C" stroke-width="0.6"/>
</svg></g>
<g transform="translate(68, 398)"><svg width="22" height="26" viewBox="0 0 22 26" fill="none" xmlns="http://www.w3.org/2000/svg">
<path d="M3.03741 23.1609H18.0374C19.5286 23.1609 20.7374 21.9521 20.7374 20.4609V3.46094C20.7374 1.96977 19.5286 0.760937 18.0374 0.760937H3.03741C1.54625 0.760937 0.337415 1.96977 0.337415 3.46094V20.4609C0.337415 21.9521 1.54625 23.1609 3.03741 23.1609Z" fill="white" stroke="#2B2B2C" stroke-width="0.6"/>
<path d="M2.54439 22.0366L2.54439 22.5366C2.54439 24.0278 3.75322 25.2366 5.24439 25.2366L15.8326 25.2366C17.3237 25.2366 18.5326 24.0278 18.5326 22.5366L18.5326 22.0367C18.5326 20.5455 17.3233 19.3366 15.8321 19.3366L5.24483 19.3366C3.75361 19.3366 2.54439 20.5455 2.54439 22.0366Z" fill="white" stroke="#2B2B2C" stroke-width="0.6"/>
<path d="M0.0374146 13.6819L0.537414 13.6819C1.64198 13.6819 2.53741 14.5773 2.53741 15.6819L2.53741 22.3989" stroke="#2B2B2C" stroke-width="0.6"/>
<path d="M21.0374 13.6819L20.5374 13.6819C19.4328 13.6819 18.5374 14.5773 18.5374 15.6819L18.5374 22.3989" stroke="#2B2B2C" stroke-width="0.6"/>
<path d="M6.94801 25.2366L6.94801 23.2866C6.94801 22.9 7.26141 22.5866 7.64801 22.5866L13.4268 22.5866C13.8134 22.5866 14.1268 22.9 14.1268 23.2866L14.1268 25.2366L6.94801 25.2366Z" fill="white" stroke="#2B2B2C" stroke-width="0.6"/>
</svg></g>
<g transform="translate(5, 356)"><svg width="22" height="26" viewBox="0 0 22 26" fill="none" xmlns="http://www.w3.org/2000/svg">
<path d="M3.03741 23.1609H18.0374C19.5286 23.1609 20.7374 21.9521 20.7374 20.4609V3.46094C20.7374 1.96977 19.5286 0.760937 18.0374 0.760937H3.03741C1.54625 0.760937 0.337415 1.96977 0.337415 3.46094V20.4609C0.337415 21.9521 1.54625 23.1609 3.03741 23.1609Z" fill="white" stroke="#2B2B2C" stroke-width="0.6"/>
<path d="M2.54439 22.0366L2.54439 22.5366C2.54439 24.0278 3.75322 25.2366 5.24439 25.2366L15.8326 25.2366C17.3237 25.2366 18.5326 24.0278 18.5326 22.5366L18.5326 22.0367C18.5326 20.5455 17.3233 19.3366 15.8321 19.3366L5.24483 19.3366C3.75361 19.3366 2.54439 20.5455 2.54439 22.0366Z" fill="white" stroke="#2B2B2C" stroke-width="0.6"/>
<path d="M0.0374146 13.6819L0.537414 13.6819C1.64198 13.6819 2.53741 14.5773 2.53741 15.6819L2.53741 22.3989" stroke="#2B2B2C" stroke-width="0.6"/>
<path d="M21.0374 13.6819L20.5374 13.6819C19.4328 13.6819 18.5374 14.5773 18.5374 15.6819L18.5374 22.3989" stroke="#2B2B2C" stroke-width="0.6"/>
<path d="M6.94801 25.2366L6.94801 23.2866C6.94801 22.9 7.26141 22.5866 7.64801 22.5866L13.4268 22.5866C13.8134 22.5866 14.1268 22.9 14.1268 23.2866L14.1268 25.2366L6.94801 25.2366Z" fill="white" stroke="#2B2B2C" stroke-width="0.6"/>
</svg></g>
<g transform="translate(46, 356)"><svg width="22" height="26" viewBox="0 0 22 26" fill="none" xmlns="http://www.w3.org/2000/svg">
<path d="M3.03741 23.1609H18.0374C19.5286 23.1609 20.7374 21.9521 20.7374 20.4609V3.46094C20.7374 1.96977 19.5286 0.760937 18.0374 0.760937H3.03741C1.54625 0.760937 0.337415 1.96977 0.337415 3.46094V20.4609C0.337415 21.9521 1.54625 23.1609 3.03741 23.1609Z" fill="white" stroke="#2B2B2C" stroke-width="0.6"/>
<path d="M2.54439 22.0366L2.54439 22.5366C2.54439 24.0278 3.75322 25.2366 5.24439 25.2366L15.8326 25.2366C17.3237 25.2366 18.5326 24.0278 18.5326 22.5366L18.5326 22.0367C18.5326 20.5455 17.3233 19.3366 15.8321 19.3366L5.24483 19.3366C3.75361 19.3366 2.54439 20.5455 2.54439 22.0366Z" fill="white" stroke="#2B2B2C" stroke-width="0.6"/>
<path d="M0.0374146 13.6819L0.537414 13.6819C1.64198 13.6819 2.53741 14.5773 2.53741 15.6819L2.53741 22.3989" stroke="#2B2B2C" stroke-width="0.6"/>
<path d="M21.0374 13.6819L20.5374 13.6819C19.4328 13.6819 18.5374 14.5773 18.5374 15.6819L18.5374 22.3989" stroke="#2B2B2C" stroke-width="0.6"/>
<path d="M6.94801 25.2366L6.94801 23.2866C6.94801 22.9 7.26141 22.5866 7.64801 22.5866L13.4268 22.5866C13.8134 22.5866 14.1268 22.9 14.1268 23.2866L14.1268 25.2366L6.94801 25.2366Z" fill="white" stroke="#2B2B2C" stroke-width="0.6"/>
</svg></g>
<g transform="translate(68, 356)"><svg width="22" height="26" viewBox="0 0 22 26" fill="none" xmlns="http://www.w3.org/2000/svg">
<path d="M3.03741 23.1609H18.0374C19.5286 23.1609 20.7374 21.9521 20.7374 20.4609V3.46094C20.7374 1.96977 19.5286 0.760937 18.0374 0.760937H3.03741C1.54625 0.760937 0.337415 1.96977 0.337415 3.46094V20.4609C0.337415 21.9521 1.54625 23.1609 3.03741 23.1609Z" fill="white" stroke="#2B2B2C" stroke-width="0.6"/>
<path d="M2.54439 22.0366L2.54439 22.5366C2.54439 24.0278 3.75322 25.2366 5.24439 25.2366L15.8326 25.2366C17.3237 25.2366 18.5326 24.0278 18.5326 22.5366L18.5326 22.0367C18.5326 20.5455 17.3233 19.3366 15.8321 19.3366L5.24483 19.3366C3.75361 19.3366 2.54439 20.5455 2.54439 22.0366Z" fill="white" stroke="#2B2B2C" stroke-width="0.6"/>
<path d="M0.0374146 13.6819L0.537414 13.6819C1.64198 13.6819 2.53741 14.5773 2.53741 15.6819L2.53741 22.3989" stroke="#2B2B2C" stroke-width="0.6"/>
<path d="M21.0374 13.6819L20.5374 13.6819C19.4328 13.6819 18.5374 14.5773 18.5374 15.6819L18.5374 22.3989" stroke="#2B2B2C" stroke-width="0.6"/>
<path d="M6.94801 25.2366L6.94801 23.2866C6.94801 22.9 7.26141 22.5866 7.64801 22.5866L13.4268 22.5866C13.8134 22.5866 14.1268 22.9 14.1268 23.2866L14.1268 25.2366L6.94801 25.2366Z" fill="white" stroke="#2B2B2C" stroke-width="0.6"/>
</svg></g>
<g transform="translate(5, 268)"><svg width="22" height="26" viewBox="0 0 22 26" fill="none" xmlns="http://www.w3.org/2000/svg">
<path d="M3.03741 2.7187H18.0374C19.5286 2.7187 20.7374 3.92753 20.7374 5.4187V22.4187C20.7374 23.9099 19.5286 25.1187 18.0374 25.1187H3.03741C1.54625 25.1187 0.337415 23.9099 0.337415 22.4187V5.4187C0.337415 3.92753 1.54625 2.7187 3.03741 2.7187Z" fill="white" stroke="#2B2B2C" stroke-width="0.6"/>
<path d="M2.54439 3.84303L2.54439 3.34302C2.54439 1.85186 3.75322 0.643025 5.24439 0.643024L15.8326 0.643024C17.3237 0.643024 18.5326 1.85186 18.5326 3.34302L18.5326 3.84299C18.5326 5.3341 17.3233 6.543 15.8321 6.543L5.24483 6.54302C3.75361 6.54302 2.54439 5.33413 2.54439 3.84303Z" fill="white" stroke="#2B2B2C" stroke-width="0.6"/>
<path d="M0.0374146 12.1978L0.537414 12.1978C1.64198 12.1978 2.53741 11.3023 2.53741 10.1978L2.53741 3.48071" stroke="#2B2B2C" stroke-width="0.6"/>
<path d="M21.0374 12.1978L20.5374 12.1978C19.4328 12.1978 18.5374 11.3023 18.5374 10.1978L18.5374 3.48071" stroke="#2B2B2C" stroke-width="0.6"/>
<path d="M6.94801 0.643022L6.94801 2.59301C6.94801 2.97961 7.26141 3.29301 7.64801 3.29301L13.4268 3.29301C13.8134 3.29301 14.1268 2.97961 14.1268 2.59301L14.1268 0.643022L6.94801 0.643022Z" fill="white" stroke="#2B2B2C" stroke-width="0.6"/>
</svg></g>
<g transform="translate(27, 268)"><svg width="22" height="26" viewBox="0 0 22 26" fill="none" xmlns="http://www.w3.org/2000/svg">
<path d="M3.03741 2.7187H18.0374C19.5286 2.7187 20.7374 3.92753 20.7374 5.4187V22.4187C20.7374 23.9099 19.5286 25.1187 18.0374 25.1187H3.03741C1.54625 25.1187 0.337415 23.9099 0.337415 22.4187V5.4187C0.337415 3.92753 1.54625 2.7187 3.03741 2.7187Z" fill="white" stroke="#2B2B2C" stroke-width="0.6"/>
<path d="M2.54439 3.84303L2.54439 3.34302C2.54439 1.85186 3.75322 0.643025 5.24439 0.643024L15.8326 0.643024C17.3237 0.643024 18.5326 1.85186 18.5326 3.34302L18.5326 3.84299C18.5326 5.3341 17.3233 6.543 15.8321 6.543L5.24483 6.54302C3.75361 6.54302 2.54439 5.33413 2.54439 3.84303Z" fill="white" stroke="#2B2B2C" stroke-width="0.6"/>
<path d="M0.0374146 12.1978L0.537414 12.1978C1.64198 12.1978 2.53741 11.3023 2.53741 10.1978L2.53741 3.48071" stroke="#2B2B2C" stroke-width="0.6"/>
<path d="M21.0374 12.1978L20.5374 12.1978C19.4328 12.1978 18.5374 11.3023 18.5374 10.1978L18.5374 3.48071" stroke="#2B2B2C" stroke-width="0.6"/>
<path d="M6.94801 0.643022L6.94801 2.59301C6.94801 2.97961 7.26141 3.29301 7.64801 3.29301L13.4268 3.29301C13.8134 3.29301 14.1268 2.97961 14.1268 2.59301L14.1268 0.643022L6.94801 0.643022Z" fill="white" stroke="#2B2B2C" stroke-width="0.6"/>
</svg></g>
<g transform="translate(68, 268)"><svg width="22" height="26" viewBox="0 0 22 26" fill="none" xmlns="http://www.w3.org/2000/svg">
<path d="M3.03741 2.7187H18.0374C19.5286 2.7187 20.7374 3.92753 20.7374 5.4187V22.4187C20.7374 23.9099 19.5286 25.1187 18.0374 25.1187H3.03741C1.54625 25.1187 0.337415 23.9099 0.337415 22.4187V5.4187C0.337415 3.92753 1.54625 2.7187 3.03741 2.7187Z" fill="white" stroke="#2B2B2C" stroke-width="0.6"/>
<path d="M2.54439 3.84303L2.54439 3.34302C2.54439 1.85186 3.75322 0.643025 5.24439 0.643024L15.8326 0.643024C17.3237 0.643024 18.5326 1.85186 18.5326 3.34302L18.5326 3.84299C18.5326 5.3341 17.3233 6.543 15.8321 6.543L5.24483 6.54302C3.75361 6.54302 2.54439 5.33413 2.54439 3.84303Z" fill="white" stroke="#2B2B2C" stroke-width="0.6"/>
<path d="M0.0374146 12.1978L0.537414 12.1978C1.64198 12.1978 2.53741 11.3023 2.53741 10.1978L2.53741 3.48071" stroke="#2B2B2C" stroke-width="0.6"/>
<path d="M21.0374 12.1978L20.5374 12.1978C19.4328 12.1978 18.5374 11.3023 18.5374 10.1978L18.5374 3.48071" stroke="#2B2B2C" stroke-width="0.6"/>
<path d="M6.94801 0.643022L6.94801 2.59301C6.94801 2.97961 7.26141 3.29301 7.64801 3.29301L13.4268 3.29301C13.8134 3.29301 14.1268 2.97961 14.1268 2.59301L14.1268 0.643022L6.94801 0.643022Z" fill="white" stroke="#2B2B2C" stroke-width="0.6"/>
</svg></g>
<g transform="translate(5, 226)"><svg width="22" height="26" viewBox="0 0 22 26" fill="none" xmlns="http://www.w3.org/2000/svg">
<path d="M3.03741 2.7187H18.0374C19.5286 2.7187 20.7374 3.92753 20.7374 5.4187V22.4187C20.7374 23.9099 19.5286 25.1187 18.0374 25.1187H3.03741C1.54625 25.1187 0.337415 23.9099 0.337415 22.4187V5.4187C0.337415 3.92753 1.54625 2.7187 3.03741 2.7187Z" fill="white" stroke="#2B2B2C" stroke-width="0.6"/>
<path d="M2.54439 3.84303L2.54439 3.34302C2.54439 1.85186 3.75322 0.643025 5.24439 0.643024L15.8326 0.643024C17.3237 0.643024 18.5326 1.85186 18.5326 3.34302L18.5326 3.84299C18.5326 5.3341 17.3233 6.543 15.8321 6.543L5.24483 6.54302C3.75361 6.54302 2.54439 5.33413 2.54439 3.84303Z" fill="white" stroke="#2B2B2C" stroke-width="0.6"/>
<path d="M0.0374146 12.1978L0.537414 12.1978C1.64198 12.1978 2.53741 11.3023 2.53741 10.1978L2.53741 3.48071" stroke="#2B2B2C" stroke-width="0.6"/>
<path d="M21.0374 12.1978L20.5374 12.1978C19.4328 12.1978 18.5374 11.3023 18.5374 10.1978L18.5374 3.48071" stroke="#2B2B2C" stroke-width="0.6"/>
<path d="M6.94801 0.643022L6.94801 2.59301C6.94801 2.97961 7.26141 3.29301 7.64801 3.29301L13.4268 3.29301C13.8134 3.29301 14.1268 2.97961 14.1268 2.59301L14.1268 0.643022L6.94801 0.643022Z" fill="white" stroke="#2B2B2C" stroke-width="0.6"/>
</svg></g>
<g transform="translate(27, 226)"><svg width="22" height="26" viewBox="0 0 22 26" fill="none" xmlns="http://www.w3.org/2000/svg">
<path d="M3.03741 2.7187H18.0374C19.5286 2.7187 20.7374 3.92753 20.7374 5.4187V22.4187C20.7374 23.9099 19.5286 25.1187 18.0374 25.1187H3.03741C1.54625 25.1187 0.337415 23.9099 0.337415 22.4187V5.4187C0.337415 3.92753 1.54625 2.7187 3.03741 2.7187Z" fill="white" stroke="#2B2B2C" stroke-width="0.6"/>
<path d="M2.54439 3.84303L2.54439 3.34302C2.54439 1.85186 3.75322 0.643025 5.24439 0.643024L15.8326 0.643024C17.3237 0.643024 18.5326 1.85186 18.5326 3.34302L18.5326 3.84299C18.5326 5.3341 17.3233 6.543 15.8321 6.543L5.24483 6.54302C3.75361 6.54302 2.54439 5.33413 2.54439 3.84303Z" fill="white" stroke="#2B2B2C" stroke-width="0.6"/>
<path d="M0.0374146 12.1978L0.537414 12.1978C1.64198 12.1978 2.53741 11.3023 2.53741 10.1978L2.53741 3.48071" stroke="#2B2B2C" stroke-width="0.6"/>
<path d="M21.0374 12.1978L20.5374 12.1978C19.4328 12.1978 18.5374 11.3023 18.5374 10.1978L18.5374 3.48071" stroke="#2B2B2C" stroke-width="0.6"/>
<path d="M6.94801 0.643022L6.94801 2.59301C6.94801 2.97961 7.26141 3.29301 7.64801 3.29301L13.4268 3.29301C13.8134 3.29301 14.1268 2.97961 14.1268 2.59301L14.1268 0.643022L6.94801 0.643022Z" fill="white" stroke="#2B2B2C" stroke-width="0.6"/>
</svg></g>
<g transform="translate(68, 226)"><svg width="22" height="26" viewBox="0 0 22 26" fill="none" xmlns="http://www.w3.org/2000/svg">
<path d="M3.03741 2.7187H18.0374C19.5286 2.7187 20.7374 3.92753 20.7374 5.4187V22.4187C20.7374 23.9099 19.5286 25.1187 18.0374 25.1187H3.03741C1.54625 25.1187 0.337415 23.9099 0.337415 22.4187V5.4187C0.337415 3.92753 1.54625 2.7187 3.03741 2.7187Z" fill="white" stroke="#2B2B2C" stroke-width="0.6"/>
<path d="M2.54439 3.84303L2.54439 3.34302C2.54439 1.85186 3.75322 0.643025 5.24439 0.643024L15.8326 0.643024C17.3237 0.643024 18.5326 1.85186 18.5326 3.34302L18.5326 3.84299C18.5326 5.3341 17.3233 6.543 15.8321 6.543L5.24483 6.54302C3.75361 6.54302 2.54439 5.33413 2.54439 3.84303Z" fill="white" stroke="#2B2B2C" stroke-width="0.6"/>
<path d="M0.0374146 12.1978L0.537414 12.1978C1.64198 12.1978 2.53741 11.3023 2.53741 10.1978L2.53741 3.48071" stroke="#2B2B2C" stroke-width="0.6"/>
<path d="M21.0374 12.1978L20.5374 12.1978C19.4328 12.1978 18.5374 11.3023 18.5374 10.1978L18.5374 3.48071" stroke="#2B2B2C" stroke-width="0.6"/>
<path d="M6.94801 0.643022L6.94801 2.59301C6.94801 2.97961 7.26141 3.29301 7.64801 3.29301L13.4268 3.29301C13.8134 3.29301 14.1268 2.97961 14.1268 2.59301L14.1268 0.643022L6.94801 0.643022Z" fill="white" stroke="#2B2B2C" stroke-width="0.6"/>
</svg></g>
<g transform="translate(5, 184)"><svg width="22" height="26" viewBox="0 0 22 26" fill="none" xmlns="http://www.w3.org/2000/svg">
<path d="M3.03741 2.7187H18.0374C19.5286 2.7187 20.7374 3.92753 20.7374 5.4187V22.4187C20.7374 23.9099 19.5286 25.1187 18.0374 25.1187H3.03741C1.54625 25.1187 0.337415 23.9099 0.337415 22.4187V5.4187C0.337415 3.92753 1.54625 2.7187 3.03741 2.7187Z" fill="white" stroke="#2B2B2C" stroke-width="0.6"/>
<path d="M2.54439 3.84303L2.54439 3.34302C2.54439 1.85186 3.75322 0.643025 5.24439 0.643024L15.8326 0.643024C17.3237 0.643024 18.5326 1.85186 18.5326 3.34302L18.5326 3.84299C18.5326 5.3341 17.3233 6.543 15.8321 6.543L5.24483 6.54302C3.75361 6.54302 2.54439 5.33413 2.54439 3.84303Z" fill="white" stroke="#2B2B2C" stroke-width="0.6"/>
<path d="M0.0374146 12.1978L0.537414 12.1978C1.64198 12.1978 2.53741 11.3023 2.53741 10.1978L2.53741 3.48071" stroke="#2B2B2C" stroke-width="0.6"/>
<path d="M21.0374 12.1978L20.5374 12.1978C19.4328 12.1978 18.5374 11.3023 18.5374 10.1978L18.5374 3.48071" stroke="#2B2B2C" stroke-width="0.6"/>
<path d="M6.94801 0.643022L6.94801 2.59301C6.94801 2.97961 7.26141 3.29301 7.64801 3.29301L13.4268 3.29301C13.8134 3.29301 14.1268 2.97961 14.1268 2.59301L14.1268 0.643022L6.94801 0.643022Z" fill="white" stroke="#2B2B2C" stroke-width="0.6"/>
</svg></g>
<g transform="translate(27, 184)"><svg width="22" height="26" viewBox="0 0 22 26" fill="none" xmlns="http://www.w3.org/2000/svg">
<path d="M3.03741 2.7187H18.0374C19.5286 2.7187 20.7374 3.92753 20.7374 5.4187V22.4187C20.7374 23.9099 19.5286 25.1187 18.0374 25.1187H3.03741C1.54625 25.1187 0.337415 23.9099 0.337415 22.4187V5.4187C0.337415 3.92753 1.54625 2.7187 3.03741 2.7187Z" fill="white" stroke="#2B2B2C" stroke-width="0.6"/>
<path d="M2.54439 3.84303L2.54439 3.34302C2.54439 1.85186 3.75322 0.643025 5.24439 0.643024L15.8326 0.643024C17.3237 0.643024 18.5326 1.85186 18.5326 3.34302L18.5326 3.84299C18.5326 5.3341 17.3233 6.543 15.8321 6.543L5.24483 6.54302C3.75361 6.54302 2.54439 5.33413 2.54439 3.84303Z" fill="white" stroke="#2B2B2C" stroke-width="0.6"/>
<path d="M0.0374146 12.1978L0.537414 12.1978C1.64198 12.1978 2.53741 11.3023 2.53741 10.1978L2.53741 3.48071" stroke="#2B2B2C" stroke-width="0.6"/>
<path d="M21.0374 12.1978L20.5374 12.1978C19.4328 12.1978 18.5374 11.3023 18.5374 10.1978L18.5374 3.48071" stroke="#2B2B2C" stroke-width="0.6"/>
<path d="M6.94801 0.643022L6.94801 2.59301C6.94801 2.97961 7.26141 3.29301 7.64801 3.29301L13.4268 3.29301C13.8134 3.29301 14.1268 2.97961 14.1268 2.59301L14.1268 0.643022L6.94801 0.643022Z" fill="white" stroke="#2B2B2C" stroke-width="0.6"/>
</svg></g>
<g transform="translate(68, 184)"><svg width="22" height="26" viewBox="0 0 22 26" fill="none" xmlns="http://www.w3.org/2000/svg">
<path d="M3.03741 2.7187H18.0374C19.5286 2.7187 20.7374 3.92753 20.7374 5.4187V22.4187C20.7374 23.9099 19.5286 25.1187 18.0374 25.1187H3.03741C1.54625 25.1187 0.337415 23.9099 0.337415 22.4187V5.4187C0.337415 3.92753 1.54625 2.7187 3.03741 2.7187Z" fill="white" stroke="#2B2B2C" stroke-width="0.6"/>
<path d="M2.54439 3.84303L2.54439 3.34302C2.54439 1.85186 3.75322 0.643025 5.24439 0.643024L15.8326 0.643024C17.3237 0.643024 18.5326 1.85186 18.5326 3.34302L18.5326 3.84299C18.5326 5.3341 17.3233 6.543 15.8321 6.543L5.24483 6.54302C3.75361 6.54302 2.54439 5.33413 2.54439 3.84303Z" fill="white" stroke="#2B2B2C" stroke-width="0.6"/>
<path d="M0.0374146 12.1978L0.537414 12.1978C1.64198 12.1978 2.53741 11.3023 2.53741 10.1978L2.53741 3.48071" stroke="#2B2B2C" stroke-width="0.6"/>
<path d="M21.0374 12.1978L20.5374 12.1978C19.4328 12.1978 18.5374 11.3023 18.5374 10.1978L18.5374 3.48071" stroke="#2B2B2C" stroke-width="0.6"/>
<path d="M6.94801 0.643022L6.94801 2.59301C6.94801 2.97961 7.26141 3.29301 7.64801 3.29301L13.4268 3.29301C13.8134 3.29301 14.1268 2.97961 14.1268 2.59301L14.1268 0.643022L6.94801 0.643022Z" fill="white" stroke="#2B2B2C" stroke-width="0.6"/>
</svg></g>
<g transform="translate(5, 142)"><svg width="22" height="26" viewBox="0 0 22 26" fill="none" xmlns="http://www.w3.org/2000/svg">
<path d="M3.03741 2.7187H18.0374C19.5286 2.7187 20.7374 3.92753 20.7374 5.4187V22.4187C20.7374 23.9099 19.5286 25.1187 18.0374 25.1187H3.03741C1.54625 25.1187 0.337415 23.9099 0.337415 22.4187V5.4187C0.337415 3.92753 1.54625 2.7187 3.03741 2.7187Z" fill="white" stroke="#2B2B2C" stroke-width="0.6"/>
<path d="M2.54439 3.84303L2.54439 3.34302C2.54439 1.85186 3.75322 0.643025 5.24439 0.643024L15.8326 0.643024C17.3237 0.643024 18.5326 1.85186 18.5326 3.34302L18.5326 3.84299C18.5326 5.3341 17.3233 6.543 15.8321 6.543L5.24483 6.54302C3.75361 6.54302 2.54439 5.33413 2.54439 3.84303Z" fill="white" stroke="#2B2B2C" stroke-width="0.6"/>
<path d="M0.0374146 12.1978L0.537414 12.1978C1.64198 12.1978 2.53741 11.3023 2.53741 10.1978L2.53741 3.48071" stroke="#2B2B2C" stroke-width="0.6"/>
<path d="M21.0374 12.1978L20.5374 12.1978C19.4328 12.1978 18.5374 11.3023 18.5374 10.1978L18.5374 3.48071" stroke="#2B2B2C" stroke-width="0.6"/>
<path d="M6.94801 0.643022L6.94801 2.59301C6.94801 2.97961 7.26141 3.29301 7.64801 3.29301L13.4268 3.29301C13.8134 3.29301 14.1268 2.97961 14.1268 2.59301L14.1268 0.643022L6.94801 0.643022Z" fill="white" stroke="#2B2B2C" stroke-width="0.6"/>
</svg></g>
<g transform="translate(27, 142)"><svg width="22" height="26" viewBox="0 0 22 26" fill="none" xmlns="http://www.w3.org/2000/svg">
<path d="M3.03741 2.7187H18.0374C19.5286 2.7187 20.7374 3.92753 20.7374 5.4187V22.4187C20.7374 23.9099 19.5286 25.1187 18.0374 25.1187H3.03741C1.54625 25.1187 0.337415 23.9099 0.337415 22.4187V5.4187C0.337415 3.92753 1.54625 2.7187 3.03741 2.7187Z" fill="white" stroke="#2B2B2C" stroke-width="0.6"/>
<path d="M2.54439 3.84303L2.54439 3.34302C2.54439 1.85186 3.75322 0.643025 5.24439 0.643024L15.8326 0.643024C17.3237 0.643024 18.5326 1.85186 18.5326 3.34302L18.5326 3.84299C18.5326 5.3341 17.3233 6.543 15.8321 6.543L5.24483 6.54302C3.75361 6.54302 2.54439 5.33413 2.54439 3.84303Z" fill="white" stroke="#2B2B2C" stroke-width="0.6"/>
<path d="M0.0374146 12.1978L0.537414 12.1978C1.64198 12.1978 2.53741 11.3023 2.53741 10.1978L2.53741 3.48071" stroke="#2B2B2C" stroke-width="0.6"/>
<path d="M21.0374 12.1978L20.5374 12.1978C19.4328 12.1978 18.5374 11.3023 18.5374 10.1978L18.5374 3.48071" stroke="#2B2B2C" stroke-width="0.6"/>
<path d="M6.94801 0.643022L6.94801 2.59301C6.94801 2.97961 7.26141 3.29301 7.64801 3.29301L13.4268 3.29301C13.8134 3.29301 14.1268 2.97961 14.1268 2.59301L14.1268 0.643022L6.94801 0.643022Z" fill="white" stroke="#2B2B2C" stroke-width="0.6"/>
</svg></g>
<g transform="translate(68, 142)"><svg width="22" height="26" viewBox="0 0 22 26" fill="none" xmlns="http://www.w3.org/2000/svg">
<path d="M3.03741 2.7187H18.0374C19.5286 2.7187 20.7374 3.92753 20.7374 5.4187V22.4187C20.7374 23.9099 19.5286 25.1187 18.0374 25.1187H3.03741C1.54625 25.1187 0.337415 23.9099 0.337415 22.4187V5.4187C0.337415 3.92753 1.54625 2.7187 3.03741 2.7187Z" fill="white" stroke="#2B2B2C" stroke-width="0.6"/>
<path d="M2.54439 3.84303L2.54439 3.34302C2.54439 1.85186 3.75322 0.643025 5.24439 0.643024L15.8326 0.643024C17.3237 0.643024 18.5326 1.85186 18.5326 3.34302L18.5326 3.84299C18.5326 5.3341 17.3233 6.543 15.8321 6.543L5.24483 6.54302C3.75361 6.54302 2.54439 5.33413 2.54439 3.84303Z" fill="white" stroke="#2B2B2C" stroke-width="0.6"/>
<path d="M0.0374146 12.1978L0.537414 12.1978C1.64198 12.1978 2.53741 11.3023 2.53741 10.1978L2.53741 3.48071" stroke="#2B2B2C" stroke-width="0.6"/>
<path d="M21.0374 12.1978L20.5374 12.1978C19.4328 12.1978 18.5374 11.3023 18.5374 10.1978L18.5374 3.48071" stroke="#2B2B2C" stroke-width="0.6"/>
<path d="M6.94801 0.643022L6.94801 2.59301C6.94801 2.97961 7.26141 3.29301 7.64801 3.29301L13.4268 3.29301C13.8134 3.29301 14.1268 2.97961 14.1268 2.59301L14.1268 0.643022L6.94801 0.643022Z" fill="white" stroke="#2B2B2C" stroke-width="0.6"/>
</svg></g>
<g transform="translate(5, 100)"><svg width="22" height="26" viewBox="0 0 22 26" fill="none" xmlns="http://www.w3.org/2000/svg">
<path d="M3.03741 2.7187H18.0374C19.5286 2.7187 20.7374 3.92753 20.7374 5.4187V22.4187C20.7374 23.9099 19.5286 25.1187 18.0374 25.1187H3.03741C1.54625 25.1187 0.337415 23.9099 0.337415 22.4187V5.4187C0.337415 3.92753 1.54625 2.7187 3.03741 2.7187Z" fill="white" stroke="#2B2B2C" stroke-width="0.6"/>
<path d="M2.54439 3.84303L2.54439 3.34302C2.54439 1.85186 3.75322 0.643025 5.24439 0.643024L15.8326 0.643024C17.3237 0.643024 18.5326 1.85186 18.5326 3.34302L18.5326 3.84299C18.5326 5.3341 17.3233 6.543 15.8321 6.543L5.24483 6.54302C3.75361 6.54302 2.54439 5.33413 2.54439 3.84303Z" fill="white" stroke="#2B2B2C" stroke-width="0.6"/>
<path d="M0.0374146 12.1978L0.537414 12.1978C1.64198 12.1978 2.53741 11.3023 2.53741 10.1978L2.53741 3.48071" stroke="#2B2B2C" stroke-width="0.6"/>
<path d="M21.0374 12.1978L20.5374 12.1978C19.4328 12.1978 18.5374 11.3023 18.5374 10.1978L18.5374 3.48071" stroke="#2B2B2C" stroke-width="0.6"/>
<path d="M6.94801 0.643022L6.94801 2.59301C6.94801 2.97961 7.26141 3.29301 7.64801 3.29301L13.4268 3.29301C13.8134 3.29301 14.1268 2.97961 14.1268 2.59301L14.1268 0.643022L6.94801 0.643022Z" fill="white" stroke="#2B2B2C" stroke-width="0.6"/>
</svg></g>
<g transform="translate(27, 100)"><svg width="22" height="26" viewBox="0 0 22 26" fill="none" xmlns="http://www.w3.org/2000/svg">
<path d="M3.03741 2.7187H18.0374C19.5286 2.7187 20.7374 3.92753 20.7374 5.4187V22.4187C20.7374 23.9099 19.5286 25.1187 18.0374 25.1187H3.03741C1.54625 25.1187 0.337415 23.9099 0.337415 22.4187V5.4187C0.337415 3.92753 1.54625 2.7187 3.03741 2.7187Z" fill="white" stroke="#2B2B2C" stroke-width="0.6"/>
<path d="M2.54439 3.84303L2.54439 3.34302C2.54439 1.85186 3.75322 0.643025 5.24439 0.643024L15.8326 0.643024C17.3237 0.643024 18.5326 1.85186 18.5326 3.34302L18.5326 3.84299C18.5326 5.3341 17.3233 6.543 15.8321 6.543L5.24483 6.54302C3.75361 6.54302 2.54439 5.33413 2.54439 3.84303Z" fill="white" stroke="#2B2B2C" stroke-width="0.6"/>
<path d="M0.0374146 12.1978L0.537414 12.1978C1.64198 12.1978 2.53741 11.3023 2.53741 10.1978L2.53741 3.48071" stroke="#2B2B2C" stroke-width="0.6"/>
<path d="M21.0374 12.1978L20.5374 12.1978C19.4328 12.1978 18.5374 11.3023 18.5374 10.1978L18.5374 3.48071" stroke="#2B2B2C" stroke-width="0.6"/>
<path d="M6.94801 0.643022L6.94801 2.59301C6.94801 2.97961 7.26141 3.29301 7.64801 3.29301L13.4268 3.29301C13.8134 3.29301 14.1268 2.97961 14.1268 2.59301L14.1268 0.643022L6.94801 0.643022Z" fill="white" stroke="#2B2B2C" stroke-width="0.6"/>
</svg></g>
<g transform="translate(68, 100)"><svg width="22" height="26" viewBox="0 0 22 26" fill="none" xmlns="http://www.w3.org/2000/svg">
<path d="M3.03741 2.7187H18.0374C19.5286 2.7187 20.7374 3.92753 20.7374 5.4187V22.4187C20.7374 23.9099 19.5286 25.1187 18.0374 25.1187H3.03741C1.54625 25.1187 0.337415 23.9099 0.337415 22.4187V5.4187C0.337415 3.92753 1.54625 2.7187 3.03741 2.7187Z" fill="white" stroke="#2B2B2C" stroke-width="0.6"/>
<path d="M2.54439 3.84303L2.54439 3.34302C2.54439 1.85186 3.75322 0.643025 5.24439 0.643024L15.8326 0.643024C17.3237 0.643024 18.5326 1.85186 18.5326 3.34302L18.5326 3.84299C18.5326 5.3341 17.3233 6.543 15.8321 6.543L5.24483 6.54302C3.75361 6.54302 2.54439 5.33413 2.54439 3.84303Z" fill="white" stroke="#2B2B2C" stroke-width="0.6"/>
<path d="M0.0374146 12.1978L0.537414 12.1978C1.64198 12.1978 2.53741 11.3023 2.53741 10.1978L2.53741 3.48071" stroke="#2B2B2C" stroke-width="0.6"/>
<path d="M21.0374 12.1978L20.5374 12.1978C19.4328 12.1978 18.5374 11.3023 18.5374 10.1978L18.5374 3.48071" stroke="#2B2B2C" stroke-width="0.6"/>
<path d="M6.94801 0.643022L6.94801 2.59301C6.94801 2.97961 7.26141 3.29301 7.64801 3.29301L13.4268 3.29301C13.8134 3.29301 14.1268 2.97961 14.1268 2.59301L14.1268 0.643022L6.94801 0.643022Z" fill="white" stroke="#2B2B2C" stroke-width="0.6"/>
</svg></g>
<g transform="translate(5, 58)"><svg width="22" height="26" viewBox="0 0 22 26" fill="none" xmlns="http://www.w3.org/2000/svg">
<path d="M3.03741 2.7187H18.0374C19.5286 2.7187 20.7374 3.92753 20.7374 5.4187V22.4187C20.7374 23.9099 19.5286 25.1187 18.0374 25.1187H3.03741C1.54625 25.1187 0.337415 23.9099 0.337415 22.4187V5.4187C0.337415 3.92753 1.54625 2.7187 3.03741 2.7187Z" fill="white" stroke="#2B2B2C" stroke-width="0.6"/>
<path d="M2.54439 3.84303L2.54439 3.34302C2.54439 1.85186 3.75322 0.643025 5.24439 0.643024L15.8326 0.643024C17.3237 0.643024 18.5326 1.85186 18.5326 3.34302L18.5326 3.84299C18.5326 5.3341 17.3233 6.543 15.8321 6.543L5.24483 6.54302C3.75361 6.54302 2.54439 5.33413 2.54439 3.84303Z" fill="white" stroke="#2B2B2C" stroke-width="0.6"/>
<path d="M0.0374146 12.1978L0.537414 12.1978C1.64198 12.1978 2.53741 11.3023 2.53741 10.1978L2.53741 3.48071" stroke="#2B2B2C" stroke-width="0.6"/>
<path d="M21.0374 12.1978L20.5374 12.1978C19.4328 12.1978 18.5374 11.3023 18.5374 10.1978L18.5374 3.48071" stroke="#2B2B2C" stroke-width="0.6"/>
<path d="M6.94801 0.643022L6.94801 2.59301C6.94801 2.97961 7.26141 3.29301 7.64801 3.29301L13.4268 3.29301C13.8134 3.29301 14.1268 2.97961 14.1268 2.59301L14.1268 0.643022L6.94801 0.643022Z" fill="white" stroke="#2B2B2C" stroke-width="0.6"/>
</svg></g>
<g transform="translate(27, 58)"><svg width="22" height="26" viewBox="0 0 22 26" fill="none" xmlns="http://www.w3.org/2000/svg">
<path d="M3.03741 2.7187H18.0374C19.5286 2.7187 20.7374 3.92753 20.7374 5.4187V22.4187C20.7374 23.9099 19.5286 25.1187 18.0374 25.1187H3.03741C1.54625 25.1187 0.337415 23.9099 0.337415 22.4187V5.4187C0.337415 3.92753 1.54625 2.7187 3.03741 2.7187Z" fill="white" stroke="#2B2B2C" stroke-width="0.6"/>
<path d="M2.54439 3.84303L2.54439 3.34302C2.54439 1.85186 3.75322 0.643025 5.24439 0.643024L15.8326 0.643024C17.3237 0.643024 18.5326 1.85186 18.5326 3.34302L18.5326 3.84299C18.5326 5.3341 17.3233 6.543 15.8321 6.543L5.24483 6.54302C3.75361 6.54302 2.54439 5.33413 2.54439 3.84303Z" fill="white" stroke="#2B2B2C" stroke-width="0.6"/>
<path d="M0.0374146 12.1978L0.537414 12.1978C1.64198 12.1978 2.53741 11.3023 2.53741 10.1978L2.53741 3.48071" stroke="#2B2B2C" stroke-width="0.6"/>
<path d="M21.0374 12.1978L20.5374 12.1978C19.4328 12.1978 18.5374 11.3023 18.5374 10.1978L18.5374 3.48071" stroke="#2B2B2C" stroke-width="0.6"/>
<path d="M6.94801 0.643022L6.94801 2.59301C6.94801 2.97961 7.26141 3.29301 7.64801 3.29301L13.4268 3.29301C13.8134 3.29301 14.1268 2.97961 14.1268 2.59301L14.1268 0.643022L6.94801 0.643022Z" fill="white" stroke="#2B2B2C" stroke-width="0.6"/>
</svg></g>
<g transform="translate(68, 58)"><svg width="22" height="26" viewBox="0 0 22 26" fill="none" xmlns="http://www.w3.org/2000/svg">
<path d="M3.03741 2.7187H18.0374C19.5286 2.7187 20.7374 3.92753 20.7374 5.4187V22.4187C20.7374 23.9099 19.5286 25.1187 18.0374 25.1187H3.03741C1.54625 25.1187 0.337415 23.9099 0.337415 22.4187V5.4187C0.337415 3.92753 1.54625 2.7187 3.03741 2.7187Z" fill="white" stroke="#2B2B2C" stroke-width="0.6"/>
<path d="M2.54439 3.84303L2.54439 3.34302C2.54439 1.85186 3.75322 0.643025 5.24439 0.643024L15.8326 0.643024C17.3237 0.643024 18.5326 1.85186 18.5326 3.34302L18.5326 3.84299C18.5326 5.3341 17.3233 6.543 15.8321 6.543L5.24483 6.54302C3.75361 6.54302 2.54439 5.33413 2.54439 3.84303Z" fill="white" stroke="#2B2B2C" stroke-width="0.6"/>
<path d="M0.0374146 12.1978L0.537414 12.1978C1.64198 12.1978 2.53741 11.3023 2.53741 10.1978L2.53741 3.48071" stroke="#2B2B2C" stroke-width="0.6"/>
<path d="M21.0374 12.1978L20.5374 12.1978C19.4328 12.1978 18.5374 11.3023 18.5374 10.1978L18.5374 3.48071" stroke="#2B2B2C" stroke-width="0.6"/>
<path d="M6.94801 0.643022L6.94801 2.59301C6.94801 2.97961 7.26141 3.29301 7.64801 3.29301L13.4268 3.29301C13.8134 3.29301 14.1268 2.97961 14.1268 2.59301L14.1268 0.643022L6.94801 0.643022Z" fill="white" stroke="#2B2B2C" stroke-width="0.6"/>
</svg></g>
<g transform="translate(78, 611)"><svg width="13" height="27" viewBox="0 0 13 27" fill="none" xmlns="http://www.w3.org/2000/svg">
<rect x="0.401855" y="26.3997" width="26" height="12" rx="1.38534" transform="rotate(-90 0.401855 26.3997)" fill="#65B152"/>
<path d="M3.44751 18.0164L3.44751 22.208L9.41151 22.208L9.41151 17.9156L8.42871 17.9156L8.42871 21.0236L6.82431 21.0236L6.82431 18.2012L5.83311 18.2012L5.83311 21.0236L4.43031 21.0236L4.43031 18.0164L3.44751 18.0164Z" fill="white"/>
<path d="M9.41151 11.6918L6.25311 13.8674L3.44751 11.9186L3.44751 13.229L5.41311 14.5562L3.44751 15.8834L3.44751 17.219L6.24471 15.2786L9.41151 17.4458L9.41151 16.1522L7.10151 14.573L9.41151 13.0106L9.41151 11.6918Z" fill="white"/>
<path d="M3.44751 9.76754L3.44751 10.9519L9.41151 10.9519L9.41151 9.76754L3.44751 9.76754Z" fill="white"/>
<path d="M3.44751 4.22459L3.44751 8.88659L4.44711 8.88659L4.44711 7.15619L9.41151 7.15619L9.41151 5.97179L4.44711 5.97179L4.44711 4.22459L3.44751 4.22459Z" fill="white"/>
</svg></g>
<g transform="translate(4, 3)"><svg width="13" height="27" viewBox="0 0 13 27" fill="none" xmlns="http://www.w3.org/2000/svg">
<rect x="12.4136" y="0.399414" width="26" height="12" rx="1.38534" transform="rotate(90 12.4136 0.399414)" fill="#65B152"/>
<path d="M9.36792 8.78266L9.36792 4.59106L3.40392 4.59106L3.40392 8.88346L4.38672 8.88346L4.38672 5.77546L5.99112 5.77546L5.99112 8.59786L6.98232 8.59786L6.98232 5.77546L8.38512 5.77546L8.38512 8.78266L9.36792 8.78266Z" fill="white"/>
<path d="M3.40392 15.1073L6.56232 12.9317L9.36792 14.8805L9.36792 13.5701L7.40232 12.2429L9.36792 10.9157L9.36792 9.58007L6.57072 11.5205L3.40392 9.35327L3.40392 10.6469L5.71392 12.2261L3.40392 13.7885L3.40392 15.1073Z" fill="white"/>
<path d="M9.36792 17.0315L9.36792 15.8471L3.40392 15.8471L3.40392 17.0315L9.36792 17.0315Z" fill="white"/>
<path d="M9.36792 22.5745L9.36792 17.9125L8.36832 17.9125L8.36832 19.6429L3.40392 19.6429L3.40392 20.8273L8.36832 20.8273L8.36832 22.5745L9.36792 22.5745Z" fill="white"/>
</svg></g>
<g transform="translate(4, 611)"><svg width="13" height="27" viewBox="0 0 13 27" fill="none" xmlns="http://www.w3.org/2000/svg">
<rect x="12.4136" y="0.399414" width="26" height="12" rx="1.38534" transform="rotate(90 12.4136 0.399414)" fill="#65B152"/>
<path d="M9.36792 8.78266L9.36792 4.59106L3.40392 4.59106L3.40392 8.88346L4.38672 8.88346L4.38672 5.77546L5.99112 5.77546L5.99112 8.59786L6.98232 8.59786L6.98232 5.77546L8.38512 5.77546L8.38512 8.78266L9.36792 8.78266Z" fill="white"/>
<path d="M3.40392 15.1073L6.56232 12.9317L9.36792 14.8805L9.36792 13.5701L7.40232 12.2429L9.36792 10.9157L9.36792 9.58007L6.57072 11.5205L3.40392 9.35327L3.40392 10.6469L5.71392 12.2261L3.40392 13.7885L3.40392 15.1073Z" fill="white"/>
<path d="M9.36792 17.0315L9.36792 15.8471L3.40392 15.8471L3.40392 17.0315L9.36792 17.0315Z" fill="white"/>
<path d="M9.36792 22.5745L9.36792 17.9125L8.36832 17.9125L8.36832 19.6429L3.40392 19.6429L3.40392 20.8273L8.36832 20.8273L8.36832 22.5745L9.36792 22.5745Z" fill="white"/>
</svg></g>
<g transform="translate(78, 3)"><svg width="13" height="27" viewBox="0 0 13 27" fill="none" xmlns="http://www.w3.org/2000/svg">
<rect x="0.401855" y="26.3997" width="26" height="12" rx="1.38534" transform="rotate(-90 0.401855 26.3997)" fill="#65B152"/>
<path d="M3.44751 18.0164L3.44751 22.208L9.41151 22.208L9.41151 17.9156L8.42871 17.9156L8.42871 21.0236L6.82431 21.0236L6.82431 18.2012L5.83311 18.2012L5.83311 21.0236L4.43031 21.0236L4.43031 18.0164L3.44751 18.0164Z" fill="white"/>
<path d="M9.41151 11.6918L6.25311 13.8674L3.44751 11.9186L3.44751 13.229L5.41311 14.5562L3.44751 15.8834L3.44751 17.219L6.24471 15.2786L9.41151 17.4458L9.41151 16.1522L7.10151 14.573L9.41151 13.0106L9.41151 11.6918Z" fill="white"/>
<path d="M3.44751 9.76754L3.44751 10.9519L9.41151 10.9519L9.41151 9.76754L3.44751 9.76754Z" fill="white"/>
<path d="M3.44751 4.22459L3.44751 8.88659L4.44711 8.88659L4.44711 7.15619L9.41151 7.15619L9.41151 5.97179L4.44711 5.97179L4.44711 4.22459L3.44751 4.22459Z" fill="white"/>
</svg></g>
<g transform="translate(66, 562)"><svg width="17" height="13" viewBox="0 0 17 13" fill="none" xmlns="http://www.w3.org/2000/svg">
<path d="M9.4682 3.55355L8.08967 9.27727H7.18677L6.47735 6.64919C6.24625 5.77854 6.07159 5.06106 5.95335 4.49675C5.82436 5.08256 5.64701 5.80004 5.42128 6.64919L4.71993 9.27727H3.78478L2.39819 3.55355H3.16404L3.80897 6.3106C4.00782 7.18125 4.16637 7.93098 4.2846 8.55979C4.4942 7.65689 4.68231 6.90716 4.84891 6.3106L5.6067 3.55355H6.33224L7.06585 6.3106C7.2432 6.96091 7.42593 7.70795 7.61403 8.55172C7.81289 7.58971 7.97412 6.84267 8.09773 6.3106L8.74265 3.55355H9.4682Z" fill="black"/>
<path d="M12.7542 3.42456C13.1251 3.42456 13.4637 3.48905 13.77 3.61804C14.0817 3.74165 14.4122 3.95125 14.7616 4.24684L14.3424 4.74666C14.0414 4.48331 13.7673 4.30327 13.5201 4.20653C13.2729 4.10979 13.0149 4.06143 12.7462 4.06143C12.3377 4.06143 11.983 4.16085 11.682 4.3597C11.3865 4.55856 11.158 4.83802 10.9968 5.19811C10.8356 5.55282 10.755 5.95858 10.755 6.41541C10.755 6.87223 10.8356 7.28068 10.9968 7.64077C11.158 7.99547 11.3838 8.27226 11.674 8.47111C11.9696 8.66996 12.3108 8.76939 12.6978 8.76939C13.0256 8.76939 13.3159 8.70489 13.5685 8.57591C13.821 8.44155 14.1059 8.22389 14.423 7.92292L14.8664 8.40661C14.5009 8.7667 14.1543 9.02467 13.8264 9.18053C13.4986 9.33101 13.1251 9.40625 12.7059 9.40625C12.1469 9.40625 11.6632 9.27726 11.2548 9.01929C10.8517 8.76132 10.5427 8.40661 10.3277 7.95517C10.1127 7.50372 10.0052 6.98778 10.0052 6.40734C10.0052 5.83228 10.1127 5.31903 10.3277 4.86758C10.5427 4.41613 10.8571 4.06411 11.2709 3.81152C11.6847 3.55355 12.1792 3.42456 12.7542 3.42456Z" fill="black"/>
</svg></g>
<text x="16" y="502" text-anchor="middle" font-size="8">1</text>
<text x="57" y="502" text-anchor="middle" font-size="8">3</text>
<text x="79" y="502" text-anchor="middle" font-size="8">4</text>
<text x="16" y="456" text-anchor="middle" font-size="8">5</text>
<text x="57" y="456" text-anchor="middle" font-size="8">7</text>
<text x="79" y="456" text-anchor="middle" font-size="8">8</text>
<text x="16" y="414" text-anchor="middle" font-size="8">9</text>
<text x="57" y="414" text-anchor="middle" font-size="8">11</text>
<text x="79" y="414" text-anchor="middle" font-size="8">12</text>
<text x="16" y="372" text-anchor="middle" font-size="8">13</text>
<text x="57" y="372" text-anchor="middle" font-size="8">15</text>
<text x="79" y="372" text-anchor="middle" font-size="8">16</text>
<text x="16" y="284" text-anchor="middle" font-size="8">17</text>
<text x="38" y="284" text-anchor="middle" font-size="8">18</text>
<text x="79" y="284" text-anchor="middle" font-size="8">20</text>
<text x="16" y="242" text-anchor="middle" font-size="8">21</text>
<text x="38" y="242" text-anchor="middle" font-size="8">22</text>
<text x="79" y="242" text-anchor="middle" font-size="8">24</text>
<text x="16" y="200" text-anchor="middle" font-size="8">25</text>
<text x="38" y="200" text-anchor="middle" font-size="8">26</text>
<text x="79" y="200" text-anchor="middle" font-size="8">28</text>
<text x="16" y="158" text-anchor="middle" font-size="8">29</text>
<text x="38" y="158" text-anchor="middle" font-size="8">30</text>
<text x="79" y="158" text-anchor="middle" font-size="8">32</text>
<text x="16" y="116" text-anchor="middle" font-size="8">33</text>
<text x="38" y="116" text-anchor="middle" font-size="8">34</text>
<text x="79" y="116" text-anchor="middle" font-size="8">36</text>
<text x="16" y="74" text-anchor="middle" font-size="8">37</text>
<text x="38" y="74" text-anchor="middle" font-size="8">38</text>
<text x="79" y="74" text-anchor="middle" font-size="8">40</text>
</svg>
