<svg xmlns="http://www.w3.org/2000/svg" xmlns:xlink="http://www.w3.org/1999/xlink" width="91.64px" height="740.483px" viewBox="0 0 91.64 740.483">
<svg version="1.1" id="Layer_1" xmlns="http://www.w3.org/2000/svg" xmlns:xlink="http://www.w3.org/1999/xlink" x="0px" y="0px" width="91.64px" height="740.483px" viewBox="0 0 91.64 740.483" enable-background="new 0 0 91.64 740.483" xml:space="preserve"> <polygon fill="none" stroke="#B2B4B7" stroke-width="4" stroke-linecap="round" stroke-linejoin="round" stroke-miterlimit="10" points=" 57.78,12.686 33.905,12.686 32.53,19.631 2.011,19.631 2.011,727.965 11.95,727.965 11.95,723.264 32.81,723.264 34.156,727.965 57.993,727.965 59.291,722.597 79.871,722.597 79.871,727.965 89.643,727.965 89.643,12.686 81.141,12.686 81.141,18.446 59.092,18.446 "/> <rect y="54.659" fill-rule="evenodd" clip-rule="evenodd" fill="#D0E4EF" width="2.835" height="630.869"/> <rect x="0.001" y="639.956" fill-rule="evenodd" clip-rule="evenodd" fill="#808080" width="2.835" height="46.075"/> <rect x="0.001" y="582.482" fill-rule="evenodd" clip-rule="evenodd" fill="#808080" width="2.835" height="9.706"/> <rect x="0.001" y="524.563" fill-rule="evenodd" clip-rule="evenodd" fill="#808080" width="2.835" height="10.247"/> <rect x="0.001" y="437.24" fill-rule="evenodd" clip-rule="evenodd" fill="#808080" width="2.835" height="39.606"/> <rect x="0.001" y="379.466" fill-rule="evenodd" clip-rule="evenodd" fill="#808080" width="2.835" height="10.973"/> <rect x="0.001" y="322.613" fill-rule="evenodd" clip-rule="evenodd" fill="#808080" width="2.835" height="9.705"/> <rect x="0.001" y="263.799" fill-rule="evenodd" clip-rule="evenodd" fill="#808080" width="2.835" height="10.789"/> <rect x="0.001" y="207.028" fill-rule="evenodd" clip-rule="evenodd" fill="#808080" width="2.835" height="9.435"/> <rect x="0.001" y="148.027" fill-rule="evenodd" clip-rule="evenodd" fill="#808080" width="2.835" height="9.977"/> <rect x="0.001" y="54.625" fill-rule="evenodd" clip-rule="evenodd" fill="#808080" width="2.835" height="45.94"/> <rect x="88.805" y="54.803" fill-rule="evenodd" clip-rule="evenodd" fill="#D0E4EF" width="2.835" height="630.868"/> <rect x="88.805" y="640.1" fill-rule="evenodd" clip-rule="evenodd" fill="#808080" width="2.835" height="45.94"/> <rect x="88.805" y="582.625" fill-rule="evenodd" clip-rule="evenodd" fill="#808080" width="2.835" height="9.705"/> <rect x="88.805" y="524.705" fill-rule="evenodd" clip-rule="evenodd" fill="#808080" width="2.835" height="10.248"/> <rect x="88.805" y="437.384" fill-rule="evenodd" clip-rule="evenodd" fill="#808080" width="2.835" height="39.604"/> <rect x="88.805" y="379.609" fill-rule="evenodd" clip-rule="evenodd" fill="#808080" width="2.835" height="10.973"/> <rect x="88.805" y="322.756" fill-rule="evenodd" clip-rule="evenodd" fill="#808080" width="2.835" height="9.707"/> <rect x="88.805" y="263.941" fill-rule="evenodd" clip-rule="evenodd" fill="#808080" width="2.835" height="10.789"/> <rect x="88.805" y="207.171" fill-rule="evenodd" clip-rule="evenodd" fill="#808080" width="2.835" height="9.434"/> <rect x="88.805" y="148.169" fill-rule="evenodd" clip-rule="evenodd" fill="#808080" width="2.835" height="9.979"/> <rect x="88.805" y="54.451" fill-rule="evenodd" clip-rule="evenodd" fill="#808080" width="2.835" height="46.256"/> <rect x="17.689" y="1.458" fill="none" stroke="#000000" stroke-width="0.71" stroke-miterlimit="10" width="5.609" height="5.709"/> <polyline fill="none" stroke="#000000" stroke-width="0.71" stroke-miterlimit="10" points="23.848,16.953 23.848,7.166 17.096,7.166 17.096,16.953 "/> <g> <defs> <rect id="bg-SVGID_1_" x="-354.282" y="-42.072" width="1190.55" height="841.89"/> </defs> <clipPath id="bg-SVGID_2_"> <use xlink:href="#bg-SVGID_1_" overflow="visible"/> </clipPath> <path clip-path="url(#bg-SVGID_2_)" fill="none" stroke="#000000" stroke-width="0.71" stroke-miterlimit="10" d="M26.142,1.422V0.426 l-0.175-0.041c-1.69-0.529-9.053-0.647-10.954,0l-0.21,0.057v0.98H26.142z"/> <rect x="68.458" y="1.458" clip-path="url(#bg-SVGID_2_)" fill="none" stroke="#000000" stroke-width="0.71" stroke-miterlimit="10" width="5.609" height="5.709"/> <polyline clip-path="url(#bg-SVGID_2_)" fill="none" stroke="#000000" stroke-width="0.71" stroke-miterlimit="10" points=" 67.886,16.953 67.886,7.166 74.639,7.166 74.639,16.953 "/> <path clip-path="url(#bg-SVGID_2_)" fill="none" stroke="#000000" stroke-width="0.71" stroke-miterlimit="10" d="M65.615,1.406 l11.339,0.016V0.441l-0.21-0.055c-1.902-0.646-9.265-0.529-10.954,0l-0.175,0.041V1.406z"/> <rect x="17.673" y="733.446" clip-path="url(#bg-SVGID_2_)" fill="none" stroke="#000000" stroke-width="0.71" stroke-miterlimit="10" width="5.609" height="5.71"/> <polyline clip-path="url(#bg-SVGID_2_)" fill="none" stroke="#000000" stroke-width="0.71" stroke-miterlimit="10" points=" 24.015,723.66 24.015,733.447 17.263,733.447 17.263,723.66 "/> <path clip-path="url(#bg-SVGID_2_)" fill="none" stroke="#000000" stroke-width="0.71" stroke-miterlimit="10" d="M25.974,739.191 H14.989h-0.203v0.98l0.211,0.056c1.9,0.646,9.263,0.529,10.954,0l0.174-0.041v-0.979L25.974,739.191"/> <rect x="68.787" y="733.446" clip-path="url(#bg-SVGID_2_)" fill="none" stroke="#000000" stroke-width="0.71" stroke-miterlimit="10" width="5.609" height="5.709"/> <polyline clip-path="url(#bg-SVGID_2_)" fill="none" stroke="#000000" stroke-width="0.71" stroke-miterlimit="10" points=" 68.053,723.659 68.053,733.446 74.806,733.446 74.806,723.659 "/> <path clip-path="url(#bg-SVGID_2_)" fill="none" stroke="#000000" stroke-width="0.71" stroke-miterlimit="10" d="M66.095,739.19 h10.984h0.204v0.98l-0.21,0.056c-1.902,0.646-9.265,0.53-10.955,0l-0.174-0.041v-0.979L66.095,739.19"/> <rect x="91.64" y="657.208" clip-path="url(#bg-SVGID_2_)" fill-rule="evenodd" clip-rule="evenodd" fill="#393B41" width="1.214" height="29.074"/> <rect x="-1.263" y="656.86" clip-path="url(#bg-SVGID_2_)" fill-rule="evenodd" clip-rule="evenodd" fill="#393B41" width="1.214" height="29.074"/> <rect x="-1.213" y="54.605" clip-path="url(#bg-SVGID_2_)" fill-rule="evenodd" clip-rule="evenodd" fill="#393B41" width="1.214" height="29.074"/> <rect x="91.665" y="54.398" clip-path="url(#bg-SVGID_2_)" fill-rule="evenodd" clip-rule="evenodd" fill="#393B41" width="1.214" height="29.074"/> <rect x="2.835" y="442.846" clip-path="url(#bg-SVGID_2_)" fill="#808080" width="30.616" height="28.348"/> <rect x="2.835" y="442.846" clip-path="url(#bg-SVGID_2_)" fill="none" stroke="#808080" stroke-width="0.5" stroke-miterlimit="10" width="30.616" height="28.348"/> <polygon clip-path="url(#bg-SVGID_2_)" fill="#E9EAE8" points="14.978,471.193 33.451,471.115 33.451,442.878 14.978,442.878 "/> <polygon clip-path="url(#bg-SVGID_2_)" fill="none" stroke="#B2B4B7" stroke-width="0.5" stroke-miterlimit="10" points=" 14.978,471.193 33.451,471.115 33.451,442.878 14.978,442.878 "/> <rect x="58.202" y="442.954" clip-path="url(#bg-SVGID_2_)" fill="#808080" width="30.603" height="28.349"/> <rect x="58.202" y="442.954" clip-path="url(#bg-SVGID_2_)" fill="none" stroke="#808080" stroke-width="0.5" stroke-miterlimit="10" width="30.603" height="28.349"/> <rect x="58.202" y="442.954" clip-path="url(#bg-SVGID_2_)" fill="#E9EAE8" width="18.474" height="28.349"/> <rect x="58.202" y="442.954" clip-path="url(#bg-SVGID_2_)" fill="none" stroke="#B2B4B7" stroke-width="0.5" stroke-miterlimit="10" width="18.474" height="28.349"/> <polygon clip-path="url(#bg-SVGID_2_)" fill="#808080" points="78.846,714.681 60.717,714.681 60.717,714.679 60.205,714.679 57.205,727.847 34.864,727.847 31.609,714.68 31.352,714.68 31.352,714.682 13.223,714.682 3.735,714.682 3.735,733.308 13.223,733.308 13.223,725.285 32.471,725.296 33.373,728.188 33.428,728.188 33.428,740.483 58.702,740.483 58.702,728.157 59.598,724.574 78.846,724.562 78.846,733.307 87.646,733.307 87.646,714.681 "/> <polygon clip-path="url(#bg-SVGID_2_)" fill="#808080" points="78.679,7.307 78.679,16.437 59.431,16.425 58.542,12.501 58.542,0 33.271,0 33.271,12.426 33.206,12.426 32.347,16.805 32.304,16.795 32.304,16.84 13.057,16.852 13.057,7.305 3.713,7.305 3.713,25.932 32.113,25.934 34.723,12.637 57.012,12.637 59.622,25.934 87.635,25.932 87.635,7.307 "/> </g> <polygon fill="#E9EAE8" points="57.953,94.701 70.242,94.701 70.242,96.429 87.861,96.429 87.861,54.5 57.953,54.5 "/> <polygon fill="none" stroke="#B2B4B7" stroke-width="0.5" stroke-miterlimit="10" points="57.953,94.701 70.242,94.701 70.242,96.429 87.861,96.429 87.861,54.5 57.953,54.5 "/> <polygon fill="#E9EAE8" points="33.628,645.018 21.339,645.018 21.339,643.677 3.749,643.677 3.749,685.567 33.628,685.567 "/> <polygon fill="none" stroke="#B2B4B7" stroke-width="0.5" stroke-miterlimit="10" points="33.628,645.018 21.339,645.018 21.339,643.677 3.749,643.677 3.749,685.567 33.628,685.567 "/> <polygon fill="#E9EAE8" points="87.874,643.852 70.475,643.852 70.475,645.196 57.722,645.196 57.722,685.796 87.874,685.796 "/> <polygon fill="none" stroke="#B2B4B7" stroke-width="0.5" stroke-miterlimit="10" points="87.874,643.852 70.475,643.852 70.475,645.196 57.722,645.196 57.722,685.796 87.874,685.796 "/> <rect x="57.722" y="656.337" fill="#D0E4EF" width="19.694" height="29.459"/> <rect x="57.722" y="656.337" fill="none" stroke="#B2B4B7" stroke-width="0.5" stroke-miterlimit="10" width="19.694" height="29.459"/> <rect x="71.448" y="685.236" fill="#808080" width="20.192" height="0.804"/> <polygon fill="#E9EAE8" points="3.785,96.43 21.107,96.43 21.107,94.661 33.86,94.661 33.86,54.539 3.785,54.539 "/> <polygon fill="none" stroke="#B2B4B7" stroke-width="0.5" stroke-miterlimit="10" points="3.785,96.43 21.107,96.43 21.107,94.661 33.86,94.661 33.86,54.539 3.785,54.539 "/> <rect x="14.167" y="54.66" fill="#D0E4EF" width="19.694" height="29.338"/> <rect x="14.167" y="54.66" fill="none" stroke="#B2B4B7" stroke-width="0.5" stroke-miterlimit="10" width="19.694" height="29.338"/> <rect y="54.292" fill="#808080" width="20.152" height="0.806"/> <rect x="59.187" y="96.43" fill="#E9EAE8" width="28.675" height="26.029"/> <rect x="59.187" y="96.43" fill="none" stroke="#B2B4B7" stroke-width="0.5" stroke-miterlimit="10" width="28.675" height="26.029"/> <rect x="3.749" y="617.646" fill="#E9EAE8" width="28.598" height="26.03"/> <rect x="3.749" y="617.646" fill="none" stroke="#B2B4B7" stroke-width="0.5" stroke-miterlimit="10" width="28.598" height="26.03"/> <polyline fill="#808080" points="2.835,442.767 2.835,429.439 33.424,429.439 33.424,442.767 "/> <rect x="61.824" y="408.232" fill="#E9EAE8" width="26.064" height="9.436"/> <rect x="61.824" y="408.232" fill="none" stroke="#B2B4B7" stroke-width="0.5" stroke-miterlimit="10" width="26.064" height="9.436"/> <rect x="3.711" y="419.764" fill="#E9EAE8" width="26.065" height="9.436"/> <rect x="3.711" y="419.764" fill="none" stroke="#B2B4B7" stroke-width="0.5" stroke-miterlimit="10" width="26.065" height="9.436"/> <rect x="2.011" y="384.835" fill="#808080" width="35.563" height="1.049"/> <rect x="53.619" y="384.829" fill="#808080" width="36.025" height="1.048"/> <g> <defs> <rect id="bg-SVGID_3_" x="-354.282" y="-42.072" width="1190.55" height="841.89"/> </defs> <clipPath id="bg-SVGID_4_"> <use xlink:href="#bg-SVGID_3_" overflow="visible"/> </clipPath> <path clip-path="url(#bg-SVGID_4_)" fill="#E9EAE8" d="M71.861,442.716v-1.566c0-0.314-0.254-0.568-0.566-0.568h-7.172 c-0.313,0-0.567,0.254-0.567,0.568v1.566"/> <path clip-path="url(#bg-SVGID_4_)" fill="none" stroke="#B2B4B7" stroke-width="0.5" stroke-miterlimit="10" d="M71.861,442.716 v-1.566c0-0.314-0.254-0.568-0.566-0.568h-7.172c-0.313,0-0.567,0.254-0.567,0.568v1.566"/> <path clip-path="url(#bg-SVGID_4_)" fill="#E9EAE8" d="M80.771,442.716v-1.534c0-0.313-0.254-0.567-0.566-0.567h-7.172 c-0.313,0-0.567,0.254-0.567,0.567v1.534"/> <path clip-path="url(#bg-SVGID_4_)" fill="none" stroke="#B2B4B7" stroke-width="0.5" stroke-miterlimit="10" d="M80.771,442.716 v-1.534c0-0.313-0.254-0.567-0.566-0.567h-7.172c-0.313,0-0.567,0.254-0.567,0.567v1.534"/> <path clip-path="url(#bg-SVGID_4_)" fill="#E9EAE8" d="M36.053,132.381c0.783,0,1.417,0.635,1.417,1.417v5.67 c0,0.782-0.634,1.417-1.417,1.417H9.123c-0.782,0-1.417-0.635-1.417-1.417v-5.67c0-0.782,0.635-1.417,1.417-1.417H36.053z"/> <path clip-path="url(#bg-SVGID_4_)" fill="none" stroke="#B2B4B7" stroke-width="0.5" stroke-miterlimit="10" d="M36.053,132.381 c0.783,0,1.417,0.635,1.417,1.417v5.67c0,0.782-0.634,1.417-1.417,1.417H9.123c-0.782,0-1.417-0.635-1.417-1.417v-5.67 c0-0.782,0.635-1.417,1.417-1.417H36.053z"/> <path clip-path="url(#bg-SVGID_4_)" fill="#E9EAE8" d="M82.837,347.191c0.783,0,1.417,0.635,1.417,1.417v5.67 c0,0.782-0.634,1.417-1.417,1.417h-26.93c-0.782,0-1.417-0.635-1.417-1.417v-5.67c0-0.782,0.635-1.417,1.417-1.417H82.837z"/> <path clip-path="url(#bg-SVGID_4_)" fill="none" stroke="#B2B4B7" stroke-width="0.5" stroke-miterlimit="10" d="M82.837,347.191 c0.783,0,1.417,0.635,1.417,1.417v5.67c0,0.782-0.634,1.417-1.417,1.417h-26.93c-0.782,0-1.417-0.635-1.417-1.417v-5.67 c0-0.782,0.635-1.417,1.417-1.417H82.837z"/> <path clip-path="url(#bg-SVGID_4_)" fill="#E9EAE8" d="M36.127,570.955c0.783,0,1.416,0.635,1.416,1.417v5.67 c0,0.781-0.633,1.417-1.416,1.417H9.197c-0.782,0-1.417-0.636-1.417-1.417v-5.67c0-0.782,0.635-1.417,1.417-1.417H36.127z"/> <path clip-path="url(#bg-SVGID_4_)" fill="none" stroke="#B2B4B7" stroke-width="0.5" stroke-miterlimit="10" d="M36.127,570.955 c0.783,0,1.416,0.635,1.416,1.417v5.67c0,0.781-0.633,1.417-1.416,1.417H9.197c-0.782,0-1.417-0.636-1.417-1.417v-5.67 c0-0.782,0.635-1.417,1.417-1.417H36.127z"/> <path clip-path="url(#bg-SVGID_4_)" fill="#E9EAE8" d="M82.691,498.657c0.783,0,1.417,0.635,1.417,1.417v5.67 c0,0.782-0.634,1.417-1.417,1.417h-26.93c-0.782,0-1.417-0.635-1.417-1.417v-5.67c0-0.782,0.635-1.417,1.417-1.417H82.691z"/> <path clip-path="url(#bg-SVGID_4_)" fill="none" stroke="#B2B4B7" stroke-width="0.5" stroke-miterlimit="10" d="M82.691,498.657 c0.783,0,1.417,0.635,1.417,1.417v5.67c0,0.782-0.634,1.417-1.417,1.417h-26.93c-0.782,0-1.417-0.635-1.417-1.417v-5.67 c0-0.782,0.635-1.417,1.417-1.417H82.691z"/> <path clip-path="url(#bg-SVGID_4_)" fill="#E9EAE8" d="M35.848,534.767c0.783,0,1.417,0.635,1.417,1.418v3.969 c0,0.781-0.634,1.416-1.417,1.416H8.917c-0.782,0-1.417-0.635-1.417-1.416v-3.969c0-0.783,0.635-1.418,1.417-1.418H35.848z"/> <path clip-path="url(#bg-SVGID_4_)" fill="none" stroke="#B2B4B7" stroke-width="0.5" stroke-miterlimit="10" d="M35.848,534.767 c0.783,0,1.417,0.635,1.417,1.418v3.969c0,0.781-0.634,1.416-1.417,1.416H8.917c-0.782,0-1.417-0.635-1.417-1.416v-3.969 c0-0.783,0.635-1.418,1.417-1.418H35.848z"/> <path clip-path="url(#bg-SVGID_4_)" fill="#E9EAE8" d="M82.422,313.344c0.782,0,1.417,0.635,1.417,1.418v3.969 c0,0.781-0.635,1.416-1.417,1.416H55.493c-0.783,0-1.418-0.635-1.418-1.416v-3.969c0-0.783,0.635-1.418,1.418-1.418H82.422z"/> <path clip-path="url(#bg-SVGID_4_)" fill="none" stroke="#B2B4B7" stroke-width="0.5" stroke-miterlimit="10" d="M82.422,313.344 c0.782,0,1.417,0.635,1.417,1.418v3.969c0,0.781-0.635,1.416-1.417,1.416H55.493c-0.783,0-1.418-0.635-1.418-1.416v-3.969 c0-0.783,0.635-1.418,1.418-1.418H82.422z"/> <path clip-path="url(#bg-SVGID_4_)" fill="#E9EAE8" d="M35.813,499.35c0.783,0,1.417,0.635,1.417,1.418v3.969 c0,0.781-0.634,1.416-1.417,1.416H8.883c-0.782,0-1.417-0.635-1.417-1.416v-3.969c0-0.783,0.635-1.418,1.417-1.418H35.813z"/> <path clip-path="url(#bg-SVGID_4_)" fill="none" stroke="#B2B4B7" stroke-width="0.5" stroke-miterlimit="10" d="M35.813,499.35 c0.783,0,1.417,0.635,1.417,1.418v3.969c0,0.781-0.634,1.416-1.417,1.416H8.883c-0.782,0-1.417-0.635-1.417-1.416v-3.969 c0-0.783,0.635-1.418,1.417-1.418H35.813z"/> <path clip-path="url(#bg-SVGID_4_)" fill="#E9EAE8" d="M82.626,615.902c0.783,0,1.417-0.636,1.417-1.418v-3.97 c0-0.78-0.634-1.416-1.417-1.416h-26.93c-0.782,0-1.417,0.636-1.417,1.416v3.97c0,0.782,0.635,1.418,1.417,1.418H82.626z"/> <path clip-path="url(#bg-SVGID_4_)" fill="none" stroke="#B2B4B7" stroke-width="0.5" stroke-miterlimit="10" d="M82.626,615.902 c0.783,0,1.417-0.636,1.417-1.418v-3.97c0-0.78-0.634-1.416-1.417-1.416h-26.93c-0.782,0-1.417,0.636-1.417,1.416v3.97 c0,0.782,0.635,1.418,1.417,1.418H82.626z"/> <path clip-path="url(#bg-SVGID_4_)" fill="#E9EAE8" d="M82.438,578.652c0.783,0,1.417-0.636,1.417-1.418v-3.97 c0-0.78-0.634-1.416-1.417-1.416h-26.93c-0.782,0-1.417,0.636-1.417,1.416v3.97c0,0.782,0.635,1.418,1.417,1.418H82.438z"/> <path clip-path="url(#bg-SVGID_4_)" fill="none" stroke="#B2B4B7" stroke-width="0.5" stroke-miterlimit="10" d="M82.438,578.652 c0.783,0,1.417-0.636,1.417-1.418v-3.97c0-0.78-0.634-1.416-1.417-1.416h-26.93c-0.782,0-1.417,0.636-1.417,1.416v3.97 c0,0.782,0.635,1.418,1.417,1.418H82.438z"/> <path clip-path="url(#bg-SVGID_4_)" fill="#E9EAE8" d="M82.501,542.965c0.783,0,1.417-0.636,1.417-1.418v-3.97 c0-0.78-0.634-1.416-1.417-1.416h-26.93c-0.782,0-1.417,0.636-1.417,1.416v3.97c0,0.782,0.635,1.418,1.417,1.418H82.501z"/> <path clip-path="url(#bg-SVGID_4_)" fill="none" stroke="#B2B4B7" stroke-width="0.5" stroke-miterlimit="10" d="M82.501,542.965 c0.783,0,1.417-0.636,1.417-1.418v-3.97c0-0.78-0.634-1.416-1.417-1.416h-26.93c-0.782,0-1.417,0.636-1.417,1.416v3.97 c0,0.782,0.635,1.418,1.417,1.418H82.501z"/> <path clip-path="url(#bg-SVGID_4_)" fill="#E9EAE8" d="M35.772,356.152c0.783,0,1.416-0.635,1.416-1.418v-3.969 c0-0.781-0.633-1.416-1.416-1.416H8.842c-0.782,0-1.417,0.635-1.417,1.416v3.969c0,0.783,0.635,1.418,1.417,1.418H35.772z"/> <path clip-path="url(#bg-SVGID_4_)" fill="none" stroke="#B2B4B7" stroke-width="0.5" stroke-miterlimit="10" d="M35.772,356.152 c0.783,0,1.416-0.635,1.416-1.418v-3.969c0-0.781-0.633-1.416-1.416-1.416H8.842c-0.782,0-1.417,0.635-1.417,1.416v3.969 c0,0.783,0.635,1.418,1.417,1.418H35.772z"/> <path clip-path="url(#bg-SVGID_4_)" fill="#E9EAE8" d="M35.772,319.486c0.783,0,1.416-0.635,1.416-1.418V314.1 c0-0.781-0.633-1.416-1.416-1.416H8.842c-0.782,0-1.417,0.635-1.417,1.416v3.969c0,0.783,0.635,1.418,1.417,1.418H35.772z"/> <path clip-path="url(#bg-SVGID_4_)" fill="none" stroke="#B2B4B7" stroke-width="0.5" stroke-miterlimit="10" d="M35.772,319.486 c0.783,0,1.416-0.635,1.416-1.418V314.1c0-0.781-0.633-1.416-1.416-1.416H8.842c-0.782,0-1.417,0.635-1.417,1.416v3.969 c0,0.783,0.635,1.418,1.417,1.418H35.772z"/> <path clip-path="url(#bg-SVGID_4_)" fill="#E9EAE8" d="M35.772,283.152c0.783,0,1.416-0.635,1.416-1.418v-3.969 c0-0.781-0.633-1.416-1.416-1.416H8.842c-0.782,0-1.417,0.635-1.417,1.416v3.969c0,0.783,0.635,1.418,1.417,1.418H35.772z"/> <path clip-path="url(#bg-SVGID_4_)" fill="none" stroke="#B2B4B7" stroke-width="0.5" stroke-miterlimit="10" d="M35.772,283.152 c0.783,0,1.416-0.635,1.416-1.418v-3.969c0-0.781-0.633-1.416-1.416-1.416H8.842c-0.782,0-1.417,0.635-1.417,1.416v3.969 c0,0.783,0.635,1.418,1.417,1.418H35.772z"/> <path clip-path="url(#bg-SVGID_4_)" fill="#E9EAE8" d="M35.938,246.986c0.783,0,1.416-0.635,1.416-1.418V241.6 c0-0.781-0.633-1.416-1.416-1.416H9.008c-0.782,0-1.417,0.635-1.417,1.416v3.969c0,0.783,0.635,1.418,1.417,1.418H35.938z"/> <path clip-path="url(#bg-SVGID_4_)" fill="none" stroke="#B2B4B7" stroke-width="0.5" stroke-miterlimit="10" d="M35.938,246.986 c0.783,0,1.416-0.635,1.416-1.418V241.6c0-0.781-0.633-1.416-1.416-1.416H9.008c-0.782,0-1.417,0.635-1.417,1.416v3.969 c0,0.783,0.635,1.418,1.417,1.418H35.938z"/> <path clip-path="url(#bg-SVGID_4_)" fill="#E9EAE8" d="M35.938,210.152c0.783,0,1.416-0.635,1.416-1.418v-3.969 c0-0.781-0.633-1.416-1.416-1.416H9.008c-0.782,0-1.417,0.635-1.417,1.416v3.969c0,0.783,0.635,1.418,1.417,1.418H35.938z"/> <path clip-path="url(#bg-SVGID_4_)" fill="none" stroke="#B2B4B7" stroke-width="0.5" stroke-miterlimit="10" d="M35.938,210.152 c0.783,0,1.416-0.635,1.416-1.418v-3.969c0-0.781-0.633-1.416-1.416-1.416H9.008c-0.782,0-1.417,0.635-1.417,1.416v3.969 c0,0.783,0.635,1.418,1.417,1.418H35.938z"/> <path clip-path="url(#bg-SVGID_4_)" fill="#E9EAE8" d="M35.939,174.652c0.783,0,1.416-0.635,1.416-1.418v-3.969 c0-0.781-0.633-1.416-1.416-1.416H9.009c-0.782,0-1.417,0.635-1.417,1.416v3.969c0,0.783,0.635,1.418,1.417,1.418H35.939z"/> <path clip-path="url(#bg-SVGID_4_)" fill="none" stroke="#B2B4B7" stroke-width="0.5" stroke-miterlimit="10" d="M35.939,174.652 c0.783,0,1.416-0.635,1.416-1.418v-3.969c0-0.781-0.633-1.416-1.416-1.416H9.009c-0.782,0-1.417,0.635-1.417,1.416v3.969 c0,0.783,0.635,1.418,1.417,1.418H35.939z"/> <path clip-path="url(#bg-SVGID_4_)" fill="#E9EAE8" d="M82.422,277.844c0.782,0,1.417,0.635,1.417,1.418v3.969 c0,0.781-0.635,1.416-1.417,1.416H55.493c-0.783,0-1.418-0.635-1.418-1.416v-3.969c0-0.783,0.635-1.418,1.418-1.418H82.422z"/> <path clip-path="url(#bg-SVGID_4_)" fill="none" stroke="#B2B4B7" stroke-width="0.5" stroke-miterlimit="10" d="M82.422,277.844 c0.782,0,1.417,0.635,1.417,1.418v3.969c0,0.781-0.635,1.416-1.417,1.416H55.493c-0.783,0-1.418-0.635-1.418-1.416v-3.969 c0-0.783,0.635-1.418,1.418-1.418H82.422z"/> <path clip-path="url(#bg-SVGID_4_)" fill="#E9EAE8" d="M82.589,240.678c0.782,0,1.417,0.635,1.417,1.418v3.969 c0,0.781-0.635,1.416-1.417,1.416H55.66c-0.783,0-1.418-0.635-1.418-1.416v-3.969c0-0.783,0.635-1.418,1.418-1.418H82.589z"/> <path clip-path="url(#bg-SVGID_4_)" fill="none" stroke="#B2B4B7" stroke-width="0.5" stroke-miterlimit="10" d="M82.589,240.678 c0.782,0,1.417,0.635,1.417,1.418v3.969c0,0.781-0.635,1.416-1.417,1.416H55.66c-0.783,0-1.418-0.635-1.418-1.416v-3.969 c0-0.783,0.635-1.418,1.418-1.418H82.589z"/> <path clip-path="url(#bg-SVGID_4_)" fill="#E9EAE8" d="M82.589,204.678c0.782,0,1.417,0.635,1.417,1.418v3.969 c0,0.781-0.635,1.416-1.417,1.416H55.66c-0.783,0-1.418-0.635-1.418-1.416v-3.969c0-0.783,0.635-1.418,1.418-1.418H82.589z"/> <path clip-path="url(#bg-SVGID_4_)" fill="none" stroke="#B2B4B7" stroke-width="0.5" stroke-miterlimit="10" d="M82.589,204.678 c0.782,0,1.417,0.635,1.417,1.418v3.969c0,0.781-0.635,1.416-1.417,1.416H55.66c-0.783,0-1.418-0.635-1.418-1.416v-3.969 c0-0.783,0.635-1.418,1.418-1.418H82.589z"/> <path clip-path="url(#bg-SVGID_4_)" fill="#E9EAE8" d="M82.422,168.178c0.782,0,1.417,0.635,1.417,1.418v3.969 c0,0.781-0.635,1.416-1.417,1.416H55.493c-0.783,0-1.418-0.635-1.418-1.416v-3.969c0-0.783,0.635-1.418,1.418-1.418H82.422z"/> <path clip-path="url(#bg-SVGID_4_)" fill="none" stroke="#B2B4B7" stroke-width="0.5" stroke-miterlimit="10" d="M82.422,168.178 c0.782,0,1.417,0.635,1.417,1.418v3.969c0,0.781-0.635,1.416-1.417,1.416H55.493c-0.783,0-1.418-0.635-1.418-1.416v-3.969 c0-0.783,0.635-1.418,1.418-1.418H82.422z"/> <rect x="46.044" y="95.045" clip-path="url(#bg-SVGID_4_)" fill="#808080" width="9.579" height="1.004"/> <rect x="36.032" y="95.045" clip-path="url(#bg-SVGID_4_)" fill="#808080" width="9.579" height="1.004"/> </g> </svg>
<g transform="translate(54, 620)"><svg xmlns="http://www.w3.org/2000/svg" viewBox="0 0 16.03 18.59" x="0px" y="0px" width="16.03px" height="18.59px">
    <defs>
        <style>.cls-1{fill:#dadde0;stroke:#404548;stroke-linecap:round;stroke-linejoin:round;stroke-width:0.5px;}</style>
    </defs>
    <g id="Layer_2">
    <g transform="matrix(1,0,0,-1,0,18.559809)">
      <path
         id="path14"
         transform="rotate(-90,8.015,9.295)"
         d="m -0.28,2.07 h 14.9 a 2.43,2.43 0 0 1 2.43,2.43 v 9.58 a 2.43,2.43 0 0 1 -2.43,2.43 H -0.28 A 0.76,0.76 0 0 1 -1,15.76 V 2.83 a 0.76,0.76 0 0 1 0.76,-0.76 z"
         class="cls-1" />
      <path
         id="path16"
         d="M 1.84,2.68 V 13.39 A 0.76,0.76 0 0 1 1.09,14.14 H 1 A 0.76,0.76 0 0 1 0.24,13.39 V 2.68 A 2.43,2.43 0 0 1 2.68,0.25 4.45,4.45 0 0 0 1.84,2.68 Z"
         class="cls-1" />
      <path
         id="path18"
         d="m 14.18,2.68 v 10.71 a 0.76,0.76 0 0 0 0.76,0.75 H 15 a 0.76,0.76 0 0 0 0.76,-0.75 V 2.68 a 2.44,2.44 0 0 0 -2.42,-2.43 4.45,4.45 0 0 1 0.84,2.43 z"
         class="cls-1" />
      <path
         id="path20"
         d="M 15.78,2.64 V 2.59 A 2.4,2.4 0 0 1 13.34,5 H 2.68 A 2.39,2.39 0 0 1 0.25,2.59 V 2.64 A 2.4,2.4 0 0 1 2.68,0.25 h 10.66 a 2.41,2.41 0 0 1 2.44,2.39 z"
         class="cls-1" />
    </g>
    </g>
</svg></g>
<g transform="translate(70, 620)"><svg xmlns="http://www.w3.org/2000/svg" viewBox="0 0 16.03 18.59" x="0px" y="0px" width="16.03px" height="18.59px">
    <defs>
        <style>.cls-1{fill:#dadde0;stroke:#404548;stroke-linecap:round;stroke-linejoin:round;stroke-width:0.5px;}</style>
    </defs>
    <g id="Layer_2">
    <g transform="matrix(1,0,0,-1,0,18.559809)">
      <path
         id="path14"
         transform="rotate(-90,8.015,9.295)"
         d="m -0.28,2.07 h 14.9 a 2.43,2.43 0 0 1 2.43,2.43 v 9.58 a 2.43,2.43 0 0 1 -2.43,2.43 H -0.28 A 0.76,0.76 0 0 1 -1,15.76 V 2.83 a 0.76,0.76 0 0 1 0.76,-0.76 z"
         class="cls-1" />
      <path
         id="path16"
         d="M 1.84,2.68 V 13.39 A 0.76,0.76 0 0 1 1.09,14.14 H 1 A 0.76,0.76 0 0 1 0.24,13.39 V 2.68 A 2.43,2.43 0 0 1 2.68,0.25 4.45,4.45 0 0 0 1.84,2.68 Z"
         class="cls-1" />
      <path
         id="path18"
         d="m 14.18,2.68 v 10.71 a 0.76,0.76 0 0 0 0.76,0.75 H 15 a 0.76,0.76 0 0 0 0.76,-0.75 V 2.68 a 2.44,2.44 0 0 0 -2.42,-2.43 4.45,4.45 0 0 1 0.84,2.43 z"
         class="cls-1" />
      <path
         id="path20"
         d="M 15.78,2.64 V 2.59 A 2.4,2.4 0 0 1 13.34,5 H 2.68 A 2.39,2.39 0 0 1 0.25,2.59 V 2.64 A 2.4,2.4 0 0 1 2.68,0.25 h 10.66 a 2.41,2.41 0 0 1 2.44,2.39 z"
         class="cls-1" />
    </g>
    </g>
</svg></g>
<g transform="translate(6, 584)"><svg xmlns="http://www.w3.org/2000/svg" viewBox="0 0 16.03 18.59" x="0px" y="0px" width="16.03px" height="18.59px">
    <defs>
        <style>.cls-1{fill:#dadde0;stroke:#404548;stroke-linecap:round;stroke-linejoin:round;stroke-width:0.5px;}</style>
    </defs>
    <g id="Layer_2">
    <g transform="matrix(1,0,0,-1,0,18.559809)">
      <path
         id="path14"
         transform="rotate(-90,8.015,9.295)"
         d="m -0.28,2.07 h 14.9 a 2.43,2.43 0 0 1 2.43,2.43 v 9.58 a 2.43,2.43 0 0 1 -2.43,2.43 H -0.28 A 0.76,0.76 0 0 1 -1,15.76 V 2.83 a 0.76,0.76 0 0 1 0.76,-0.76 z"
         class="cls-1" />
      <path
         id="path16"
         d="M 1.84,2.68 V 13.39 A 0.76,0.76 0 0 1 1.09,14.14 H 1 A 0.76,0.76 0 0 1 0.24,13.39 V 2.68 A 2.43,2.43 0 0 1 2.68,0.25 4.45,4.45 0 0 0 1.84,2.68 Z"
         class="cls-1" />
      <path
         id="path18"
         d="m 14.18,2.68 v 10.71 a 0.76,0.76 0 0 0 0.76,0.75 H 15 a 0.76,0.76 0 0 0 0.76,-0.75 V 2.68 a 2.44,2.44 0 0 0 -2.42,-2.43 4.45,4.45 0 0 1 0.84,2.43 z"
         class="cls-1" />
      <path
         id="path20"
         d="M 15.78,2.64 V 2.59 A 2.4,2.4 0 0 1 13.34,5 H 2.68 A 2.39,2.39 0 0 1 0.25,2.59 V 2.64 A 2.4,2.4 0 0 1 2.68,0.25 h 10.66 a 2.41,2.41 0 0 1 2.44,2.39 z"
         class="cls-1" />
    </g>
    </g>
</svg></g>
<g transform="translate(22, 584)"><svg xmlns="http://www.w3.org/2000/svg" viewBox="0 0 16.03 18.59" x="0px" y="0px" width="16.03px" height="18.59px">
    <defs>
        <style>.cls-1{fill:#dadde0;stroke:#404548;stroke-linecap:round;stroke-linejoin:round;stroke-width:0.5px;}</style>
    </defs>
    <g id="Layer_2">
    <g transform="matrix(1,0,0,-1,0,18.559809)">
      <path
         id="path14"
         transform="rotate(-90,8.015,9.295)"
         d="m -0.28,2.07 h 14.9 a 2.43,2.43 0 0 1 2.43,2.43 v 9.58 a 2.43,2.43 0 0 1 -2.43,2.43 H -0.28 A 0.76,0.76 0 0 1 -1,15.76 V 2.83 a 0.76,0.76 0 0 1 0.76,-0.76 z"
         class="cls-1" />
      <path
         id="path16"
         d="M 1.84,2.68 V 13.39 A 0.76,0.76 0 0 1 1.09,14.14 H 1 A 0.76,0.76 0 0 1 0.24,13.39 V 2.68 A 2.43,2.43 0 0 1 2.68,0.25 4.45,4.45 0 0 0 1.84,2.68 Z"
         class="cls-1" />
      <path
         id="path18"
         d="m 14.18,2.68 v 10.71 a 0.76,0.76 0 0 0 0.76,0.75 H 15 a 0.76,0.76 0 0 0 0.76,-0.75 V 2.68 a 2.44,2.44 0 0 0 -2.42,-2.43 4.45,4.45 0 0 1 0.84,2.43 z"
         class="cls-1" />
      <path
         id="path20"
         d="M 15.78,2.64 V 2.59 A 2.4,2.4 0 0 1 13.34,5 H 2.68 A 2.39,2.39 0 0 1 0.25,2.59 V 2.64 A 2.4,2.4 0 0 1 2.68,0.25 h 10.66 a 2.41,2.41 0 0 1 2.44,2.39 z"
         class="cls-1" />
    </g>
    </g>
</svg></g>
<g transform="translate(54, 584)"><svg xmlns="http://www.w3.org/2000/svg" viewBox="0 0 16.03 18.59" x="0px" y="0px" width="16.03px" height="18.59px">
    <defs>
        <style>.cls-1{fill:#dadde0;stroke:#404548;stroke-linecap:round;stroke-linejoin:round;stroke-width:0.5px;}</style>
    </defs>
    <g id="Layer_2">
    <g transform="matrix(1,0,0,-1,0,18.559809)">
      <path
         id="path14"
         transform="rotate(-90,8.015,9.295)"
         d="m -0.28,2.07 h 14.9 a 2.43,2.43 0 0 1 2.43,2.43 v 9.58 a 2.43,2.43 0 0 1 -2.43,2.43 H -0.28 A 0.76,0.76 0 0 1 -1,15.76 V 2.83 a 0.76,0.76 0 0 1 0.76,-0.76 z"
         class="cls-1" />
      <path
         id="path16"
         d="M 1.84,2.68 V 13.39 A 0.76,0.76 0 0 1 1.09,14.14 H 1 A 0.76,0.76 0 0 1 0.24,13.39 V 2.68 A 2.43,2.43 0 0 1 2.68,0.25 4.45,4.45 0 0 0 1.84,2.68 Z"
         class="cls-1" />
      <path
         id="path18"
         d="m 14.18,2.68 v 10.71 a 0.76,0.76 0 0 0 0.76,0.75 H 15 a 0.76,0.76 0 0 0 0.76,-0.75 V 2.68 a 2.44,2.44 0 0 0 -2.42,-2.43 4.45,4.45 0 0 1 0.84,2.43 z"
         class="cls-1" />
      <path
         id="path20"
         d="M 15.78,2.64 V 2.59 A 2.4,2.4 0 0 1 13.34,5 H 2.68 A 2.39,2.39 0 0 1 0.25,2.59 V 2.64 A 2.4,2.4 0 0 1 2.68,0.25 h 10.66 a 2.41,2.41 0 0 1 2.44,2.39 z"
         class="cls-1" />
    </g>
    </g>
</svg></g>
<g transform="translate(70, 584)"><svg xmlns="http://www.w3.org/2000/svg" viewBox="0 0 16.03 18.59" x="0px" y="0px" width="16.03px" height="18.59px">
    <defs>
        <style>.cls-1{fill:#dadde0;stroke:#404548;stroke-linecap:round;stroke-linejoin:round;stroke-width:0.5px;}</style>
    </defs>
    <g id="Layer_2">
    <g transform="matrix(1,0,0,-1,0,18.559809)">
      <path
         id="path14"
         transform="rotate(-90,8.015,9.295)"
         d="m -0.28,2.07 h 14.9 a 2.43,2.43 0 0 1 2.43,2.43 v 9.58 a 2.43,2.43 0 0 1 -2.43,2.43 H -0.28 A 0.76,0.76 0 0 1 -1,15.76 V 2.83 a 0.76,0.76 0 0 1 0.76,-0.76 z"
         class="cls-1" />
      <path
         id="path16"
         d="M 1.84,2.68 V 13.39 A 0.76,0.76 0 0 1 1.09,14.14 H 1 A 0.76,0.76 0 0 1 0.24,13.39 V 2.68 A 2.43,2.43 0 0 1 2.68,0.25 4.45,4.45 0 0 0 1.84,2.68 Z"
         class="cls-1" />
      <path
         id="path18"
         d="m 14.18,2.68 v 10.71 a 0.76,0.76 0 0 0 0.76,0.75 H 15 a 0.76,0.76 0 0 0 0.76,-0.75 V 2.68 a 2.44,2.44 0 0 0 -2.42,-2.43 4.45,4.45 0 0 1 0.84,2.43 z"
         class="cls-1" />
      <path
         id="path20"
         d="M 15.78,2.64 V 2.59 A 2.4,2.4 0 0 1 13.34,5 H 2.68 A 2.39,2.39 0 0 1 0.25,2.59 V 2.64 A 2.4,2.4 0 0 1 2.68,0.25 h 10.66 a 2.41,2.41 0 0 1 2.44,2.39 z"
         class="cls-1" />
    </g>
    </g>
</svg></g>
<g transform="translate(6, 546)"><svg xmlns="http://www.w3.org/2000/svg" viewBox="0 0 16.03 18.59" x="0px" y="0px" width="16.03px" height="18.59px">
    <defs>
        <style>.cls-1{fill:#dadde0;stroke:#404548;stroke-linecap:round;stroke-linejoin:round;stroke-width:0.5px;}</style>
    </defs>
    <g id="Layer_2">
        <g>
            <path class="cls-1" d="M-.28,2.07h14.9a2.43,2.43,0,0,1,2.43,2.43v9.58a2.43,2.43,0,0,1-2.43,2.43H-.28A.76.76,0,0,1-1,15.76V2.83a.76.76,0,0,1,.76-.76Z" transform="translate(-1.28 17.31) rotate(-90)"/>
            <path class="cls-1" d="M1.84,2.68V13.39a.76.76,0,0,1-.75.75H1a.76.76,0,0,1-.76-.75V2.68A2.43,2.43,0,0,1,2.68.25,4.45,4.45,0,0,0,1.84,2.68Z"/>
            <path class="cls-1" d="M14.18,2.68V13.39a.76.76,0,0,0,.76.75H15a.76.76,0,0,0,.76-.75V2.68A2.44,2.44,0,0,0,13.34.25,4.45,4.45,0,0,1,14.18,2.68Z"/>
            <path class="cls-1" d="M15.78,2.64V2.59A2.4,2.4,0,0,1,13.34,5H2.68A2.39,2.39,0,0,1,.25,2.59v.05A2.4,2.4,0,0,1,2.68.25H13.34A2.41,2.41,0,0,1,15.78,2.64Z"/>
        </g>
    </g>
</svg></g>
<g transform="translate(22, 546)"><svg xmlns="http://www.w3.org/2000/svg" viewBox="0 0 16.03 18.59" x="0px" y="0px" width="16.03px" height="18.59px">
    <defs>
        <style>.cls-1{fill:#dadde0;stroke:#404548;stroke-linecap:round;stroke-linejoin:round;stroke-width:0.5px;}</style>
    </defs>
    <g id="Layer_2">
        <g>
            <path class="cls-1" d="M-.28,2.07h14.9a2.43,2.43,0,0,1,2.43,2.43v9.58a2.43,2.43,0,0,1-2.43,2.43H-.28A.76.76,0,0,1-1,15.76V2.83a.76.76,0,0,1,.76-.76Z" transform="translate(-1.28 17.31) rotate(-90)"/>
            <path class="cls-1" d="M1.84,2.68V13.39a.76.76,0,0,1-.75.75H1a.76.76,0,0,1-.76-.75V2.68A2.43,2.43,0,0,1,2.68.25,4.45,4.45,0,0,0,1.84,2.68Z"/>
            <path class="cls-1" d="M14.18,2.68V13.39a.76.76,0,0,0,.76.75H15a.76.76,0,0,0,.76-.75V2.68A2.44,2.44,0,0,0,13.34.25,4.45,4.45,0,0,1,14.18,2.68Z"/>
            <path class="cls-1" d="M15.78,2.64V2.59A2.4,2.4,0,0,1,13.34,5H2.68A2.39,2.39,0,0,1,.25,2.59v.05A2.4,2.4,0,0,1,2.68.25H13.34A2.41,2.41,0,0,1,15.78,2.64Z"/>
        </g>
    </g>
</svg></g>
<g transform="translate(54, 546)"><svg xmlns="http://www.w3.org/2000/svg" viewBox="0 0 16.03 18.59" x="0px" y="0px" width="16.03px" height="18.59px">
    <defs>
        <style>.cls-1{fill:#dadde0;stroke:#404548;stroke-linecap:round;stroke-linejoin:round;stroke-width:0.5px;}</style>
    </defs>
    <g id="Layer_2">
    <g transform="matrix(1,0,0,-1,0,18.559809)">
      <path
         id="path14"
         transform="rotate(-90,8.015,9.295)"
         d="m -0.28,2.07 h 14.9 a 2.43,2.43 0 0 1 2.43,2.43 v 9.58 a 2.43,2.43 0 0 1 -2.43,2.43 H -0.28 A 0.76,0.76 0 0 1 -1,15.76 V 2.83 a 0.76,0.76 0 0 1 0.76,-0.76 z"
         class="cls-1" />
      <path
         id="path16"
         d="M 1.84,2.68 V 13.39 A 0.76,0.76 0 0 1 1.09,14.14 H 1 A 0.76,0.76 0 0 1 0.24,13.39 V 2.68 A 2.43,2.43 0 0 1 2.68,0.25 4.45,4.45 0 0 0 1.84,2.68 Z"
         class="cls-1" />
      <path
         id="path18"
         d="m 14.18,2.68 v 10.71 a 0.76,0.76 0 0 0 0.76,0.75 H 15 a 0.76,0.76 0 0 0 0.76,-0.75 V 2.68 a 2.44,2.44 0 0 0 -2.42,-2.43 4.45,4.45 0 0 1 0.84,2.43 z"
         class="cls-1" />
      <path
         id="path20"
         d="M 15.78,2.64 V 2.59 A 2.4,2.4 0 0 1 13.34,5 H 2.68 A 2.39,2.39 0 0 1 0.25,2.59 V 2.64 A 2.4,2.4 0 0 1 2.68,0.25 h 10.66 a 2.41,2.41 0 0 1 2.44,2.39 z"
         class="cls-1" />
    </g>
    </g>
</svg></g>
<g transform="translate(70, 546)"><svg xmlns="http://www.w3.org/2000/svg" viewBox="0 0 16.03 18.59" x="0px" y="0px" width="16.03px" height="18.59px">
    <defs>
        <style>.cls-1{fill:#dadde0;stroke:#404548;stroke-linecap:round;stroke-linejoin:round;stroke-width:0.5px;}</style>
    </defs>
    <g id="Layer_2">
    <g transform="matrix(1,0,0,-1,0,18.559809)">
      <path
         id="path14"
         transform="rotate(-90,8.015,9.295)"
         d="m -0.28,2.07 h 14.9 a 2.43,2.43 0 0 1 2.43,2.43 v 9.58 a 2.43,2.43 0 0 1 -2.43,2.43 H -0.28 A 0.76,0.76 0 0 1 -1,15.76 V 2.83 a 0.76,0.76 0 0 1 0.76,-0.76 z"
         class="cls-1" />
      <path
         id="path16"
         d="M 1.84,2.68 V 13.39 A 0.76,0.76 0 0 1 1.09,14.14 H 1 A 0.76,0.76 0 0 1 0.24,13.39 V 2.68 A 2.43,2.43 0 0 1 2.68,0.25 4.45,4.45 0 0 0 1.84,2.68 Z"
         class="cls-1" />
      <path
         id="path18"
         d="m 14.18,2.68 v 10.71 a 0.76,0.76 0 0 0 0.76,0.75 H 15 a 0.76,0.76 0 0 0 0.76,-0.75 V 2.68 a 2.44,2.44 0 0 0 -2.42,-2.43 4.45,4.45 0 0 1 0.84,2.43 z"
         class="cls-1" />
      <path
         id="path20"
         d="M 15.78,2.64 V 2.59 A 2.4,2.4 0 0 1 13.34,5 H 2.68 A 2.39,2.39 0 0 1 0.25,2.59 V 2.64 A 2.4,2.4 0 0 1 2.68,0.25 h 10.66 a 2.41,2.41 0 0 1 2.44,2.39 z"
         class="cls-1" />
    </g>
    </g>
</svg></g>
<g transform="translate(6, 510)"><svg xmlns="http://www.w3.org/2000/svg" viewBox="0 0 16.03 18.59" x="0px" y="0px" width="16.03px" height="18.59px">
    <defs>
        <style>.cls-1{fill:#dadde0;stroke:#404548;stroke-linecap:round;stroke-linejoin:round;stroke-width:0.5px;}</style>
    </defs>
    <g id="Layer_2">
        <g>
            <path class="cls-1" d="M-.28,2.07h14.9a2.43,2.43,0,0,1,2.43,2.43v9.58a2.43,2.43,0,0,1-2.43,2.43H-.28A.76.76,0,0,1-1,15.76V2.83a.76.76,0,0,1,.76-.76Z" transform="translate(-1.28 17.31) rotate(-90)"/>
            <path class="cls-1" d="M1.84,2.68V13.39a.76.76,0,0,1-.75.75H1a.76.76,0,0,1-.76-.75V2.68A2.43,2.43,0,0,1,2.68.25,4.45,4.45,0,0,0,1.84,2.68Z"/>
            <path class="cls-1" d="M14.18,2.68V13.39a.76.76,0,0,0,.76.75H15a.76.76,0,0,0,.76-.75V2.68A2.44,2.44,0,0,0,13.34.25,4.45,4.45,0,0,1,14.18,2.68Z"/>
            <path class="cls-1" d="M15.78,2.64V2.59A2.4,2.4,0,0,1,13.34,5H2.68A2.39,2.39,0,0,1,.25,2.59v.05A2.4,2.4,0,0,1,2.68.25H13.34A2.41,2.41,0,0,1,15.78,2.64Z"/>
        </g>
    </g>
</svg></g>
<g transform="translate(22, 510)"><svg xmlns="http://www.w3.org/2000/svg" viewBox="0 0 16.03 18.59" x="0px" y="0px" width="16.03px" height="18.59px">
    <defs>
        <style>.cls-1{fill:#dadde0;stroke:#404548;stroke-linecap:round;stroke-linejoin:round;stroke-width:0.5px;}</style>
    </defs>
    <g id="Layer_2">
        <g>
            <path class="cls-1" d="M-.28,2.07h14.9a2.43,2.43,0,0,1,2.43,2.43v9.58a2.43,2.43,0,0,1-2.43,2.43H-.28A.76.76,0,0,1-1,15.76V2.83a.76.76,0,0,1,.76-.76Z" transform="translate(-1.28 17.31) rotate(-90)"/>
            <path class="cls-1" d="M1.84,2.68V13.39a.76.76,0,0,1-.75.75H1a.76.76,0,0,1-.76-.75V2.68A2.43,2.43,0,0,1,2.68.25,4.45,4.45,0,0,0,1.84,2.68Z"/>
            <path class="cls-1" d="M14.18,2.68V13.39a.76.76,0,0,0,.76.75H15a.76.76,0,0,0,.76-.75V2.68A2.44,2.44,0,0,0,13.34.25,4.45,4.45,0,0,1,14.18,2.68Z"/>
            <path class="cls-1" d="M15.78,2.64V2.59A2.4,2.4,0,0,1,13.34,5H2.68A2.39,2.39,0,0,1,.25,2.59v.05A2.4,2.4,0,0,1,2.68.25H13.34A2.41,2.41,0,0,1,15.78,2.64Z"/>
        </g>
    </g>
</svg></g>
<g transform="translate(54, 510)"><svg xmlns="http://www.w3.org/2000/svg" viewBox="0 0 16.03 18.59" x="0px" y="0px" width="16.03px" height="18.59px">
    <defs>
        <style>.cls-1{fill:#dadde0;stroke:#404548;stroke-linecap:round;stroke-linejoin:round;stroke-width:0.5px;}</style>
    </defs>
    <g id="Layer_2">
    <g transform="matrix(1,0,0,-1,0,18.559809)">
      <path
         id="path14"
         transform="rotate(-90,8.015,9.295)"
         d="m -0.28,2.07 h 14.9 a 2.43,2.43 0 0 1 2.43,2.43 v 9.58 a 2.43,2.43 0 0 1 -2.43,2.43 H -0.28 A 0.76,0.76 0 0 1 -1,15.76 V 2.83 a 0.76,0.76 0 0 1 0.76,-0.76 z"
         class="cls-1" />
      <path
         id="path16"
         d="M 1.84,2.68 V 13.39 A 0.76,0.76 0 0 1 1.09,14.14 H 1 A 0.76,0.76 0 0 1 0.24,13.39 V 2.68 A 2.43,2.43 0 0 1 2.68,0.25 4.45,4.45 0 0 0 1.84,2.68 Z"
         class="cls-1" />
      <path
         id="path18"
         d="m 14.18,2.68 v 10.71 a 0.76,0.76 0 0 0 0.76,0.75 H 15 a 0.76,0.76 0 0 0 0.76,-0.75 V 2.68 a 2.44,2.44 0 0 0 -2.42,-2.43 4.45,4.45 0 0 1 0.84,2.43 z"
         class="cls-1" />
      <path
         id="path20"
         d="M 15.78,2.64 V 2.59 A 2.4,2.4 0 0 1 13.34,5 H 2.68 A 2.39,2.39 0 0 1 0.25,2.59 V 2.64 A 2.4,2.4 0 0 1 2.68,0.25 h 10.66 a 2.41,2.41 0 0 1 2.44,2.39 z"
         class="cls-1" />
    </g>
    </g>
</svg></g>
<g transform="translate(70, 510)"><svg xmlns="http://www.w3.org/2000/svg" viewBox="0 0 16.03 18.59" x="0px" y="0px" width="16.03px" height="18.59px">
    <defs>
        <style>.cls-1{fill:#dadde0;stroke:#404548;stroke-linecap:round;stroke-linejoin:round;stroke-width:0.5px;}</style>
    </defs>
    <g id="Layer_2">
    <g transform="matrix(1,0,0,-1,0,18.559809)">
      <path
         id="path14"
         transform="rotate(-90,8.015,9.295)"
         d="m -0.28,2.07 h 14.9 a 2.43,2.43 0 0 1 2.43,2.43 v 9.58 a 2.43,2.43 0 0 1 -2.43,2.43 H -0.28 A 0.76,0.76 0 0 1 -1,15.76 V 2.83 a 0.76,0.76 0 0 1 0.76,-0.76 z"
         class="cls-1" />
      <path
         id="path16"
         d="M 1.84,2.68 V 13.39 A 0.76,0.76 0 0 1 1.09,14.14 H 1 A 0.76,0.76 0 0 1 0.24,13.39 V 2.68 A 2.43,2.43 0 0 1 2.68,0.25 4.45,4.45 0 0 0 1.84,2.68 Z"
         class="cls-1" />
      <path
         id="path18"
         d="m 14.18,2.68 v 10.71 a 0.76,0.76 0 0 0 0.76,0.75 H 15 a 0.76,0.76 0 0 0 0.76,-0.75 V 2.68 a 2.44,2.44 0 0 0 -2.42,-2.43 4.45,4.45 0 0 1 0.84,2.43 z"
         class="cls-1" />
      <path
         id="path20"
         d="M 15.78,2.64 V 2.59 A 2.4,2.4 0 0 1 13.34,5 H 2.68 A 2.39,2.39 0 0 1 0.25,2.59 V 2.64 A 2.4,2.4 0 0 1 2.68,0.25 h 10.66 a 2.41,2.41 0 0 1 2.44,2.39 z"
         class="cls-1" />
    </g>
    </g>
</svg></g>
<g transform="translate(6, 476)"><svg xmlns="http://www.w3.org/2000/svg" viewBox="0 0 16.03 18.59" x="0px" y="0px" width="16.03px" height="18.59px">
    <defs>
        <style>.cls-1{fill:#dadde0;stroke:#404548;stroke-linecap:round;stroke-linejoin:round;stroke-width:0.5px;}</style>
    </defs>
    <g id="Layer_2">
        <g>
            <path class="cls-1" d="M-.28,2.07h14.9a2.43,2.43,0,0,1,2.43,2.43v9.58a2.43,2.43,0,0,1-2.43,2.43H-.28A.76.76,0,0,1-1,15.76V2.83a.76.76,0,0,1,.76-.76Z" transform="translate(-1.28 17.31) rotate(-90)"/>
            <path class="cls-1" d="M1.84,2.68V13.39a.76.76,0,0,1-.75.75H1a.76.76,0,0,1-.76-.75V2.68A2.43,2.43,0,0,1,2.68.25,4.45,4.45,0,0,0,1.84,2.68Z"/>
            <path class="cls-1" d="M14.18,2.68V13.39a.76.76,0,0,0,.76.75H15a.76.76,0,0,0,.76-.75V2.68A2.44,2.44,0,0,0,13.34.25,4.45,4.45,0,0,1,14.18,2.68Z"/>
            <path class="cls-1" d="M15.78,2.64V2.59A2.4,2.4,0,0,1,13.34,5H2.68A2.39,2.39,0,0,1,.25,2.59v.05A2.4,2.4,0,0,1,2.68.25H13.34A2.41,2.41,0,0,1,15.78,2.64Z"/>
        </g>
    </g>
</svg></g>
<g transform="translate(22, 476)"><svg xmlns="http://www.w3.org/2000/svg" viewBox="0 0 16.03 18.59" x="0px" y="0px" width="16.03px" height="18.59px">
    <defs>
        <style>.cls-1{fill:#dadde0;stroke:#404548;stroke-linecap:round;stroke-linejoin:round;stroke-width:0.5px;}</style>
    </defs>
    <g id="Layer_2">
        <g>
            <path class="cls-1" d="M-.28,2.07h14.9a2.43,2.43,0,0,1,2.43,2.43v9.58a2.43,2.43,0,0,1-2.43,2.43H-.28A.76.76,0,0,1-1,15.76V2.83a.76.76,0,0,1,.76-.76Z" transform="translate(-1.28 17.31) rotate(-90)"/>
            <path class="cls-1" d="M1.84,2.68V13.39a.76.76,0,0,1-.75.75H1a.76.76,0,0,1-.76-.75V2.68A2.43,2.43,0,0,1,2.68.25,4.45,4.45,0,0,0,1.84,2.68Z"/>
            <path class="cls-1" d="M14.18,2.68V13.39a.76.76,0,0,0,.76.75H15a.76.76,0,0,0,.76-.75V2.68A2.44,2.44,0,0,0,13.34.25,4.45,4.45,0,0,1,14.18,2.68Z"/>
            <path class="cls-1" d="M15.78,2.64V2.59A2.4,2.4,0,0,1,13.34,5H2.68A2.39,2.39,0,0,1,.25,2.59v.05A2.4,2.4,0,0,1,2.68.25H13.34A2.41,2.41,0,0,1,15.78,2.64Z"/>
        </g>
    </g>
</svg></g>
<g transform="translate(54, 476)"><svg xmlns="http://www.w3.org/2000/svg" viewBox="0 0 16.03 18.59" x="0px" y="0px" width="16.03px" height="18.59px">
    <defs>
        <style>.cls-1{fill:#dadde0;stroke:#404548;stroke-linecap:round;stroke-linejoin:round;stroke-width:0.5px;}</style>
    </defs>
    <g id="Layer_2">
        <g>
            <path class="cls-1" d="M-.28,2.07h14.9a2.43,2.43,0,0,1,2.43,2.43v9.58a2.43,2.43,0,0,1-2.43,2.43H-.28A.76.76,0,0,1-1,15.76V2.83a.76.76,0,0,1,.76-.76Z" transform="translate(-1.28 17.31) rotate(-90)"/>
            <path class="cls-1" d="M1.84,2.68V13.39a.76.76,0,0,1-.75.75H1a.76.76,0,0,1-.76-.75V2.68A2.43,2.43,0,0,1,2.68.25,4.45,4.45,0,0,0,1.84,2.68Z"/>
            <path class="cls-1" d="M14.18,2.68V13.39a.76.76,0,0,0,.76.75H15a.76.76,0,0,0,.76-.75V2.68A2.44,2.44,0,0,0,13.34.25,4.45,4.45,0,0,1,14.18,2.68Z"/>
            <path class="cls-1" d="M15.78,2.64V2.59A2.4,2.4,0,0,1,13.34,5H2.68A2.39,2.39,0,0,1,.25,2.59v.05A2.4,2.4,0,0,1,2.68.25H13.34A2.41,2.41,0,0,1,15.78,2.64Z"/>
        </g>
    </g>
</svg></g>
<g transform="translate(70, 476)"><svg xmlns="http://www.w3.org/2000/svg" viewBox="0 0 16.03 18.59" x="0px" y="0px" width="16.03px" height="18.59px">
    <defs>
        <style>.cls-1{fill:#dadde0;stroke:#404548;stroke-linecap:round;stroke-linejoin:round;stroke-width:0.5px;}</style>
    </defs>
    <g id="Layer_2">
        <g>
            <path class="cls-1" d="M-.28,2.07h14.9a2.43,2.43,0,0,1,2.43,2.43v9.58a2.43,2.43,0,0,1-2.43,2.43H-.28A.76.76,0,0,1-1,15.76V2.83a.76.76,0,0,1,.76-.76Z" transform="translate(-1.28 17.31) rotate(-90)"/>
            <path class="cls-1" d="M1.84,2.68V13.39a.76.76,0,0,1-.75.75H1a.76.76,0,0,1-.76-.75V2.68A2.43,2.43,0,0,1,2.68.25,4.45,4.45,0,0,0,1.84,2.68Z"/>
            <path class="cls-1" d="M14.18,2.68V13.39a.76.76,0,0,0,.76.75H15a.76.76,0,0,0,.76-.75V2.68A2.44,2.44,0,0,0,13.34.25,4.45,4.45,0,0,1,14.18,2.68Z"/>
            <path class="cls-1" d="M15.78,2.64V2.59A2.4,2.4,0,0,1,13.34,5H2.68A2.39,2.39,0,0,1,.25,2.59v.05A2.4,2.4,0,0,1,2.68.25H13.34A2.41,2.41,0,0,1,15.78,2.64Z"/>
        </g>
    </g>
</svg></g>
<g transform="translate(6, 360)"><svg xmlns="http://www.w3.org/2000/svg" viewBox="0 0 16.03 18.59" x="0px" y="0px" width="16.03px" height="18.59px">
    <defs>
        <style>.cls-1{fill:#dadde0;stroke:#404548;stroke-linecap:round;stroke-linejoin:round;stroke-width:0.5px;}</style>
    </defs>
    <g id="Layer_2">
    <g transform="matrix(1,0,0,-1,0,18.559809)">
      <path
         id="path14"
         transform="rotate(-90,8.015,9.295)"
         d="m -0.28,2.07 h 14.9 a 2.43,2.43 0 0 1 2.43,2.43 v 9.58 a 2.43,2.43 0 0 1 -2.43,2.43 H -0.28 A 0.76,0.76 0 0 1 -1,15.76 V 2.83 a 0.76,0.76 0 0 1 0.76,-0.76 z"
         class="cls-1" />
      <path
         id="path16"
         d="M 1.84,2.68 V 13.39 A 0.76,0.76 0 0 1 1.09,14.14 H 1 A 0.76,0.76 0 0 1 0.24,13.39 V 2.68 A 2.43,2.43 0 0 1 2.68,0.25 4.45,4.45 0 0 0 1.84,2.68 Z"
         class="cls-1" />
      <path
         id="path18"
         d="m 14.18,2.68 v 10.71 a 0.76,0.76 0 0 0 0.76,0.75 H 15 a 0.76,0.76 0 0 0 0.76,-0.75 V 2.68 a 2.44,2.44 0 0 0 -2.42,-2.43 4.45,4.45 0 0 1 0.84,2.43 z"
         class="cls-1" />
      <path
         id="path20"
         d="M 15.78,2.64 V 2.59 A 2.4,2.4 0 0 1 13.34,5 H 2.68 A 2.39,2.39 0 0 1 0.25,2.59 V 2.64 A 2.4,2.4 0 0 1 2.68,0.25 h 10.66 a 2.41,2.41 0 0 1 2.44,2.39 z"
         class="cls-1" />
    </g>
    </g>
</svg></g>
<g transform="translate(22, 360)"><svg xmlns="http://www.w3.org/2000/svg" viewBox="0 0 16.03 18.59" x="0px" y="0px" width="16.03px" height="18.59px">
    <defs>
        <style>.cls-1{fill:#dadde0;stroke:#404548;stroke-linecap:round;stroke-linejoin:round;stroke-width:0.5px;}</style>
    </defs>
    <g id="Layer_2">
    <g transform="matrix(1,0,0,-1,0,18.559809)">
      <path
         id="path14"
         transform="rotate(-90,8.015,9.295)"
         d="m -0.28,2.07 h 14.9 a 2.43,2.43 0 0 1 2.43,2.43 v 9.58 a 2.43,2.43 0 0 1 -2.43,2.43 H -0.28 A 0.76,0.76 0 0 1 -1,15.76 V 2.83 a 0.76,0.76 0 0 1 0.76,-0.76 z"
         class="cls-1" />
      <path
         id="path16"
         d="M 1.84,2.68 V 13.39 A 0.76,0.76 0 0 1 1.09,14.14 H 1 A 0.76,0.76 0 0 1 0.24,13.39 V 2.68 A 2.43,2.43 0 0 1 2.68,0.25 4.45,4.45 0 0 0 1.84,2.68 Z"
         class="cls-1" />
      <path
         id="path18"
         d="m 14.18,2.68 v 10.71 a 0.76,0.76 0 0 0 0.76,0.75 H 15 a 0.76,0.76 0 0 0 0.76,-0.75 V 2.68 a 2.44,2.44 0 0 0 -2.42,-2.43 4.45,4.45 0 0 1 0.84,2.43 z"
         class="cls-1" />
      <path
         id="path20"
         d="M 15.78,2.64 V 2.59 A 2.4,2.4 0 0 1 13.34,5 H 2.68 A 2.39,2.39 0 0 1 0.25,2.59 V 2.64 A 2.4,2.4 0 0 1 2.68,0.25 h 10.66 a 2.41,2.41 0 0 1 2.44,2.39 z"
         class="cls-1" />
    </g>
    </g>
</svg></g>
<g transform="translate(54, 360)"><svg xmlns="http://www.w3.org/2000/svg" viewBox="0 0 16.03 18.59" x="0px" y="0px" width="16.03px" height="18.59px">
    <defs>
        <style>.cls-1{fill:#dadde0;stroke:#404548;stroke-linecap:round;stroke-linejoin:round;stroke-width:0.5px;}</style>
    </defs>
    <g id="Layer_2">
    <g transform="matrix(1,0,0,-1,0,18.559809)">
      <path
         id="path14"
         transform="rotate(-90,8.015,9.295)"
         d="m -0.28,2.07 h 14.9 a 2.43,2.43 0 0 1 2.43,2.43 v 9.58 a 2.43,2.43 0 0 1 -2.43,2.43 H -0.28 A 0.76,0.76 0 0 1 -1,15.76 V 2.83 a 0.76,0.76 0 0 1 0.76,-0.76 z"
         class="cls-1" />
      <path
         id="path16"
         d="M 1.84,2.68 V 13.39 A 0.76,0.76 0 0 1 1.09,14.14 H 1 A 0.76,0.76 0 0 1 0.24,13.39 V 2.68 A 2.43,2.43 0 0 1 2.68,0.25 4.45,4.45 0 0 0 1.84,2.68 Z"
         class="cls-1" />
      <path
         id="path18"
         d="m 14.18,2.68 v 10.71 a 0.76,0.76 0 0 0 0.76,0.75 H 15 a 0.76,0.76 0 0 0 0.76,-0.75 V 2.68 a 2.44,2.44 0 0 0 -2.42,-2.43 4.45,4.45 0 0 1 0.84,2.43 z"
         class="cls-1" />
      <path
         id="path20"
         d="M 15.78,2.64 V 2.59 A 2.4,2.4 0 0 1 13.34,5 H 2.68 A 2.39,2.39 0 0 1 0.25,2.59 V 2.64 A 2.4,2.4 0 0 1 2.68,0.25 h 10.66 a 2.41,2.41 0 0 1 2.44,2.39 z"
         class="cls-1" />
    </g>
    </g>
</svg></g>
<g transform="translate(70, 360)"><svg xmlns="http://www.w3.org/2000/svg" viewBox="0 0 16.03 18.59" x="0px" y="0px" width="16.03px" height="18.59px">
    <defs>
        <style>.cls-1{fill:#dadde0;stroke:#404548;stroke-linecap:round;stroke-linejoin:round;stroke-width:0.5px;}</style>
    </defs>
    <g id="Layer_2">
    <g transform="matrix(1,0,0,-1,0,18.559809)">
      <path
         id="path14"
         transform="rotate(-90,8.015,9.295)"
         d="m -0.28,2.07 h 14.9 a 2.43,2.43 0 0 1 2.43,2.43 v 9.58 a 2.43,2.43 0 0 1 -2.43,2.43 H -0.28 A 0.76,0.76 0 0 1 -1,15.76 V 2.83 a 0.76,0.76 0 0 1 0.76,-0.76 z"
         class="cls-1" />
      <path
         id="path16"
         d="M 1.84,2.68 V 13.39 A 0.76,0.76 0 0 1 1.09,14.14 H 1 A 0.76,0.76 0 0 1 0.24,13.39 V 2.68 A 2.43,2.43 0 0 1 2.68,0.25 4.45,4.45 0 0 0 1.84,2.68 Z"
         class="cls-1" />
      <path
         id="path18"
         d="m 14.18,2.68 v 10.71 a 0.76,0.76 0 0 0 0.76,0.75 H 15 a 0.76,0.76 0 0 0 0.76,-0.75 V 2.68 a 2.44,2.44 0 0 0 -2.42,-2.43 4.45,4.45 0 0 1 0.84,2.43 z"
         class="cls-1" />
      <path
         id="path20"
         d="M 15.78,2.64 V 2.59 A 2.4,2.4 0 0 1 13.34,5 H 2.68 A 2.39,2.39 0 0 1 0.25,2.59 V 2.64 A 2.4,2.4 0 0 1 2.68,0.25 h 10.66 a 2.41,2.41 0 0 1 2.44,2.39 z"
         class="cls-1" />
    </g>
    </g>
</svg></g>
<g transform="translate(6, 324)"><svg xmlns="http://www.w3.org/2000/svg" viewBox="0 0 16.03 18.59" x="0px" y="0px" width="16.03px" height="18.59px">
    <defs>
        <style>.cls-1{fill:#dadde0;stroke:#404548;stroke-linecap:round;stroke-linejoin:round;stroke-width:0.5px;}</style>
    </defs>
    <g id="Layer_2">
    <g transform="matrix(1,0,0,-1,0,18.559809)">
      <path
         id="path14"
         transform="rotate(-90,8.015,9.295)"
         d="m -0.28,2.07 h 14.9 a 2.43,2.43 0 0 1 2.43,2.43 v 9.58 a 2.43,2.43 0 0 1 -2.43,2.43 H -0.28 A 0.76,0.76 0 0 1 -1,15.76 V 2.83 a 0.76,0.76 0 0 1 0.76,-0.76 z"
         class="cls-1" />
      <path
         id="path16"
         d="M 1.84,2.68 V 13.39 A 0.76,0.76 0 0 1 1.09,14.14 H 1 A 0.76,0.76 0 0 1 0.24,13.39 V 2.68 A 2.43,2.43 0 0 1 2.68,0.25 4.45,4.45 0 0 0 1.84,2.68 Z"
         class="cls-1" />
      <path
         id="path18"
         d="m 14.18,2.68 v 10.71 a 0.76,0.76 0 0 0 0.76,0.75 H 15 a 0.76,0.76 0 0 0 0.76,-0.75 V 2.68 a 2.44,2.44 0 0 0 -2.42,-2.43 4.45,4.45 0 0 1 0.84,2.43 z"
         class="cls-1" />
      <path
         id="path20"
         d="M 15.78,2.64 V 2.59 A 2.4,2.4 0 0 1 13.34,5 H 2.68 A 2.39,2.39 0 0 1 0.25,2.59 V 2.64 A 2.4,2.4 0 0 1 2.68,0.25 h 10.66 a 2.41,2.41 0 0 1 2.44,2.39 z"
         class="cls-1" />
    </g>
    </g>
</svg></g>
<g transform="translate(22, 324)"><svg xmlns="http://www.w3.org/2000/svg" viewBox="0 0 16.03 18.59" x="0px" y="0px" width="16.03px" height="18.59px">
    <defs>
        <style>.cls-1{fill:#dadde0;stroke:#404548;stroke-linecap:round;stroke-linejoin:round;stroke-width:0.5px;}</style>
    </defs>
    <g id="Layer_2">
    <g transform="matrix(1,0,0,-1,0,18.559809)">
      <path
         id="path14"
         transform="rotate(-90,8.015,9.295)"
         d="m -0.28,2.07 h 14.9 a 2.43,2.43 0 0 1 2.43,2.43 v 9.58 a 2.43,2.43 0 0 1 -2.43,2.43 H -0.28 A 0.76,0.76 0 0 1 -1,15.76 V 2.83 a 0.76,0.76 0 0 1 0.76,-0.76 z"
         class="cls-1" />
      <path
         id="path16"
         d="M 1.84,2.68 V 13.39 A 0.76,0.76 0 0 1 1.09,14.14 H 1 A 0.76,0.76 0 0 1 0.24,13.39 V 2.68 A 2.43,2.43 0 0 1 2.68,0.25 4.45,4.45 0 0 0 1.84,2.68 Z"
         class="cls-1" />
      <path
         id="path18"
         d="m 14.18,2.68 v 10.71 a 0.76,0.76 0 0 0 0.76,0.75 H 15 a 0.76,0.76 0 0 0 0.76,-0.75 V 2.68 a 2.44,2.44 0 0 0 -2.42,-2.43 4.45,4.45 0 0 1 0.84,2.43 z"
         class="cls-1" />
      <path
         id="path20"
         d="M 15.78,2.64 V 2.59 A 2.4,2.4 0 0 1 13.34,5 H 2.68 A 2.39,2.39 0 0 1 0.25,2.59 V 2.64 A 2.4,2.4 0 0 1 2.68,0.25 h 10.66 a 2.41,2.41 0 0 1 2.44,2.39 z"
         class="cls-1" />
    </g>
    </g>
</svg></g>
<g transform="translate(54, 324)"><svg xmlns="http://www.w3.org/2000/svg" viewBox="0 0 16.03 18.59" x="0px" y="0px" width="16.03px" height="18.59px">
    <defs>
        <style>.cls-1{fill:#dadde0;stroke:#404548;stroke-linecap:round;stroke-linejoin:round;stroke-width:0.5px;}</style>
    </defs>
    <g id="Layer_2">
        <g>
            <path class="cls-1" d="M-.28,2.07h14.9a2.43,2.43,0,0,1,2.43,2.43v9.58a2.43,2.43,0,0,1-2.43,2.43H-.28A.76.76,0,0,1-1,15.76V2.83a.76.76,0,0,1,.76-.76Z" transform="translate(-1.28 17.31) rotate(-90)"/>
            <path class="cls-1" d="M1.84,2.68V13.39a.76.76,0,0,1-.75.75H1a.76.76,0,0,1-.76-.75V2.68A2.43,2.43,0,0,1,2.68.25,4.45,4.45,0,0,0,1.84,2.68Z"/>
            <path class="cls-1" d="M14.18,2.68V13.39a.76.76,0,0,0,.76.75H15a.76.76,0,0,0,.76-.75V2.68A2.44,2.44,0,0,0,13.34.25,4.45,4.45,0,0,1,14.18,2.68Z"/>
            <path class="cls-1" d="M15.78,2.64V2.59A2.4,2.4,0,0,1,13.34,5H2.68A2.39,2.39,0,0,1,.25,2.59v.05A2.4,2.4,0,0,1,2.68.25H13.34A2.41,2.41,0,0,1,15.78,2.64Z"/>
        </g>
    </g>
</svg></g>
<g transform="translate(70, 324)"><svg xmlns="http://www.w3.org/2000/svg" viewBox="0 0 16.03 18.59" x="0px" y="0px" width="16.03px" height="18.59px">
    <defs>
        <style>.cls-1{fill:#dadde0;stroke:#404548;stroke-linecap:round;stroke-linejoin:round;stroke-width:0.5px;}</style>
    </defs>
    <g id="Layer_2">
        <g>
            <path class="cls-1" d="M-.28,2.07h14.9a2.43,2.43,0,0,1,2.43,2.43v9.58a2.43,2.43,0,0,1-2.43,2.43H-.28A.76.76,0,0,1-1,15.76V2.83a.76.76,0,0,1,.76-.76Z" transform="translate(-1.28 17.31) rotate(-90)"/>
            <path class="cls-1" d="M1.84,2.68V13.39a.76.76,0,0,1-.75.75H1a.76.76,0,0,1-.76-.75V2.68A2.43,2.43,0,0,1,2.68.25,4.45,4.45,0,0,0,1.84,2.68Z"/>
            <path class="cls-1" d="M14.18,2.68V13.39a.76.76,0,0,0,.76.75H15a.76.76,0,0,0,.76-.75V2.68A2.44,2.44,0,0,0,13.34.25,4.45,4.45,0,0,1,14.18,2.68Z"/>
            <path class="cls-1" d="M15.78,2.64V2.59A2.4,2.4,0,0,1,13.34,5H2.68A2.39,2.39,0,0,1,.25,2.59v.05A2.4,2.4,0,0,1,2.68.25H13.34A2.41,2.41,0,0,1,15.78,2.64Z"/>
        </g>
    </g>
</svg></g>
<g transform="translate(6, 288)"><svg xmlns="http://www.w3.org/2000/svg" viewBox="0 0 16.03 18.59" x="0px" y="0px" width="16.03px" height="18.59px">
    <defs>
        <style>.cls-1{fill:#dadde0;stroke:#404548;stroke-linecap:round;stroke-linejoin:round;stroke-width:0.5px;}</style>
    </defs>
    <g id="Layer_2">
    <g transform="matrix(1,0,0,-1,0,18.559809)">
      <path
         id="path14"
         transform="rotate(-90,8.015,9.295)"
         d="m -0.28,2.07 h 14.9 a 2.43,2.43 0 0 1 2.43,2.43 v 9.58 a 2.43,2.43 0 0 1 -2.43,2.43 H -0.28 A 0.76,0.76 0 0 1 -1,15.76 V 2.83 a 0.76,0.76 0 0 1 0.76,-0.76 z"
         class="cls-1" />
      <path
         id="path16"
         d="M 1.84,2.68 V 13.39 A 0.76,0.76 0 0 1 1.09,14.14 H 1 A 0.76,0.76 0 0 1 0.24,13.39 V 2.68 A 2.43,2.43 0 0 1 2.68,0.25 4.45,4.45 0 0 0 1.84,2.68 Z"
         class="cls-1" />
      <path
         id="path18"
         d="m 14.18,2.68 v 10.71 a 0.76,0.76 0 0 0 0.76,0.75 H 15 a 0.76,0.76 0 0 0 0.76,-0.75 V 2.68 a 2.44,2.44 0 0 0 -2.42,-2.43 4.45,4.45 0 0 1 0.84,2.43 z"
         class="cls-1" />
      <path
         id="path20"
         d="M 15.78,2.64 V 2.59 A 2.4,2.4 0 0 1 13.34,5 H 2.68 A 2.39,2.39 0 0 1 0.25,2.59 V 2.64 A 2.4,2.4 0 0 1 2.68,0.25 h 10.66 a 2.41,2.41 0 0 1 2.44,2.39 z"
         class="cls-1" />
    </g>
    </g>
</svg></g>
<g transform="translate(22, 288)"><svg xmlns="http://www.w3.org/2000/svg" viewBox="0 0 16.03 18.59" x="0px" y="0px" width="16.03px" height="18.59px">
    <defs>
        <style>.cls-1{fill:#dadde0;stroke:#404548;stroke-linecap:round;stroke-linejoin:round;stroke-width:0.5px;}</style>
    </defs>
    <g id="Layer_2">
    <g transform="matrix(1,0,0,-1,0,18.559809)">
      <path
         id="path14"
         transform="rotate(-90,8.015,9.295)"
         d="m -0.28,2.07 h 14.9 a 2.43,2.43 0 0 1 2.43,2.43 v 9.58 a 2.43,2.43 0 0 1 -2.43,2.43 H -0.28 A 0.76,0.76 0 0 1 -1,15.76 V 2.83 a 0.76,0.76 0 0 1 0.76,-0.76 z"
         class="cls-1" />
      <path
         id="path16"
         d="M 1.84,2.68 V 13.39 A 0.76,0.76 0 0 1 1.09,14.14 H 1 A 0.76,0.76 0 0 1 0.24,13.39 V 2.68 A 2.43,2.43 0 0 1 2.68,0.25 4.45,4.45 0 0 0 1.84,2.68 Z"
         class="cls-1" />
      <path
         id="path18"
         d="m 14.18,2.68 v 10.71 a 0.76,0.76 0 0 0 0.76,0.75 H 15 a 0.76,0.76 0 0 0 0.76,-0.75 V 2.68 a 2.44,2.44 0 0 0 -2.42,-2.43 4.45,4.45 0 0 1 0.84,2.43 z"
         class="cls-1" />
      <path
         id="path20"
         d="M 15.78,2.64 V 2.59 A 2.4,2.4 0 0 1 13.34,5 H 2.68 A 2.39,2.39 0 0 1 0.25,2.59 V 2.64 A 2.4,2.4 0 0 1 2.68,0.25 h 10.66 a 2.41,2.41 0 0 1 2.44,2.39 z"
         class="cls-1" />
    </g>
    </g>
</svg></g>
<g transform="translate(54, 288)"><svg xmlns="http://www.w3.org/2000/svg" viewBox="0 0 16.03 18.59" x="0px" y="0px" width="16.03px" height="18.59px">
    <defs>
        <style>.cls-1{fill:#dadde0;stroke:#404548;stroke-linecap:round;stroke-linejoin:round;stroke-width:0.5px;}</style>
    </defs>
    <g id="Layer_2">
        <g>
            <path class="cls-1" d="M-.28,2.07h14.9a2.43,2.43,0,0,1,2.43,2.43v9.58a2.43,2.43,0,0,1-2.43,2.43H-.28A.76.76,0,0,1-1,15.76V2.83a.76.76,0,0,1,.76-.76Z" transform="translate(-1.28 17.31) rotate(-90)"/>
            <path class="cls-1" d="M1.84,2.68V13.39a.76.76,0,0,1-.75.75H1a.76.76,0,0,1-.76-.75V2.68A2.43,2.43,0,0,1,2.68.25,4.45,4.45,0,0,0,1.84,2.68Z"/>
            <path class="cls-1" d="M14.18,2.68V13.39a.76.76,0,0,0,.76.75H15a.76.76,0,0,0,.76-.75V2.68A2.44,2.44,0,0,0,13.34.25,4.45,4.45,0,0,1,14.18,2.68Z"/>
            <path class="cls-1" d="M15.78,2.64V2.59A2.4,2.4,0,0,1,13.34,5H2.68A2.39,2.39,0,0,1,.25,2.59v.05A2.4,2.4,0,0,1,2.68.25H13.34A2.41,2.41,0,0,1,15.78,2.64Z"/>
        </g>
    </g>
</svg></g>
<g transform="translate(70, 288)"><svg xmlns="http://www.w3.org/2000/svg" viewBox="0 0 16.03 18.59" x="0px" y="0px" width="16.03px" height="18.59px">
    <defs>
        <style>.cls-1{fill:#dadde0;stroke:#404548;stroke-linecap:round;stroke-linejoin:round;stroke-width:0.5px;}</style>
    </defs>
    <g id="Layer_2">
        <g>
            <path class="cls-1" d="M-.28,2.07h14.9a2.43,2.43,0,0,1,2.43,2.43v9.58a2.43,2.43,0,0,1-2.43,2.43H-.28A.76.76,0,0,1-1,15.76V2.83a.76.76,0,0,1,.76-.76Z" transform="translate(-1.28 17.31) rotate(-90)"/>
            <path class="cls-1" d="M1.84,2.68V13.39a.76.76,0,0,1-.75.75H1a.76.76,0,0,1-.76-.75V2.68A2.43,2.43,0,0,1,2.68.25,4.45,4.45,0,0,0,1.84,2.68Z"/>
            <path class="cls-1" d="M14.18,2.68V13.39a.76.76,0,0,0,.76.75H15a.76.76,0,0,0,.76-.75V2.68A2.44,2.44,0,0,0,13.34.25,4.45,4.45,0,0,1,14.18,2.68Z"/>
            <path class="cls-1" d="M15.78,2.64V2.59A2.4,2.4,0,0,1,13.34,5H2.68A2.39,2.39,0,0,1,.25,2.59v.05A2.4,2.4,0,0,1,2.68.25H13.34A2.41,2.41,0,0,1,15.78,2.64Z"/>
        </g>
    </g>
</svg></g>
<g transform="translate(6, 252)"><svg xmlns="http://www.w3.org/2000/svg" viewBox="0 0 16.03 18.59" x="0px" y="0px" width="16.03px" height="18.59px">
    <defs>
        <style>.cls-1{fill:#dadde0;stroke:#404548;stroke-linecap:round;stroke-linejoin:round;stroke-width:0.5px;}</style>
    </defs>
    <g id="Layer_2">
    <g transform="matrix(1,0,0,-1,0,18.559809)">
      <path
         id="path14"
         transform="rotate(-90,8.015,9.295)"
         d="m -0.28,2.07 h 14.9 a 2.43,2.43 0 0 1 2.43,2.43 v 9.58 a 2.43,2.43 0 0 1 -2.43,2.43 H -0.28 A 0.76,0.76 0 0 1 -1,15.76 V 2.83 a 0.76,0.76 0 0 1 0.76,-0.76 z"
         class="cls-1" />
      <path
         id="path16"
         d="M 1.84,2.68 V 13.39 A 0.76,0.76 0 0 1 1.09,14.14 H 1 A 0.76,0.76 0 0 1 0.24,13.39 V 2.68 A 2.43,2.43 0 0 1 2.68,0.25 4.45,4.45 0 0 0 1.84,2.68 Z"
         class="cls-1" />
      <path
         id="path18"
         d="m 14.18,2.68 v 10.71 a 0.76,0.76 0 0 0 0.76,0.75 H 15 a 0.76,0.76 0 0 0 0.76,-0.75 V 2.68 a 2.44,2.44 0 0 0 -2.42,-2.43 4.45,4.45 0 0 1 0.84,2.43 z"
         class="cls-1" />
      <path
         id="path20"
         d="M 15.78,2.64 V 2.59 A 2.4,2.4 0 0 1 13.34,5 H 2.68 A 2.39,2.39 0 0 1 0.25,2.59 V 2.64 A 2.4,2.4 0 0 1 2.68,0.25 h 10.66 a 2.41,2.41 0 0 1 2.44,2.39 z"
         class="cls-1" />
    </g>
    </g>
</svg></g>
<g transform="translate(22, 252)"><svg xmlns="http://www.w3.org/2000/svg" viewBox="0 0 16.03 18.59" x="0px" y="0px" width="16.03px" height="18.59px">
    <defs>
        <style>.cls-1{fill:#dadde0;stroke:#404548;stroke-linecap:round;stroke-linejoin:round;stroke-width:0.5px;}</style>
    </defs>
    <g id="Layer_2">
    <g transform="matrix(1,0,0,-1,0,18.559809)">
      <path
         id="path14"
         transform="rotate(-90,8.015,9.295)"
         d="m -0.28,2.07 h 14.9 a 2.43,2.43 0 0 1 2.43,2.43 v 9.58 a 2.43,2.43 0 0 1 -2.43,2.43 H -0.28 A 0.76,0.76 0 0 1 -1,15.76 V 2.83 a 0.76,0.76 0 0 1 0.76,-0.76 z"
         class="cls-1" />
      <path
         id="path16"
         d="M 1.84,2.68 V 13.39 A 0.76,0.76 0 0 1 1.09,14.14 H 1 A 0.76,0.76 0 0 1 0.24,13.39 V 2.68 A 2.43,2.43 0 0 1 2.68,0.25 4.45,4.45 0 0 0 1.84,2.68 Z"
         class="cls-1" />
      <path
         id="path18"
         d="m 14.18,2.68 v 10.71 a 0.76,0.76 0 0 0 0.76,0.75 H 15 a 0.76,0.76 0 0 0 0.76,-0.75 V 2.68 a 2.44,2.44 0 0 0 -2.42,-2.43 4.45,4.45 0 0 1 0.84,2.43 z"
         class="cls-1" />
      <path
         id="path20"
         d="M 15.78,2.64 V 2.59 A 2.4,2.4 0 0 1 13.34,5 H 2.68 A 2.39,2.39 0 0 1 0.25,2.59 V 2.64 A 2.4,2.4 0 0 1 2.68,0.25 h 10.66 a 2.41,2.41 0 0 1 2.44,2.39 z"
         class="cls-1" />
    </g>
    </g>
</svg></g>
<g transform="translate(54, 252)"><svg xmlns="http://www.w3.org/2000/svg" viewBox="0 0 16.03 18.59" x="0px" y="0px" width="16.03px" height="18.59px">
    <defs>
        <style>.cls-1{fill:#dadde0;stroke:#404548;stroke-linecap:round;stroke-linejoin:round;stroke-width:0.5px;}</style>
    </defs>
    <g id="Layer_2">
        <g>
            <path class="cls-1" d="M-.28,2.07h14.9a2.43,2.43,0,0,1,2.43,2.43v9.58a2.43,2.43,0,0,1-2.43,2.43H-.28A.76.76,0,0,1-1,15.76V2.83a.76.76,0,0,1,.76-.76Z" transform="translate(-1.28 17.31) rotate(-90)"/>
            <path class="cls-1" d="M1.84,2.68V13.39a.76.76,0,0,1-.75.75H1a.76.76,0,0,1-.76-.75V2.68A2.43,2.43,0,0,1,2.68.25,4.45,4.45,0,0,0,1.84,2.68Z"/>
            <path class="cls-1" d="M14.18,2.68V13.39a.76.76,0,0,0,.76.75H15a.76.76,0,0,0,.76-.75V2.68A2.44,2.44,0,0,0,13.34.25,4.45,4.45,0,0,1,14.18,2.68Z"/>
            <path class="cls-1" d="M15.78,2.64V2.59A2.4,2.4,0,0,1,13.34,5H2.68A2.39,2.39,0,0,1,.25,2.59v.05A2.4,2.4,0,0,1,2.68.25H13.34A2.41,2.41,0,0,1,15.78,2.64Z"/>
        </g>
    </g>
</svg></g>
<g transform="translate(70, 252)"><svg xmlns="http://www.w3.org/2000/svg" viewBox="0 0 16.03 18.59" x="0px" y="0px" width="16.03px" height="18.59px">
    <defs>
        <style>.cls-1{fill:#dadde0;stroke:#404548;stroke-linecap:round;stroke-linejoin:round;stroke-width:0.5px;}</style>
    </defs>
    <g id="Layer_2">
        <g>
            <path class="cls-1" d="M-.28,2.07h14.9a2.43,2.43,0,0,1,2.43,2.43v9.58a2.43,2.43,0,0,1-2.43,2.43H-.28A.76.76,0,0,1-1,15.76V2.83a.76.76,0,0,1,.76-.76Z" transform="translate(-1.28 17.31) rotate(-90)"/>
            <path class="cls-1" d="M1.84,2.68V13.39a.76.76,0,0,1-.75.75H1a.76.76,0,0,1-.76-.75V2.68A2.43,2.43,0,0,1,2.68.25,4.45,4.45,0,0,0,1.84,2.68Z"/>
            <path class="cls-1" d="M14.18,2.68V13.39a.76.76,0,0,0,.76.75H15a.76.76,0,0,0,.76-.75V2.68A2.44,2.44,0,0,0,13.34.25,4.45,4.45,0,0,1,14.18,2.68Z"/>
            <path class="cls-1" d="M15.78,2.64V2.59A2.4,2.4,0,0,1,13.34,5H2.68A2.39,2.39,0,0,1,.25,2.59v.05A2.4,2.4,0,0,1,2.68.25H13.34A2.41,2.41,0,0,1,15.78,2.64Z"/>
        </g>
    </g>
</svg></g>
<g transform="translate(6, 216)"><svg xmlns="http://www.w3.org/2000/svg" viewBox="0 0 16.03 18.59" x="0px" y="0px" width="16.03px" height="18.59px">
    <defs>
        <style>.cls-1{fill:#dadde0;stroke:#404548;stroke-linecap:round;stroke-linejoin:round;stroke-width:0.5px;}</style>
    </defs>
    <g id="Layer_2">
    <g transform="matrix(1,0,0,-1,0,18.559809)">
      <path
         id="path14"
         transform="rotate(-90,8.015,9.295)"
         d="m -0.28,2.07 h 14.9 a 2.43,2.43 0 0 1 2.43,2.43 v 9.58 a 2.43,2.43 0 0 1 -2.43,2.43 H -0.28 A 0.76,0.76 0 0 1 -1,15.76 V 2.83 a 0.76,0.76 0 0 1 0.76,-0.76 z"
         class="cls-1" />
      <path
         id="path16"
         d="M 1.84,2.68 V 13.39 A 0.76,0.76 0 0 1 1.09,14.14 H 1 A 0.76,0.76 0 0 1 0.24,13.39 V 2.68 A 2.43,2.43 0 0 1 2.68,0.25 4.45,4.45 0 0 0 1.84,2.68 Z"
         class="cls-1" />
      <path
         id="path18"
         d="m 14.18,2.68 v 10.71 a 0.76,0.76 0 0 0 0.76,0.75 H 15 a 0.76,0.76 0 0 0 0.76,-0.75 V 2.68 a 2.44,2.44 0 0 0 -2.42,-2.43 4.45,4.45 0 0 1 0.84,2.43 z"
         class="cls-1" />
      <path
         id="path20"
         d="M 15.78,2.64 V 2.59 A 2.4,2.4 0 0 1 13.34,5 H 2.68 A 2.39,2.39 0 0 1 0.25,2.59 V 2.64 A 2.4,2.4 0 0 1 2.68,0.25 h 10.66 a 2.41,2.41 0 0 1 2.44,2.39 z"
         class="cls-1" />
    </g>
    </g>
</svg></g>
<g transform="translate(22, 216)"><svg xmlns="http://www.w3.org/2000/svg" viewBox="0 0 16.03 18.59" x="0px" y="0px" width="16.03px" height="18.59px">
    <defs>
        <style>.cls-1{fill:#dadde0;stroke:#404548;stroke-linecap:round;stroke-linejoin:round;stroke-width:0.5px;}</style>
    </defs>
    <g id="Layer_2">
    <g transform="matrix(1,0,0,-1,0,18.559809)">
      <path
         id="path14"
         transform="rotate(-90,8.015,9.295)"
         d="m -0.28,2.07 h 14.9 a 2.43,2.43 0 0 1 2.43,2.43 v 9.58 a 2.43,2.43 0 0 1 -2.43,2.43 H -0.28 A 0.76,0.76 0 0 1 -1,15.76 V 2.83 a 0.76,0.76 0 0 1 0.76,-0.76 z"
         class="cls-1" />
      <path
         id="path16"
         d="M 1.84,2.68 V 13.39 A 0.76,0.76 0 0 1 1.09,14.14 H 1 A 0.76,0.76 0 0 1 0.24,13.39 V 2.68 A 2.43,2.43 0 0 1 2.68,0.25 4.45,4.45 0 0 0 1.84,2.68 Z"
         class="cls-1" />
      <path
         id="path18"
         d="m 14.18,2.68 v 10.71 a 0.76,0.76 0 0 0 0.76,0.75 H 15 a 0.76,0.76 0 0 0 0.76,-0.75 V 2.68 a 2.44,2.44 0 0 0 -2.42,-2.43 4.45,4.45 0 0 1 0.84,2.43 z"
         class="cls-1" />
      <path
         id="path20"
         d="M 15.78,2.64 V 2.59 A 2.4,2.4 0 0 1 13.34,5 H 2.68 A 2.39,2.39 0 0 1 0.25,2.59 V 2.64 A 2.4,2.4 0 0 1 2.68,0.25 h 10.66 a 2.41,2.41 0 0 1 2.44,2.39 z"
         class="cls-1" />
    </g>
    </g>
</svg></g>
<g transform="translate(54, 216)"><svg xmlns="http://www.w3.org/2000/svg" viewBox="0 0 16.03 18.59" x="0px" y="0px" width="16.03px" height="18.59px">
    <defs>
        <style>.cls-1{fill:#dadde0;stroke:#404548;stroke-linecap:round;stroke-linejoin:round;stroke-width:0.5px;}</style>
    </defs>
    <g id="Layer_2">
        <g>
            <path class="cls-1" d="M-.28,2.07h14.9a2.43,2.43,0,0,1,2.43,2.43v9.58a2.43,2.43,0,0,1-2.43,2.43H-.28A.76.76,0,0,1-1,15.76V2.83a.76.76,0,0,1,.76-.76Z" transform="translate(-1.28 17.31) rotate(-90)"/>
            <path class="cls-1" d="M1.84,2.68V13.39a.76.76,0,0,1-.75.75H1a.76.76,0,0,1-.76-.75V2.68A2.43,2.43,0,0,1,2.68.25,4.45,4.45,0,0,0,1.84,2.68Z"/>
            <path class="cls-1" d="M14.18,2.68V13.39a.76.76,0,0,0,.76.75H15a.76.76,0,0,0,.76-.75V2.68A2.44,2.44,0,0,0,13.34.25,4.45,4.45,0,0,1,14.18,2.68Z"/>
            <path class="cls-1" d="M15.78,2.64V2.59A2.4,2.4,0,0,1,13.34,5H2.68A2.39,2.39,0,0,1,.25,2.59v.05A2.4,2.4,0,0,1,2.68.25H13.34A2.41,2.41,0,0,1,15.78,2.64Z"/>
        </g>
    </g>
</svg></g>
<g transform="translate(70, 216)"><svg xmlns="http://www.w3.org/2000/svg" viewBox="0 0 16.03 18.59" x="0px" y="0px" width="16.03px" height="18.59px">
    <defs>
        <style>.cls-1{fill:#dadde0;stroke:#404548;stroke-linecap:round;stroke-linejoin:round;stroke-width:0.5px;}</style>
    </defs>
    <g id="Layer_2">
        <g>
            <path class="cls-1" d="M-.28,2.07h14.9a2.43,2.43,0,0,1,2.43,2.43v9.58a2.43,2.43,0,0,1-2.43,2.43H-.28A.76.76,0,0,1-1,15.76V2.83a.76.76,0,0,1,.76-.76Z" transform="translate(-1.28 17.31) rotate(-90)"/>
            <path class="cls-1" d="M1.84,2.68V13.39a.76.76,0,0,1-.75.75H1a.76.76,0,0,1-.76-.75V2.68A2.43,2.43,0,0,1,2.68.25,4.45,4.45,0,0,0,1.84,2.68Z"/>
            <path class="cls-1" d="M14.18,2.68V13.39a.76.76,0,0,0,.76.75H15a.76.76,0,0,0,.76-.75V2.68A2.44,2.44,0,0,0,13.34.25,4.45,4.45,0,0,1,14.18,2.68Z"/>
            <path class="cls-1" d="M15.78,2.64V2.59A2.4,2.4,0,0,1,13.34,5H2.68A2.39,2.39,0,0,1,.25,2.59v.05A2.4,2.4,0,0,1,2.68.25H13.34A2.41,2.41,0,0,1,15.78,2.64Z"/>
        </g>
    </g>
</svg></g>
<g transform="translate(6, 180)"><svg xmlns="http://www.w3.org/2000/svg" viewBox="0 0 16.03 18.59" x="0px" y="0px" width="16.03px" height="18.59px">
    <defs>
        <style>.cls-1{fill:#dadde0;stroke:#404548;stroke-linecap:round;stroke-linejoin:round;stroke-width:0.5px;}</style>
    </defs>
    <g id="Layer_2">
    <g transform="matrix(1,0,0,-1,0,18.559809)">
      <path
         id="path14"
         transform="rotate(-90,8.015,9.295)"
         d="m -0.28,2.07 h 14.9 a 2.43,2.43 0 0 1 2.43,2.43 v 9.58 a 2.43,2.43 0 0 1 -2.43,2.43 H -0.28 A 0.76,0.76 0 0 1 -1,15.76 V 2.83 a 0.76,0.76 0 0 1 0.76,-0.76 z"
         class="cls-1" />
      <path
         id="path16"
         d="M 1.84,2.68 V 13.39 A 0.76,0.76 0 0 1 1.09,14.14 H 1 A 0.76,0.76 0 0 1 0.24,13.39 V 2.68 A 2.43,2.43 0 0 1 2.68,0.25 4.45,4.45 0 0 0 1.84,2.68 Z"
         class="cls-1" />
      <path
         id="path18"
         d="m 14.18,2.68 v 10.71 a 0.76,0.76 0 0 0 0.76,0.75 H 15 a 0.76,0.76 0 0 0 0.76,-0.75 V 2.68 a 2.44,2.44 0 0 0 -2.42,-2.43 4.45,4.45 0 0 1 0.84,2.43 z"
         class="cls-1" />
      <path
         id="path20"
         d="M 15.78,2.64 V 2.59 A 2.4,2.4 0 0 1 13.34,5 H 2.68 A 2.39,2.39 0 0 1 0.25,2.59 V 2.64 A 2.4,2.4 0 0 1 2.68,0.25 h 10.66 a 2.41,2.41 0 0 1 2.44,2.39 z"
         class="cls-1" />
    </g>
    </g>
</svg></g>
<g transform="translate(22, 180)"><svg xmlns="http://www.w3.org/2000/svg" viewBox="0 0 16.03 18.59" x="0px" y="0px" width="16.03px" height="18.59px">
    <defs>
        <style>.cls-1{fill:#dadde0;stroke:#404548;stroke-linecap:round;stroke-linejoin:round;stroke-width:0.5px;}</style>
    </defs>
    <g id="Layer_2">
    <g transform="matrix(1,0,0,-1,0,18.559809)">
      <path
         id="path14"
         transform="rotate(-90,8.015,9.295)"
         d="m -0.28,2.07 h 14.9 a 2.43,2.43 0 0 1 2.43,2.43 v 9.58 a 2.43,2.43 0 0 1 -2.43,2.43 H -0.28 A 0.76,0.76 0 0 1 -1,15.76 V 2.83 a 0.76,0.76 0 0 1 0.76,-0.76 z"
         class="cls-1" />
      <path
         id="path16"
         d="M 1.84,2.68 V 13.39 A 0.76,0.76 0 0 1 1.09,14.14 H 1 A 0.76,0.76 0 0 1 0.24,13.39 V 2.68 A 2.43,2.43 0 0 1 2.68,0.25 4.45,4.45 0 0 0 1.84,2.68 Z"
         class="cls-1" />
      <path
         id="path18"
         d="m 14.18,2.68 v 10.71 a 0.76,0.76 0 0 0 0.76,0.75 H 15 a 0.76,0.76 0 0 0 0.76,-0.75 V 2.68 a 2.44,2.44 0 0 0 -2.42,-2.43 4.45,4.45 0 0 1 0.84,2.43 z"
         class="cls-1" />
      <path
         id="path20"
         d="M 15.78,2.64 V 2.59 A 2.4,2.4 0 0 1 13.34,5 H 2.68 A 2.39,2.39 0 0 1 0.25,2.59 V 2.64 A 2.4,2.4 0 0 1 2.68,0.25 h 10.66 a 2.41,2.41 0 0 1 2.44,2.39 z"
         class="cls-1" />
    </g>
    </g>
</svg></g>
<g transform="translate(54, 180)"><svg xmlns="http://www.w3.org/2000/svg" viewBox="0 0 16.03 18.59" x="0px" y="0px" width="16.03px" height="18.59px">
    <defs>
        <style>.cls-1{fill:#dadde0;stroke:#404548;stroke-linecap:round;stroke-linejoin:round;stroke-width:0.5px;}</style>
    </defs>
    <g id="Layer_2">
        <g>
            <path class="cls-1" d="M-.28,2.07h14.9a2.43,2.43,0,0,1,2.43,2.43v9.58a2.43,2.43,0,0,1-2.43,2.43H-.28A.76.76,0,0,1-1,15.76V2.83a.76.76,0,0,1,.76-.76Z" transform="translate(-1.28 17.31) rotate(-90)"/>
            <path class="cls-1" d="M1.84,2.68V13.39a.76.76,0,0,1-.75.75H1a.76.76,0,0,1-.76-.75V2.68A2.43,2.43,0,0,1,2.68.25,4.45,4.45,0,0,0,1.84,2.68Z"/>
            <path class="cls-1" d="M14.18,2.68V13.39a.76.76,0,0,0,.76.75H15a.76.76,0,0,0,.76-.75V2.68A2.44,2.44,0,0,0,13.34.25,4.45,4.45,0,0,1,14.18,2.68Z"/>
            <path class="cls-1" d="M15.78,2.64V2.59A2.4,2.4,0,0,1,13.34,5H2.68A2.39,2.39,0,0,1,.25,2.59v.05A2.4,2.4,0,0,1,2.68.25H13.34A2.41,2.41,0,0,1,15.78,2.64Z"/>
        </g>
    </g>
</svg></g>
<g transform="translate(70, 180)"><svg xmlns="http://www.w3.org/2000/svg" viewBox="0 0 16.03 18.59" x="0px" y="0px" width="16.03px" height="18.59px">
    <defs>
        <style>.cls-1{fill:#dadde0;stroke:#404548;stroke-linecap:round;stroke-linejoin:round;stroke-width:0.5px;}</style>
    </defs>
    <g id="Layer_2">
        <g>
            <path class="cls-1" d="M-.28,2.07h14.9a2.43,2.43,0,0,1,2.43,2.43v9.58a2.43,2.43,0,0,1-2.43,2.43H-.28A.76.76,0,0,1-1,15.76V2.83a.76.76,0,0,1,.76-.76Z" transform="translate(-1.28 17.31) rotate(-90)"/>
            <path class="cls-1" d="M1.84,2.68V13.39a.76.76,0,0,1-.75.75H1a.76.76,0,0,1-.76-.75V2.68A2.43,2.43,0,0,1,2.68.25,4.45,4.45,0,0,0,1.84,2.68Z"/>
            <path class="cls-1" d="M14.18,2.68V13.39a.76.76,0,0,0,.76.75H15a.76.76,0,0,0,.76-.75V2.68A2.44,2.44,0,0,0,13.34.25,4.45,4.45,0,0,1,14.18,2.68Z"/>
            <path class="cls-1" d="M15.78,2.64V2.59A2.4,2.4,0,0,1,13.34,5H2.68A2.39,2.39,0,0,1,.25,2.59v.05A2.4,2.4,0,0,1,2.68.25H13.34A2.41,2.41,0,0,1,15.78,2.64Z"/>
        </g>
    </g>
</svg></g>
<g transform="translate(6, 144)"><svg xmlns="http://www.w3.org/2000/svg" viewBox="0 0 16.03 18.59" x="0px" y="0px" width="16.03px" height="18.59px">
    <defs>
        <style>.cls-1{fill:#dadde0;stroke:#404548;stroke-linecap:round;stroke-linejoin:round;stroke-width:0.5px;}</style>
    </defs>
    <g id="Layer_2">
    <g transform="matrix(1,0,0,-1,0,18.559809)">
      <path
         id="path14"
         transform="rotate(-90,8.015,9.295)"
         d="m -0.28,2.07 h 14.9 a 2.43,2.43 0 0 1 2.43,2.43 v 9.58 a 2.43,2.43 0 0 1 -2.43,2.43 H -0.28 A 0.76,0.76 0 0 1 -1,15.76 V 2.83 a 0.76,0.76 0 0 1 0.76,-0.76 z"
         class="cls-1" />
      <path
         id="path16"
         d="M 1.84,2.68 V 13.39 A 0.76,0.76 0 0 1 1.09,14.14 H 1 A 0.76,0.76 0 0 1 0.24,13.39 V 2.68 A 2.43,2.43 0 0 1 2.68,0.25 4.45,4.45 0 0 0 1.84,2.68 Z"
         class="cls-1" />
      <path
         id="path18"
         d="m 14.18,2.68 v 10.71 a 0.76,0.76 0 0 0 0.76,0.75 H 15 a 0.76,0.76 0 0 0 0.76,-0.75 V 2.68 a 2.44,2.44 0 0 0 -2.42,-2.43 4.45,4.45 0 0 1 0.84,2.43 z"
         class="cls-1" />
      <path
         id="path20"
         d="M 15.78,2.64 V 2.59 A 2.4,2.4 0 0 1 13.34,5 H 2.68 A 2.39,2.39 0 0 1 0.25,2.59 V 2.64 A 2.4,2.4 0 0 1 2.68,0.25 h 10.66 a 2.41,2.41 0 0 1 2.44,2.39 z"
         class="cls-1" />
    </g>
    </g>
</svg></g>
<g transform="translate(22, 144)"><svg xmlns="http://www.w3.org/2000/svg" viewBox="0 0 16.03 18.59" x="0px" y="0px" width="16.03px" height="18.59px">
    <defs>
        <style>.cls-1{fill:#dadde0;stroke:#404548;stroke-linecap:round;stroke-linejoin:round;stroke-width:0.5px;}</style>
    </defs>
    <g id="Layer_2">
    <g transform="matrix(1,0,0,-1,0,18.559809)">
      <path
         id="path14"
         transform="rotate(-90,8.015,9.295)"
         d="m -0.28,2.07 h 14.9 a 2.43,2.43 0 0 1 2.43,2.43 v 9.58 a 2.43,2.43 0 0 1 -2.43,2.43 H -0.28 A 0.76,0.76 0 0 1 -1,15.76 V 2.83 a 0.76,0.76 0 0 1 0.76,-0.76 z"
         class="cls-1" />
      <path
         id="path16"
         d="M 1.84,2.68 V 13.39 A 0.76,0.76 0 0 1 1.09,14.14 H 1 A 0.76,0.76 0 0 1 0.24,13.39 V 2.68 A 2.43,2.43 0 0 1 2.68,0.25 4.45,4.45 0 0 0 1.84,2.68 Z"
         class="cls-1" />
      <path
         id="path18"
         d="m 14.18,2.68 v 10.71 a 0.76,0.76 0 0 0 0.76,0.75 H 15 a 0.76,0.76 0 0 0 0.76,-0.75 V 2.68 a 2.44,2.44 0 0 0 -2.42,-2.43 4.45,4.45 0 0 1 0.84,2.43 z"
         class="cls-1" />
      <path
         id="path20"
         d="M 15.78,2.64 V 2.59 A 2.4,2.4 0 0 1 13.34,5 H 2.68 A 2.39,2.39 0 0 1 0.25,2.59 V 2.64 A 2.4,2.4 0 0 1 2.68,0.25 h 10.66 a 2.41,2.41 0 0 1 2.44,2.39 z"
         class="cls-1" />
    </g>
    </g>
</svg></g>
<g transform="translate(54, 144)"><svg xmlns="http://www.w3.org/2000/svg" viewBox="0 0 16.03 18.59" x="0px" y="0px" width="16.03px" height="18.59px">
    <defs>
        <style>.cls-1{fill:#dadde0;stroke:#404548;stroke-linecap:round;stroke-linejoin:round;stroke-width:0.5px;}</style>
    </defs>
    <g id="Layer_2">
        <g>
            <path class="cls-1" d="M-.28,2.07h14.9a2.43,2.43,0,0,1,2.43,2.43v9.58a2.43,2.43,0,0,1-2.43,2.43H-.28A.76.76,0,0,1-1,15.76V2.83a.76.76,0,0,1,.76-.76Z" transform="translate(-1.28 17.31) rotate(-90)"/>
            <path class="cls-1" d="M1.84,2.68V13.39a.76.76,0,0,1-.75.75H1a.76.76,0,0,1-.76-.75V2.68A2.43,2.43,0,0,1,2.68.25,4.45,4.45,0,0,0,1.84,2.68Z"/>
            <path class="cls-1" d="M14.18,2.68V13.39a.76.76,0,0,0,.76.75H15a.76.76,0,0,0,.76-.75V2.68A2.44,2.44,0,0,0,13.34.25,4.45,4.45,0,0,1,14.18,2.68Z"/>
            <path class="cls-1" d="M15.78,2.64V2.59A2.4,2.4,0,0,1,13.34,5H2.68A2.39,2.39,0,0,1,.25,2.59v.05A2.4,2.4,0,0,1,2.68.25H13.34A2.41,2.41,0,0,1,15.78,2.64Z"/>
        </g>
    </g>
</svg></g>
<g transform="translate(70, 144)"><svg xmlns="http://www.w3.org/2000/svg" viewBox="0 0 16.03 18.59" x="0px" y="0px" width="16.03px" height="18.59px">
    <defs>
        <style>.cls-1{fill:#dadde0;stroke:#404548;stroke-linecap:round;stroke-linejoin:round;stroke-width:0.5px;}</style>
    </defs>
    <g id="Layer_2">
        <g>
            <path class="cls-1" d="M-.28,2.07h14.9a2.43,2.43,0,0,1,2.43,2.43v9.58a2.43,2.43,0,0,1-2.43,2.43H-.28A.76.76,0,0,1-1,15.76V2.83a.76.76,0,0,1,.76-.76Z" transform="translate(-1.28 17.31) rotate(-90)"/>
            <path class="cls-1" d="M1.84,2.68V13.39a.76.76,0,0,1-.75.75H1a.76.76,0,0,1-.76-.75V2.68A2.43,2.43,0,0,1,2.68.25,4.45,4.45,0,0,0,1.84,2.68Z"/>
            <path class="cls-1" d="M14.18,2.68V13.39a.76.76,0,0,0,.76.75H15a.76.76,0,0,0,.76-.75V2.68A2.44,2.44,0,0,0,13.34.25,4.45,4.45,0,0,1,14.18,2.68Z"/>
            <path class="cls-1" d="M15.78,2.64V2.59A2.4,2.4,0,0,1,13.34,5H2.68A2.39,2.39,0,0,1,.25,2.59v.05A2.4,2.4,0,0,1,2.68.25H13.34A2.41,2.41,0,0,1,15.78,2.64Z"/>
        </g>
    </g>
</svg></g>
<g transform="translate(6, 108)"><svg xmlns="http://www.w3.org/2000/svg" viewBox="0 0 16.03 18.59" x="0px" y="0px" width="16.03px" height="18.59px">
    <defs>
        <style>.cls-1{fill:#dadde0;stroke:#404548;stroke-linecap:round;stroke-linejoin:round;stroke-width:0.5px;}</style>
    </defs>
    <g id="Layer_2">
        <g>
            <path class="cls-1" d="M-.28,2.07h14.9a2.43,2.43,0,0,1,2.43,2.43v9.58a2.43,2.43,0,0,1-2.43,2.43H-.28A.76.76,0,0,1-1,15.76V2.83a.76.76,0,0,1,.76-.76Z" transform="translate(-1.28 17.31) rotate(-90)"/>
            <path class="cls-1" d="M1.84,2.68V13.39a.76.76,0,0,1-.75.75H1a.76.76,0,0,1-.76-.75V2.68A2.43,2.43,0,0,1,2.68.25,4.45,4.45,0,0,0,1.84,2.68Z"/>
            <path class="cls-1" d="M14.18,2.68V13.39a.76.76,0,0,0,.76.75H15a.76.76,0,0,0,.76-.75V2.68A2.44,2.44,0,0,0,13.34.25,4.45,4.45,0,0,1,14.18,2.68Z"/>
            <path class="cls-1" d="M15.78,2.64V2.59A2.4,2.4,0,0,1,13.34,5H2.68A2.39,2.39,0,0,1,.25,2.59v.05A2.4,2.4,0,0,1,2.68.25H13.34A2.41,2.41,0,0,1,15.78,2.64Z"/>
        </g>
    </g>
</svg></g>
<g transform="translate(22, 108)"><svg xmlns="http://www.w3.org/2000/svg" viewBox="0 0 16.03 18.59" x="0px" y="0px" width="16.03px" height="18.59px">
    <defs>
        <style>.cls-1{fill:#dadde0;stroke:#404548;stroke-linecap:round;stroke-linejoin:round;stroke-width:0.5px;}</style>
    </defs>
    <g id="Layer_2">
        <g>
            <path class="cls-1" d="M-.28,2.07h14.9a2.43,2.43,0,0,1,2.43,2.43v9.58a2.43,2.43,0,0,1-2.43,2.43H-.28A.76.76,0,0,1-1,15.76V2.83a.76.76,0,0,1,.76-.76Z" transform="translate(-1.28 17.31) rotate(-90)"/>
            <path class="cls-1" d="M1.84,2.68V13.39a.76.76,0,0,1-.75.75H1a.76.76,0,0,1-.76-.75V2.68A2.43,2.43,0,0,1,2.68.25,4.45,4.45,0,0,0,1.84,2.68Z"/>
            <path class="cls-1" d="M14.18,2.68V13.39a.76.76,0,0,0,.76.75H15a.76.76,0,0,0,.76-.75V2.68A2.44,2.44,0,0,0,13.34.25,4.45,4.45,0,0,1,14.18,2.68Z"/>
            <path class="cls-1" d="M15.78,2.64V2.59A2.4,2.4,0,0,1,13.34,5H2.68A2.39,2.39,0,0,1,.25,2.59v.05A2.4,2.4,0,0,1,2.68.25H13.34A2.41,2.41,0,0,1,15.78,2.64Z"/>
        </g>
    </g>
</svg></g>
<g transform="translate(76, 26)"><svg version="1.1" id="Layer_1" xmlns="http://www.w3.org/2000/svg" xmlns:xlink="http://www.w3.org/1999/xlink" x="0px" y="0px" width="12px" height="26px"
	 viewBox="0 0 16 35" style="enable-background:new 0 0 16 35;" xml:space="preserve">
<style type="text/css">
	.st131415{fill-rule:evenodd;clip-rule:evenodd;fill:#67A03F;}
	.st141516{fill:#FFFFFF;}
</style>
<rect x="0" y="0" class="st131415" width="16" height="35"/>
<g>
	<path class="st141516" d="M8.5,23.9v3.5h2.6v-4.1h1.2v5.6H3.7v-5.5h1.2v4.1h2.4v-3.5H8.5z"/>
	<path class="st141516" d="M6.8,19.2l-3.1-1.8v-1.7L8,18.3l4.3-2.6v1.7l-3.1,1.8l3.1,1.8v1.7L8,20.1l-4.2,2.6V21L6.8,19.2z"/>
	<path class="st141516" d="M12.3,13v1.5H3.7V13H12.3z"/>
	<path class="st141516" d="M4.9,5.1v2.7h7.3v1.5H4.9v2.6H3.7V5.1H4.9z"/>
</g>
</svg></g>
<g transform="translate(60, 662)"><svg xmlns="http://www.w3.org/2000/svg" x="0px" y="0px" width="13.41px" height="10.41px" viewBox="0 0 13.41 10.41">
    <defs>
        <style>.cls-1{fill:none;stroke:#404548;stroke-linecap:round;stroke-linejoin:round;stroke-width:0.71px;}</style>
    </defs>
    <g id="Layer_2" data-name="Layer 2">
        <g id="Interiör">
            <polyline class="cls-1" points="0.36 0.36 1.94 9.35 3.95 1.03 5.96 9.35 7.54 0.36"/>
            <path class="cls-1" d="M13.06,2.1C11.91.26,8.63.16,8.63,5.75s3.65,4.79,4.43,2.87"/>
        </g>
    </g>
</svg></g>
<g transform="translate(16, 60)"><svg xmlns="http://www.w3.org/2000/svg" x="0px" y="0px" width="13.41px" height="10.41px" viewBox="0 0 13.41 10.41">
    <defs>
        <style>.cls-1{fill:none;stroke:#404548;stroke-linecap:round;stroke-linejoin:round;stroke-width:0.71px;}</style>
    </defs>
    <g id="Layer_2" data-name="Layer 2">
        <g id="Interiör">
            <polyline class="cls-1" points="0.36 0.36 1.94 9.35 3.95 1.03 5.96 9.35 7.54 0.36"/>
            <path class="cls-1" d="M13.06,2.1C11.91.26,8.63.16,8.63,5.75s3.65,4.79,4.43,2.87"/>
        </g>
    </g>
</svg></g>
<g transform="translate(60, 448)"><svg version="1.1" xmlns="http://www.w3.org/2000/svg" xmlns:xlink="http://www.w3.org/1999/xlink" x="0px" y="0px" width="16px" height="16px"
	 viewBox="0 0 24 24" enable-background="new 0 0 24 24" xml:space="preserve">
<g id="Layer_1">
	<g>
		<path fill="#4D4F53" d="M18.6,8h-0.2l-1.1-5H6.6L5.6,8H5.4C5,8,4.7,8.2,4.7,8.5C4.7,8.8,5,9,5.4,9h13.2c0.4,0,0.7-0.2,0.7-0.5
			C19.3,8.2,19,8,18.6,8z M11,7H9C8.2,7,8,6.7,8,6c0-0.7,0.2-1,1-1h2c0.8,0,1,0.3,1,1C12,6.7,11.8,7,11,7z M7.3,21h9.5l1.4-11H5.8
			L7.3,21z"/>
	</g>
</g>
<g id="guides" display="none">
</g>
</svg></g>
<g transform="translate(4, 26)"><svg version="1.1" id="Layer_1" xmlns="http://www.w3.org/2000/svg" xmlns:xlink="http://www.w3.org/1999/xlink" x="0px" y="0px" width="12px" height="26px"
	 viewBox="0 0 16 35" style="enable-background:new 0 0 16 35;" xml:space="preserve">
<style type="text/css">
	.st131415{fill-rule:evenodd;clip-rule:evenodd;fill:#67A03F;}
	.st141516{fill:#FFFFFF;}
</style>
<rect x="0" y="0" class="st131415" width="16" height="35"/>
<g>
	<path class="st141516" d="M7.5,11.1V7.6H4.9v4.1H3.7V6.1h8.5v5.5h-1.2V7.6H8.7v3.5H7.5z"/>
	<path class="st141516" d="M9.2,15.8l3.1,1.8v1.7L8,16.7l-4.3,2.6v-1.7l3.1-1.8L3.7,14v-1.7L8,14.9l4.2-2.6V14L9.2,15.8z"/>
	<path class="st141516" d="M3.7,22v-1.5h8.5V22H3.7z"/>
	<path class="st141516" d="M11.1,29.9v-2.7H3.7v-1.5h7.3v-2.6h1.2v6.8H11.1z"/>
</g>
</svg></g>
<g transform="translate(4, 687)"><svg version="1.1" id="Layer_1" xmlns="http://www.w3.org/2000/svg" xmlns:xlink="http://www.w3.org/1999/xlink" x="0px" y="0px" width="12px" height="26px"
	 viewBox="0 0 16 35" style="enable-background:new 0 0 16 35;" xml:space="preserve">
<style type="text/css">
	.st131415{fill-rule:evenodd;clip-rule:evenodd;fill:#67A03F;}
	.st141516{fill:#FFFFFF;}
</style>
<rect x="0" y="0" class="st131415" width="16" height="35"/>
<g>
	<path class="st141516" d="M7.5,11.1V7.6H4.9v4.1H3.7V6.1h8.5v5.5h-1.2V7.6H8.7v3.5H7.5z"/>
	<path class="st141516" d="M9.2,15.8l3.1,1.8v1.7L8,16.7l-4.3,2.6v-1.7l3.1-1.8L3.7,14v-1.7L8,14.9l4.2-2.6V14L9.2,15.8z"/>
	<path class="st141516" d="M3.7,22v-1.5h8.5V22H3.7z"/>
	<path class="st141516" d="M11.1,29.9v-2.7H3.7v-1.5h7.3v-2.6h1.2v6.8H11.1z"/>
</g>
</svg></g>
<g transform="translate(76, 687)"><svg version="1.1" id="Layer_1" xmlns="http://www.w3.org/2000/svg" xmlns:xlink="http://www.w3.org/1999/xlink" x="0px" y="0px" width="12px" height="26px"
	 viewBox="0 0 16 35" style="enable-background:new 0 0 16 35;" xml:space="preserve">
<style type="text/css">
	.st131415{fill-rule:evenodd;clip-rule:evenodd;fill:#67A03F;}
	.st141516{fill:#FFFFFF;}
</style>
<rect x="0" y="0" class="st131415" width="16" height="35"/>
<g>
	<path class="st141516" d="M8.5,23.9v3.5h2.6v-4.1h1.2v5.6H3.7v-5.5h1.2v4.1h2.4v-3.5H8.5z"/>
	<path class="st141516" d="M6.8,19.2l-3.1-1.8v-1.7L8,18.3l4.3-2.6v1.7l-3.1,1.8l3.1,1.8v1.7L8,20.1l-4.2,2.6V21L6.8,19.2z"/>
	<path class="st141516" d="M12.3,13v1.5H3.7V13H12.3z"/>
	<path class="st141516" d="M4.9,5.1v2.7h7.3v1.5H4.9v2.6H3.7V5.1H4.9z"/>
</g>
</svg></g>
<text x="62.015" y="632.295" text-anchor="middle" font-size="8">3</text>
<text x="78.015" y="632.295" text-anchor="middle" font-size="8">4</text>
<text x="14.015" y="596.295" text-anchor="middle" font-size="8">5</text>
<text x="30.015" y="596.295" text-anchor="middle" font-size="8">6</text>
<text x="62.015" y="596.295" text-anchor="middle" font-size="8">7</text>
<text x="78.015" y="596.295" text-anchor="middle" font-size="8">8</text>
<text x="14.015" y="558.295" text-anchor="middle" font-size="8">9</text>
<text x="30.015" y="558.295" text-anchor="middle" font-size="8">10</text>
<text x="62.015" y="558.295" text-anchor="middle" font-size="8">11</text>
<text x="78.015" y="558.295" text-anchor="middle" font-size="8">12</text>
<text x="14.015" y="522.295" text-anchor="middle" font-size="8">13</text>
<text x="30.015" y="522.295" text-anchor="middle" font-size="8">14</text>
<text x="62.015" y="522.295" text-anchor="middle" font-size="8">15</text>
<text x="78.015" y="522.295" text-anchor="middle" font-size="8">16</text>
<text x="14.015" y="488.295" text-anchor="middle" font-size="8">17</text>
<text x="30.015" y="488.295" text-anchor="middle" font-size="8">18</text>
<text x="62.015" y="488.295" text-anchor="middle" font-size="8">19</text>
<text x="78.015" y="488.295" text-anchor="middle" font-size="8">20</text>
<text x="14.015" y="372.295" text-anchor="middle" font-size="8">21</text>
<text x="30.015" y="372.295" text-anchor="middle" font-size="8">22</text>
<text x="62.015" y="372.295" text-anchor="middle" font-size="8">23</text>
<text x="78.015" y="372.295" text-anchor="middle" font-size="8">24</text>
<text x="14.015" y="336.295" text-anchor="middle" font-size="8">25</text>
<text x="30.015" y="336.295" text-anchor="middle" font-size="8">26</text>
<text x="62.015" y="336.295" text-anchor="middle" font-size="8">27</text>
<text x="78.015" y="336.295" text-anchor="middle" font-size="8">28</text>
<text x="14.015" y="300.295" text-anchor="middle" font-size="8">29</text>
<text x="30.015" y="300.295" text-anchor="middle" font-size="8">30</text>
<text x="62.015" y="300.295" text-anchor="middle" font-size="8">31</text>
<text x="78.015" y="300.295" text-anchor="middle" font-size="8">32</text>
<text x="14.015" y="264.295" text-anchor="middle" font-size="8">33</text>
<text x="30.015" y="264.295" text-anchor="middle" font-size="8">34</text>
<text x="62.015" y="264.295" text-anchor="middle" font-size="8">35</text>
<text x="78.015" y="264.295" text-anchor="middle" font-size="8">36</text>
<text x="14.015" y="228.295" text-anchor="middle" font-size="8">37</text>
<text x="30.015" y="228.295" text-anchor="middle" font-size="8">38</text>
<text x="62.015" y="228.295" text-anchor="middle" font-size="8">39</text>
<text x="78.015" y="228.295" text-anchor="middle" font-size="8">40</text>
<text x="14.015" y="192.295" text-anchor="middle" font-size="8">41</text>
<text x="30.015" y="192.295" text-anchor="middle" font-size="8">42</text>
<text x="62.015" y="192.295" text-anchor="middle" font-size="8">43</text>
<text x="78.015" y="192.295" text-anchor="middle" font-size="8">44</text>
<text x="14.015" y="156.295" text-anchor="middle" font-size="8">45</text>
<text x="30.015" y="156.295" text-anchor="middle" font-size="8">46</text>
<text x="62.015" y="156.295" text-anchor="middle" font-size="8">47</text>
<text x="78.015" y="156.295" text-anchor="middle" font-size="8">48</text>
<text x="14.015" y="120.295" text-anchor="middle" font-size="8">49</text>
<text x="30.015" y="120.295" text-anchor="middle" font-size="8">50</text>
</svg>
