<svg xmlns="http://www.w3.org/2000/svg" xmlns:xlink="http://www.w3.org/1999/xlink" width="92" height="781" viewBox="0 0 92 781">
<svg xmlns="http://www.w3.org/2000/svg" width="92" height="781" fill="none" viewBox="0 0 92 781"><path fill="#F5F5F5" stroke="#33867E" stroke-width="3" d="M82.17 779.5h-72a7.5 7.5 0 0 1-7.5-7.5V99.045c.003-13.378.087-37.967 5.199-59.19 2.556-10.615 6.34-20.248 11.891-27.2C25.267 5.757 32.502 1.5 42.146 1.5h8.44c9.737 0 16.989 4.256 22.47 11.142 5.526 6.943 9.247 16.566 11.729 27.175 4.858 20.764 4.854 44.758 4.851 58.358v.87c0 41.794.03 596.678.033 673.222 0 4.084-3.298 7.233-7.5 7.233Z"/><path fill="#EBEBEC" d="M4.203 129.336v6.152h29.158a1.998 1.998 0 0 0 1.997-2v-2.622h21.805v2.622c0 1.105.893 2 1.998 2h28.983v-6.986c-.001-39.183.53-56.057-1.782-73.504H6.239c-2.504 17.934-2.035 35.026-2.035 74.338Z"/><path stroke="#000" stroke-opacity=".2" stroke-width=".6" d="M33.36 135.188H4.504v-5.852c0-5.771-.01-11.062-.02-15.947-.053-28.245-.08-42.904 2.017-58.091h79.6c1.877 14.34 1.841 28.367 1.773 54.88-.014 5.527-.03 11.596-.03 18.324v6.686H59.161c-.939 0-1.698-.76-1.698-1.7V130.566H35.058V133.488c0 .94-.759 1.7-1.697 1.7Z"/><path fill="#33867E" d="M41.738 1.47h8.05c30.202 0 36.577 41.193 37.602 52.072l1.84 18.807v18.692H70.872a2 2 0 0 1-1.987-1.772L66.45 67.96a12 12 0 0 0-11.923-10.637H39.361A12 12 0 0 0 27.439 67.96l-2.437 21.309a2 2 0 0 1-1.987 1.772H3.621s.031-22.482.849-31.173C5.288 51.177 10.6 1.469 41.738 1.469Z"/><path stroke="#888B8E" d="M35.477 776.952h21.859"/><mask id="bg-a" fill="#fff"><path d="M91.169 736.197h-4.247v18.564h4.247v-18.564Z"/></mask><path fill="#F5F5F5" d="M91.169 736.197h-4.247v18.564h4.247v-18.564Z"/><path fill="#99C3BF" d="M90.169 754.761v-18.564h2v18.564h-2Z" mask="url(#bg-a)"/><mask id="bg-b" fill="#fff"><path d="M91.169 685.246h-4.247v36.252h4.247v-36.252Z"/></mask><path fill="#F5F5F5" d="M91.169 685.246h-4.247v36.252h4.247v-36.252Z"/><path fill="#99C3BF" d="M90.169 721.498v-36.252h2v36.252h-2Z" mask="url(#bg-b)"/><mask id="bg-c" fill="#fff"><path d="M1.17 736.197h4.246v18.564H1.17v-18.564Z"/></mask><path fill="#F5F5F5" d="M1.17 736.197h4.246v18.564H1.17v-18.564Z"/><path fill="#99C3BF" d="M2.17 754.761v-18.564h-2v18.564h2Z" mask="url(#bg-c)"/><mask id="bg-d" fill="#fff"><path d="M1.17 685.246h4.246v36.252H1.17v-36.252Z"/></mask><path fill="#F5F5F5" d="M1.17 685.246h4.246v36.252H1.17v-36.252Z"/><path fill="#99C3BF" d="M2.17 721.498v-36.252h-2v36.252h2Z" mask="url(#bg-d)"/><mask id="bg-e" fill="#fff"><path d="M1.17 634.294h4.246v36.253H1.17v-36.253Z"/></mask><path fill="#F5F5F5" d="M1.17 634.294h4.246v36.253H1.17v-36.253Z"/><path fill="#99C3BF" d="M2.17 670.547v-36.253h-2v36.253h2Z" mask="url(#bg-e)"/><mask id="bg-f" fill="#fff"><path d="M1.17 477.284h4.246v36.252H1.17v-36.252Z"/></mask><path fill="#F5F5F5" d="M1.17 477.284h4.246v36.252H1.17v-36.252Z"/><path fill="#99C3BF" d="M2.17 513.536v-36.252h-2v36.252h2Z" mask="url(#bg-f)"/><mask id="bg-g" fill="#fff"><path d="M1.17 425.788h4.246v36.253H1.17v-36.253Z"/></mask><path fill="#F5F5F5" d="M1.17 425.788h4.246v36.253H1.17v-36.253Z"/><path fill="#99C3BF" d="M2.17 462.041v-36.253h-2v36.253h2Z" mask="url(#bg-g)"/><mask id="bg-h" fill="#fff"><path d="M1.17 371.883h4.246v36.252H1.17v-36.252Z"/></mask><path fill="#F5F5F5" d="M1.17 371.883h4.246v36.252H1.17v-36.252Z"/><path fill="#99C3BF" d="M2.17 408.135v-36.252h-2v36.252h2Z" mask="url(#bg-h)"/><mask id="bg-i" fill="#fff"><path d="M1.17 321.101h4.246v36.253H1.17v-36.253Z"/></mask><path fill="#F5F5F5" d="M1.17 321.101h4.246v36.253H1.17v-36.253Z"/><path fill="#99C3BF" d="M2.17 357.354v-36.253h-2v36.253h2Z" mask="url(#bg-i)"/><mask id="bg-j" fill="#fff"><path d="M1.17 233.054h4.246v41.114H1.17v-41.114Z"/></mask><path fill="#F5F5F5" d="M1.17 233.054h4.246v41.114H1.17v-41.114Z"/><path fill="#99C3BF" d="M2.17 274.168v-41.114h-2v41.114h2Z" mask="url(#bg-j)"/><mask id="bg-k" fill="#fff"><path d="M91.169 477.284h-4.247v36.252h4.247v-36.252Z"/></mask><path fill="#F5F5F5" d="M91.169 477.284h-4.247v36.252h4.247v-36.252Z"/><path fill="#99C3BF" d="M90.169 513.536v-36.252h2v36.252h-2Z" mask="url(#bg-k)"/><mask id="bg-l" fill="#fff"><path d="M91.169 425.788h-4.247v36.253h4.247v-36.253Z"/></mask><path fill="#F5F5F5" d="M91.169 425.788h-4.247v36.253h4.247v-36.253Z"/><path fill="#99C3BF" d="M90.169 462.041v-36.253h2v36.253h-2Z" mask="url(#bg-l)"/><mask id="bg-m" fill="#fff"><path d="M91.169 371.883h-4.247v36.252h4.247v-36.252Z"/></mask><path fill="#F5F5F5" d="M91.169 371.883h-4.247v36.252h4.247v-36.252Z"/><path fill="#99C3BF" d="M90.169 408.135v-36.252h2v36.252h-2Z" mask="url(#bg-m)"/><mask id="bg-n" fill="#fff"><path d="M91.169 321.101h-4.247v36.253h4.247v-36.253Z"/></mask><path fill="#F5F5F5" d="M91.169 321.101h-4.247v36.253h4.247v-36.253Z"/><path fill="#99C3BF" d="M90.169 357.354v-36.253h2v36.253h-2Z" mask="url(#bg-n)"/><mask id="bg-o" fill="#fff"><path d="M91.169 233.054h-4.247v41.114h4.247v-41.114Z"/></mask><path fill="#F5F5F5" d="M91.169 233.054h-4.247v41.114h4.247v-41.114Z"/><path fill="#99C3BF" d="M90.169 274.168v-41.114h2v41.114h-2Z" mask="url(#bg-o)"/><mask id="bg-p" fill="#fff"><path d="M0 563.051h89.848v28.023H0v-28.023Z"/></mask><path fill="#F5F5F5" d="M0 563.051h89.848v28.023H0v-28.023Z"/><path fill="#2B2B2C" d="M1 591.074v-28.023h-2v28.023h2Z" mask="url(#bg-p)"/><mask id="bg-q" fill="#fff"><path d="M92 591.074h-4.997v-28.023H92v28.023Z"/></mask><path fill="#F5F5F5" d="M92 591.074h-4.997v-28.023H92v28.023Z"/><path fill="#2B2B2C" d="M91 563.051v28.023h2v-28.023h-2Z" mask="url(#bg-q)"/><path fill="#EBEBEC" d="M33.79 675.621v-48.342a2 2 0 0 1 2-2h37.82v-28.853a2 2 0 0 1 2-2h12.56v83.195H35.79a2 2 0 0 1-2-2Z"/><path stroke="#000" stroke-opacity=".2" stroke-width=".6" d="M35.79 677.321h52.08v-82.595H75.61a1.7 1.7 0 0 0-1.7 1.7V625.579H35.79a1.7 1.7 0 0 0-1.7 1.7v48.342a1.7 1.7 0 0 0 1.7 1.7Z"/><path stroke="#888B8E" stroke-linecap="round" d="M7.607 678.01h21.408"/><path fill="#EBEBEC" d="M4.17 594.426h13.382a2 2 0 0 1 2 2v11.172a2 2 0 0 1-2 2H4.169v-15.172Z"/><path stroke="#000" stroke-opacity=".2" stroke-width=".6" d="M4.47 594.726h13.082a1.7 1.7 0 0 1 1.7 1.7v11.172a1.7 1.7 0 0 1-1.7 1.7H4.469v-14.572Z"/><path fill="#EBEBEC" d="M4.17 153.31h3.456a2 2 0 0 1 2 2v16.055a2 2 0 0 1-2 2H4.169V153.31Z"/><path stroke="#000" stroke-opacity=".2" stroke-width=".6" d="M4.47 153.61h3.156a1.7 1.7 0 0 1 1.7 1.7v16.055a1.7 1.7 0 0 1-1.7 1.7H4.469V153.61Z"/><path fill="#EBEBEC" d="M88.17 153.31h-3.457a2 2 0 0 0-2 2v16.055a2 2 0 0 0 2 2h3.456V153.31Z"/><path stroke="#000" stroke-opacity=".2" stroke-width=".6" d="M87.87 153.61h-3.157a1.7 1.7 0 0 0-1.7 1.7v16.055a1.7 1.7 0 0 0 1.7 1.7h3.156V153.61Z"/><path fill="#EBEBEC" d="M4.17 517.457h11.759a2 2 0 0 1 2 2v18.342h11.759a2 2 0 0 1 2 2v17.35a2 2 0 0 1-2 2h-9.831a.99.99 0 0 0-.99.99.99.99 0 0 1-.99.99H4.169v-43.672Z"/><path stroke="#000" stroke-opacity=".2" stroke-width=".6" d="M17.877 560.829H4.469v-43.072h11.46a1.7 1.7 0 0 1 1.7 1.7v18.642H29.688a1.7 1.7 0 0 1 1.7 1.7v17.35a1.7 1.7 0 0 1-1.7 1.7h-9.831a1.29 1.29 0 0 0-1.29 1.29.69.69 0 0 1-.69.69Z"/><path fill="#EBEBEC" d="M88.17 537.799H62.65a2 2 0 0 0-2 2v17.35a2 2 0 0 0 2 2h9.83a.99.99 0 0 1 .99.99c0 .547.444.99.991.99h13.707v-23.33Z"/><path stroke="#000" stroke-opacity=".2" stroke-width=".6" d="M87.87 538.099H62.65a1.7 1.7 0 0 0-1.7 1.7v17.35a1.7 1.7 0 0 0 1.7 1.7h9.83c.713 0 1.29.578 1.29 1.29 0 .381.31.69.691.69h13.407v-22.73Z"/><path stroke="#888B8E" stroke-linecap="round" d="M36.526 537.799h8M47.812 537.799h8"/><path fill="#EBEBEC" d="M25.655 481.68s-14.819-.392-21.486-.393v10.688c6.667-.002 21.486-.392 21.486-.392 4.905-.295 8.446-1.94 8.446-3.906v-2.092c0-1.966-3.54-3.612-8.446-3.905Z"/><path stroke="#000" stroke-linecap="round" stroke-opacity=".2" stroke-width=".6" d="M17.406 481.784c-4.405-.096-9.59-.191-12.937-.197v10.087c3.346-.006 8.532-.101 12.937-.196 2.269-.049 4.329-.098 5.822-.134l1.77-.045.482-.012.125-.003.032-.001h.005c2.426-.146 4.496-.626 5.95-1.299.727-.337 1.287-.716 1.66-1.114.373-.397.55-.798.55-1.193v-2.092c0-.395-.177-.796-.55-1.193-.373-.398-.933-.777-1.66-1.114-1.454-.674-3.524-1.153-5.95-1.299h-.005l-.032-.001-.125-.003-.482-.012-1.77-.045c-1.493-.036-3.553-.085-5.822-.134Z"/><path fill="#EBEBEC" d="M25.655 737.812s-14.819-.391-21.486-.392v10.688c6.667-.002 21.486-.393 21.486-.393 4.905-.294 8.446-1.939 8.446-3.905v-2.092c0-1.966-3.54-3.612-8.446-3.906Z"/><path stroke="#000" stroke-linecap="round" stroke-opacity=".2" stroke-width=".6" d="M17.406 737.916c-4.405-.095-9.59-.19-12.937-.196v10.087c3.346-.006 8.532-.101 12.937-.196 2.269-.049 4.329-.098 5.822-.134l1.77-.045.482-.012.125-.003.032-.001h.005c2.426-.146 4.496-.626 5.95-1.299.727-.337 1.287-.716 1.66-1.114.373-.397.55-.798.55-1.193v-2.092c0-.395-.177-.796-.55-1.193-.373-.398-.933-.777-1.66-1.114-1.454-.674-3.524-1.153-5.95-1.299h-.005l-.032-.001-.125-.003-.482-.012-1.77-.045c-1.493-.037-3.553-.086-5.822-.135Z"/><path fill="#EBEBEC" d="M66.683 737.812s14.82-.391 21.487-.392v10.688c-6.667-.002-21.487-.393-21.487-.393-4.904-.294-8.445-1.939-8.445-3.905v-2.092c0-1.966 3.54-3.612 8.445-3.906Z"/><path stroke="#000" stroke-linecap="round" stroke-opacity=".2" stroke-width=".6" d="M74.933 737.916c4.404-.095 9.59-.19 12.937-.196v10.087c-3.346-.006-8.532-.101-12.937-.196-2.269-.049-4.33-.098-5.822-.134l-1.77-.045-.482-.012-.125-.003-.032-.001h-.005c-2.426-.146-4.496-.626-5.95-1.299-.727-.337-1.287-.716-1.66-1.114-.373-.397-.55-.798-.55-1.193v-2.092c0-.395.177-.796.55-1.193.373-.398.933-.777 1.66-1.114 1.454-.674 3.524-1.153 5.95-1.299h.005l.032-.001.125-.003.482-.012 1.77-.045c1.493-.037 3.553-.086 5.822-.135Z"/><path fill="#EBEBEC" d="M4.17 267.62h8.105c.506 0 .994.192 1.364.538l4.578 4.27a2 2 0 0 1 .636 1.462v16.875a2 2 0 0 1-2 2H4.169V267.62Z"/><path stroke="#000" stroke-opacity=".2" stroke-width=".6" d="M18.553 273.89v16.875a1.7 1.7 0 0 1-1.7 1.7H4.469V267.92h7.806c.43 0 .845.163 1.16.457l4.577 4.27a1.7 1.7 0 0 1 .541 1.243Z"/><path fill="#EBEBEC" d="M4.17 231.944h8.084c.519 0 1.017-.201 1.39-.562l4.6-4.448a2 2 0 0 0 .609-1.438v-3.395H4.169v9.843Z"/><path stroke="#000" stroke-opacity=".2" stroke-width=".6" d="M18.553 225.496v-3.095H4.469v9.243h7.785c.441 0 .865-.171 1.182-.478l4.599-4.448c.331-.32.518-.761.518-1.222Z"/><path fill="#EBEBEC" d="M88.17 231.944h-8.085a1.998 1.998 0 0 1-1.39-.562l-4.6-4.448a2.001 2.001 0 0 1-.61-1.438v-3.395H88.17v9.843Z"/><path stroke="#000" stroke-opacity=".2" stroke-width=".6" d="M73.786 225.496v-3.095h14.083v9.243h-7.784c-.441 0-.865-.171-1.182-.478l-4.599-4.448a1.699 1.699 0 0 1-.518-1.222Z"/><path fill="#EBEBEC" d="M88.17 267.62h-8.106c-.506 0-.994.192-1.364.538l-4.578 4.27a2 2 0 0 0-.636 1.462v16.875a2 2 0 0 0 2 2h12.683V267.62Z"/><path stroke="#000" stroke-opacity=".2" stroke-width=".6" d="M73.786 273.89v16.875a1.7 1.7 0 0 0 1.7 1.7h12.383V267.92h-7.805c-.43 0-.845.163-1.16.457l-4.578 4.27a1.7 1.7 0 0 0-.54 1.243Z"/><path stroke="#888B8E" stroke-linecap="round" d="M39.17 223.349h14"/><path fill="#888B8E" d="M36.3 222.601a.5.5 0 0 0 0-1v1Zm-32.13 0H36.3v-1H4.17v1ZM56.04 221.601a.5.5 0 0 0 0 1v-1Zm0 1h32.13v-1H56.04v1Z"/><rect width="12" height="12.01" x="76.169" y="694.525" fill="#fff" stroke="#888B8E" stroke-dasharray="1.2 1.2" stroke-linecap="round" stroke-width=".6" rx="2"/><rect width="12" height="12.01" x="76.169" y="680.61" fill="#fff" stroke="#888B8E" stroke-dasharray="1.2 1.2" stroke-linecap="round" stroke-width=".6" rx="2"/><rect width="12" height="12.01" x="76.169" y="493.578" fill="#fff" stroke="#888B8E" stroke-dasharray="1.2 1.2" stroke-linecap="round" stroke-width=".6" rx="2"/></svg>
<g transform="translate(6, 750)"><svg width="16" height="22" viewBox="0 0 16 22" fill="none" xmlns="http://www.w3.org/2000/svg">
<path d="M0.713452 17.5374C0.713452 18.4762 1.47457 19.2374 2.41345 19.2374H13.5135C14.4523 19.2374 15.2135 18.4762 15.2135 17.5374V5.03735C15.2135 4.09847 14.4523 3.33735 13.5135 3.33735H2.41345C1.47457 3.33735 0.713452 4.09847 0.713452 5.03735V17.5374Z" fill="white" stroke="#2B2B2C" stroke-width="0.6"/>
<path d="M13.6819 19.0063C13.6819 17.9294 12.8086 17.0564 11.7317 17.0564L4.19515 17.0563C3.11817 17.0563 2.24495 17.9294 2.24495 19.0063C2.24495 20.0833 3.11799 20.9563 4.19494 20.9563L11.7319 20.9563C12.8088 20.9563 13.6819 20.0833 13.6819 19.0063Z" fill="white" stroke="#2B2B2C" stroke-width="0.6"/>
<path d="M0.413452 14.3323L1.21345 14.3323C1.76574 14.3323 2.21345 14.78 2.21345 15.3323L2.21345 19.345" stroke="#2B2B2C" stroke-width="0.6"/>
<path d="M15.5134 14.3323L14.7134 14.3323C14.1611 14.3323 13.7134 14.78 13.7134 15.3323L13.7134 19.345" stroke="#2B2B2C" stroke-width="0.6"/>
</svg></g>
<g transform="translate(22, 750)"><svg width="16" height="22" viewBox="0 0 16 22" fill="none" xmlns="http://www.w3.org/2000/svg">
<path d="M0.713452 17.5374C0.713452 18.4762 1.47457 19.2374 2.41345 19.2374H13.5135C14.4523 19.2374 15.2135 18.4762 15.2135 17.5374V5.03735C15.2135 4.09847 14.4523 3.33735 13.5135 3.33735H2.41345C1.47457 3.33735 0.713452 4.09847 0.713452 5.03735V17.5374Z" fill="white" stroke="#2B2B2C" stroke-width="0.6"/>
<path d="M13.6819 19.0063C13.6819 17.9294 12.8086 17.0564 11.7317 17.0564L4.19515 17.0563C3.11817 17.0563 2.24495 17.9294 2.24495 19.0063C2.24495 20.0833 3.11799 20.9563 4.19494 20.9563L11.7319 20.9563C12.8088 20.9563 13.6819 20.0833 13.6819 19.0063Z" fill="white" stroke="#2B2B2C" stroke-width="0.6"/>
<path d="M0.413452 14.3323L1.21345 14.3323C1.76574 14.3323 2.21345 14.78 2.21345 15.3323L2.21345 19.345" stroke="#2B2B2C" stroke-width="0.6"/>
<path d="M15.5134 14.3323L14.7134 14.3323C14.1611 14.3323 13.7134 14.78 13.7134 15.3323L13.7134 19.345" stroke="#2B2B2C" stroke-width="0.6"/>
</svg></g>
<g transform="translate(55, 750)"><svg width="16" height="22" viewBox="0 0 16 22" fill="none" xmlns="http://www.w3.org/2000/svg">
<path d="M0.713452 17.5374C0.713452 18.4762 1.47457 19.2374 2.41345 19.2374H13.5135C14.4523 19.2374 15.2135 18.4762 15.2135 17.5374V5.03735C15.2135 4.09847 14.4523 3.33735 13.5135 3.33735H2.41345C1.47457 3.33735 0.713452 4.09847 0.713452 5.03735V17.5374Z" fill="white" stroke="#2B2B2C" stroke-width="0.6"/>
<path d="M13.6819 19.0063C13.6819 17.9294 12.8086 17.0564 11.7317 17.0564L4.19515 17.0563C3.11817 17.0563 2.24495 17.9294 2.24495 19.0063C2.24495 20.0833 3.11799 20.9563 4.19494 20.9563L11.7319 20.9563C12.8088 20.9563 13.6819 20.0833 13.6819 19.0063Z" fill="white" stroke="#2B2B2C" stroke-width="0.6"/>
<path d="M0.413452 14.3323L1.21345 14.3323C1.76574 14.3323 2.21345 14.78 2.21345 15.3323L2.21345 19.345" stroke="#2B2B2C" stroke-width="0.6"/>
<path d="M15.5134 14.3323L14.7134 14.3323C14.1611 14.3323 13.7134 14.78 13.7134 15.3323L13.7134 19.345" stroke="#2B2B2C" stroke-width="0.6"/>
</svg></g>
<g transform="translate(71, 750)"><svg width="16" height="22" viewBox="0 0 16 22" fill="none" xmlns="http://www.w3.org/2000/svg">
<path d="M0.713452 17.5374C0.713452 18.4762 1.47457 19.2374 2.41345 19.2374H13.5135C14.4523 19.2374 15.2135 18.4762 15.2135 17.5374V5.03735C15.2135 4.09847 14.4523 3.33735 13.5135 3.33735H2.41345C1.47457 3.33735 0.713452 4.09847 0.713452 5.03735V17.5374Z" fill="white" stroke="#2B2B2C" stroke-width="0.6"/>
<path d="M13.6819 19.0063C13.6819 17.9294 12.8086 17.0564 11.7317 17.0564L4.19515 17.0563C3.11817 17.0563 2.24495 17.9294 2.24495 19.0063C2.24495 20.0833 3.11799 20.9563 4.19494 20.9563L11.7319 20.9563C12.8088 20.9563 13.6819 20.0833 13.6819 19.0063Z" fill="white" stroke="#2B2B2C" stroke-width="0.6"/>
<path d="M0.413452 14.3323L1.21345 14.3323C1.76574 14.3323 2.21345 14.78 2.21345 15.3323L2.21345 19.345" stroke="#2B2B2C" stroke-width="0.6"/>
<path d="M15.5134 14.3323L14.7134 14.3323C14.1611 14.3323 13.7134 14.78 13.7134 15.3323L13.7134 19.345" stroke="#2B2B2C" stroke-width="0.6"/>
</svg></g>
<g transform="translate(6, 712)"><svg width="16" height="22" viewBox="0 0 16 22" fill="none" xmlns="http://www.w3.org/2000/svg">
<path d="M0.713452 4.48401C0.713452 3.54512 1.47457 2.78401 2.41345 2.78401H13.5135C14.4523 2.78401 15.2135 3.54512 15.2135 4.48401V16.984C15.2135 17.9229 14.4523 18.684 13.5135 18.684H2.41345C1.47457 18.684 0.713452 17.9229 0.713452 16.984V4.48401Z" fill="white" stroke="#2B2B2C" stroke-width="0.6"/>
<path d="M13.6819 3.01502C13.6819 4.09192 12.8087 4.965 11.7317 4.965L4.19521 4.96502C3.11823 4.96502 2.24501 4.09194 2.24501 3.01503C2.24501 1.93808 3.11805 1.06504 4.195 1.06504L11.732 1.06504C12.8089 1.06504 13.6819 1.93808 13.6819 3.01502Z" fill="white" stroke="#2B2B2C" stroke-width="0.6"/>
<path d="M0.413452 7.68909L1.21345 7.68909C1.76574 7.68909 2.21345 7.24137 2.21345 6.68909L2.21345 2.67639" stroke="#2B2B2C" stroke-width="0.6"/>
<path d="M15.5134 7.68909L14.7134 7.68909C14.1611 7.68909 13.7134 7.24137 13.7134 6.68909L13.7134 2.67639" stroke="#2B2B2C" stroke-width="0.6"/>
</svg></g>
<g transform="translate(22, 712)"><svg width="16" height="22" viewBox="0 0 16 22" fill="none" xmlns="http://www.w3.org/2000/svg">
<path d="M0.713452 4.48401C0.713452 3.54512 1.47457 2.78401 2.41345 2.78401H13.5135C14.4523 2.78401 15.2135 3.54512 15.2135 4.48401V16.984C15.2135 17.9229 14.4523 18.684 13.5135 18.684H2.41345C1.47457 18.684 0.713452 17.9229 0.713452 16.984V4.48401Z" fill="white" stroke="#2B2B2C" stroke-width="0.6"/>
<path d="M13.6819 3.01502C13.6819 4.09192 12.8087 4.965 11.7317 4.965L4.19521 4.96502C3.11823 4.96502 2.24501 4.09194 2.24501 3.01503C2.24501 1.93808 3.11805 1.06504 4.195 1.06504L11.732 1.06504C12.8089 1.06504 13.6819 1.93808 13.6819 3.01502Z" fill="white" stroke="#2B2B2C" stroke-width="0.6"/>
<path d="M0.413452 7.68909L1.21345 7.68909C1.76574 7.68909 2.21345 7.24137 2.21345 6.68909L2.21345 2.67639" stroke="#2B2B2C" stroke-width="0.6"/>
<path d="M15.5134 7.68909L14.7134 7.68909C14.1611 7.68909 13.7134 7.24137 13.7134 6.68909L13.7134 2.67639" stroke="#2B2B2C" stroke-width="0.6"/>
</svg></g>
<g transform="translate(55, 712)"><svg width="16" height="22" viewBox="0 0 16 22" fill="none" xmlns="http://www.w3.org/2000/svg">
<path d="M0.713452 4.48401C0.713452 3.54512 1.47457 2.78401 2.41345 2.78401H13.5135C14.4523 2.78401 15.2135 3.54512 15.2135 4.48401V16.984C15.2135 17.9229 14.4523 18.684 13.5135 18.684H2.41345C1.47457 18.684 0.713452 17.9229 0.713452 16.984V4.48401Z" fill="white" stroke="#2B2B2C" stroke-width="0.6"/>
<path d="M13.6819 3.01502C13.6819 4.09192 12.8087 4.965 11.7317 4.965L4.19521 4.96502C3.11823 4.96502 2.24501 4.09194 2.24501 3.01503C2.24501 1.93808 3.11805 1.06504 4.195 1.06504L11.732 1.06504C12.8089 1.06504 13.6819 1.93808 13.6819 3.01502Z" fill="white" stroke="#2B2B2C" stroke-width="0.6"/>
<path d="M0.413452 7.68909L1.21345 7.68909C1.76574 7.68909 2.21345 7.24137 2.21345 6.68909L2.21345 2.67639" stroke="#2B2B2C" stroke-width="0.6"/>
<path d="M15.5134 7.68909L14.7134 7.68909C14.1611 7.68909 13.7134 7.24137 13.7134 6.68909L13.7134 2.67639" stroke="#2B2B2C" stroke-width="0.6"/>
</svg></g>
<g transform="translate(71, 712)"><svg width="16" height="22" viewBox="0 0 16 22" fill="none" xmlns="http://www.w3.org/2000/svg">
<path d="M0.713452 4.48401C0.713452 3.54512 1.47457 2.78401 2.41345 2.78401H13.5135C14.4523 2.78401 15.2135 3.54512 15.2135 4.48401V16.984C15.2135 17.9229 14.4523 18.684 13.5135 18.684H2.41345C1.47457 18.684 0.713452 17.9229 0.713452 16.984V4.48401Z" fill="white" stroke="#2B2B2C" stroke-width="0.6"/>
<path d="M13.6819 3.01502C13.6819 4.09192 12.8087 4.965 11.7317 4.965L4.19521 4.96502C3.11823 4.96502 2.24501 4.09194 2.24501 3.01503C2.24501 1.93808 3.11805 1.06504 4.195 1.06504L11.732 1.06504C12.8089 1.06504 13.6819 1.93808 13.6819 3.01502Z" fill="white" stroke="#2B2B2C" stroke-width="0.6"/>
<path d="M0.413452 7.68909L1.21345 7.68909C1.76574 7.68909 2.21345 7.24137 2.21345 6.68909L2.21345 2.67639" stroke="#2B2B2C" stroke-width="0.6"/>
<path d="M15.5134 7.68909L14.7134 7.68909C14.1611 7.68909 13.7134 7.24137 13.7134 6.68909L13.7134 2.67639" stroke="#2B2B2C" stroke-width="0.6"/>
</svg></g>
<g transform="translate(6, 494)"><svg width="16" height="22" viewBox="0 0 16 22" fill="none" xmlns="http://www.w3.org/2000/svg">
<path d="M0.713452 17.5374C0.713452 18.4762 1.47457 19.2374 2.41345 19.2374H13.5135C14.4523 19.2374 15.2135 18.4762 15.2135 17.5374V5.03735C15.2135 4.09847 14.4523 3.33735 13.5135 3.33735H2.41345C1.47457 3.33735 0.713452 4.09847 0.713452 5.03735V17.5374Z" fill="white" stroke="#2B2B2C" stroke-width="0.6"/>
<path d="M13.6819 19.0063C13.6819 17.9294 12.8086 17.0564 11.7317 17.0564L4.19515 17.0563C3.11817 17.0563 2.24495 17.9294 2.24495 19.0063C2.24495 20.0833 3.11799 20.9563 4.19494 20.9563L11.7319 20.9563C12.8088 20.9563 13.6819 20.0833 13.6819 19.0063Z" fill="white" stroke="#2B2B2C" stroke-width="0.6"/>
<path d="M0.413452 14.3323L1.21345 14.3323C1.76574 14.3323 2.21345 14.78 2.21345 15.3323L2.21345 19.345" stroke="#2B2B2C" stroke-width="0.6"/>
<path d="M15.5134 14.3323L14.7134 14.3323C14.1611 14.3323 13.7134 14.78 13.7134 15.3323L13.7134 19.345" stroke="#2B2B2C" stroke-width="0.6"/>
</svg></g>
<g transform="translate(22, 494)"><svg width="16" height="22" viewBox="0 0 16 22" fill="none" xmlns="http://www.w3.org/2000/svg">
<path d="M0.713452 17.5374C0.713452 18.4762 1.47457 19.2374 2.41345 19.2374H13.5135C14.4523 19.2374 15.2135 18.4762 15.2135 17.5374V5.03735C15.2135 4.09847 14.4523 3.33735 13.5135 3.33735H2.41345C1.47457 3.33735 0.713452 4.09847 0.713452 5.03735V17.5374Z" fill="white" stroke="#2B2B2C" stroke-width="0.6"/>
<path d="M13.6819 19.0063C13.6819 17.9294 12.8086 17.0564 11.7317 17.0564L4.19515 17.0563C3.11817 17.0563 2.24495 17.9294 2.24495 19.0063C2.24495 20.0833 3.11799 20.9563 4.19494 20.9563L11.7319 20.9563C12.8088 20.9563 13.6819 20.0833 13.6819 19.0063Z" fill="white" stroke="#2B2B2C" stroke-width="0.6"/>
<path d="M0.413452 14.3323L1.21345 14.3323C1.76574 14.3323 2.21345 14.78 2.21345 15.3323L2.21345 19.345" stroke="#2B2B2C" stroke-width="0.6"/>
<path d="M15.5134 14.3323L14.7134 14.3323C14.1611 14.3323 13.7134 14.78 13.7134 15.3323L13.7134 19.345" stroke="#2B2B2C" stroke-width="0.6"/>
</svg></g>
<g transform="translate(6, 458)"><svg width="16" height="22" viewBox="0 0 16 22" fill="none" xmlns="http://www.w3.org/2000/svg">
<path d="M0.713452 4.48401C0.713452 3.54512 1.47457 2.78401 2.41345 2.78401H13.5135C14.4523 2.78401 15.2135 3.54512 15.2135 4.48401V16.984C15.2135 17.9229 14.4523 18.684 13.5135 18.684H2.41345C1.47457 18.684 0.713452 17.9229 0.713452 16.984V4.48401Z" fill="white" stroke="#2B2B2C" stroke-width="0.6"/>
<path d="M13.6819 3.01502C13.6819 4.09192 12.8087 4.965 11.7317 4.965L4.19521 4.96502C3.11823 4.96502 2.24501 4.09194 2.24501 3.01503C2.24501 1.93808 3.11805 1.06504 4.195 1.06504L11.732 1.06504C12.8089 1.06504 13.6819 1.93808 13.6819 3.01502Z" fill="white" stroke="#2B2B2C" stroke-width="0.6"/>
<path d="M0.413452 7.68909L1.21345 7.68909C1.76574 7.68909 2.21345 7.24137 2.21345 6.68909L2.21345 2.67639" stroke="#2B2B2C" stroke-width="0.6"/>
<path d="M15.5134 7.68909L14.7134 7.68909C14.1611 7.68909 13.7134 7.24137 13.7134 6.68909L13.7134 2.67639" stroke="#2B2B2C" stroke-width="0.6"/>
</svg></g>
<g transform="translate(22, 458)"><svg width="16" height="22" viewBox="0 0 16 22" fill="none" xmlns="http://www.w3.org/2000/svg">
<path d="M0.713452 4.48401C0.713452 3.54512 1.47457 2.78401 2.41345 2.78401H13.5135C14.4523 2.78401 15.2135 3.54512 15.2135 4.48401V16.984C15.2135 17.9229 14.4523 18.684 13.5135 18.684H2.41345C1.47457 18.684 0.713452 17.9229 0.713452 16.984V4.48401Z" fill="white" stroke="#2B2B2C" stroke-width="0.6"/>
<path d="M13.6819 3.01502C13.6819 4.09192 12.8087 4.965 11.7317 4.965L4.19521 4.96502C3.11823 4.96502 2.24501 4.09194 2.24501 3.01503C2.24501 1.93808 3.11805 1.06504 4.195 1.06504L11.732 1.06504C12.8089 1.06504 13.6819 1.93808 13.6819 3.01502Z" fill="white" stroke="#2B2B2C" stroke-width="0.6"/>
<path d="M0.413452 7.68909L1.21345 7.68909C1.76574 7.68909 2.21345 7.24137 2.21345 6.68909L2.21345 2.67639" stroke="#2B2B2C" stroke-width="0.6"/>
<path d="M15.5134 7.68909L14.7134 7.68909C14.1611 7.68909 13.7134 7.24137 13.7134 6.68909L13.7134 2.67639" stroke="#2B2B2C" stroke-width="0.6"/>
</svg></g>
<g transform="translate(55, 458)"><svg width="16" height="22" viewBox="0 0 16 22" fill="none" xmlns="http://www.w3.org/2000/svg">
<path d="M0.713452 4.48401C0.713452 3.54512 1.47457 2.78401 2.41345 2.78401H13.5135C14.4523 2.78401 15.2135 3.54512 15.2135 4.48401V16.984C15.2135 17.9229 14.4523 18.684 13.5135 18.684H2.41345C1.47457 18.684 0.713452 17.9229 0.713452 16.984V4.48401Z" fill="white" stroke="#2B2B2C" stroke-width="0.6"/>
<path d="M13.6819 3.01502C13.6819 4.09192 12.8087 4.965 11.7317 4.965L4.19521 4.96502C3.11823 4.96502 2.24501 4.09194 2.24501 3.01503C2.24501 1.93808 3.11805 1.06504 4.195 1.06504L11.732 1.06504C12.8089 1.06504 13.6819 1.93808 13.6819 3.01502Z" fill="white" stroke="#2B2B2C" stroke-width="0.6"/>
<path d="M0.413452 7.68909L1.21345 7.68909C1.76574 7.68909 2.21345 7.24137 2.21345 6.68909L2.21345 2.67639" stroke="#2B2B2C" stroke-width="0.6"/>
<path d="M15.5134 7.68909L14.7134 7.68909C14.1611 7.68909 13.7134 7.24137 13.7134 6.68909L13.7134 2.67639" stroke="#2B2B2C" stroke-width="0.6"/>
</svg></g>
<g transform="translate(71, 458)"><svg width="16" height="22" viewBox="0 0 16 22" fill="none" xmlns="http://www.w3.org/2000/svg">
<path d="M0.713452 4.48401C0.713452 3.54512 1.47457 2.78401 2.41345 2.78401H13.5135C14.4523 2.78401 15.2135 3.54512 15.2135 4.48401V16.984C15.2135 17.9229 14.4523 18.684 13.5135 18.684H2.41345C1.47457 18.684 0.713452 17.9229 0.713452 16.984V4.48401Z" fill="white" stroke="#2B2B2C" stroke-width="0.6"/>
<path d="M13.6819 3.01502C13.6819 4.09192 12.8087 4.965 11.7317 4.965L4.19521 4.96502C3.11823 4.96502 2.24501 4.09194 2.24501 3.01503C2.24501 1.93808 3.11805 1.06504 4.195 1.06504L11.732 1.06504C12.8089 1.06504 13.6819 1.93808 13.6819 3.01502Z" fill="white" stroke="#2B2B2C" stroke-width="0.6"/>
<path d="M0.413452 7.68909L1.21345 7.68909C1.76574 7.68909 2.21345 7.24137 2.21345 6.68909L2.21345 2.67639" stroke="#2B2B2C" stroke-width="0.6"/>
<path d="M15.5134 7.68909L14.7134 7.68909C14.1611 7.68909 13.7134 7.24137 13.7134 6.68909L13.7134 2.67639" stroke="#2B2B2C" stroke-width="0.6"/>
</svg></g>
<g transform="translate(6, 432)"><svg width="16" height="22" viewBox="0 0 16 22" fill="none" xmlns="http://www.w3.org/2000/svg">
<path d="M0.713452 4.48401C0.713452 3.54512 1.47457 2.78401 2.41345 2.78401H13.5135C14.4523 2.78401 15.2135 3.54512 15.2135 4.48401V16.984C15.2135 17.9229 14.4523 18.684 13.5135 18.684H2.41345C1.47457 18.684 0.713452 17.9229 0.713452 16.984V4.48401Z" fill="white" stroke="#2B2B2C" stroke-width="0.6"/>
<path d="M13.6819 3.01502C13.6819 4.09192 12.8087 4.965 11.7317 4.965L4.19521 4.96502C3.11823 4.96502 2.24501 4.09194 2.24501 3.01503C2.24501 1.93808 3.11805 1.06504 4.195 1.06504L11.732 1.06504C12.8089 1.06504 13.6819 1.93808 13.6819 3.01502Z" fill="white" stroke="#2B2B2C" stroke-width="0.6"/>
<path d="M0.413452 7.68909L1.21345 7.68909C1.76574 7.68909 2.21345 7.24137 2.21345 6.68909L2.21345 2.67639" stroke="#2B2B2C" stroke-width="0.6"/>
<path d="M15.5134 7.68909L14.7134 7.68909C14.1611 7.68909 13.7134 7.24137 13.7134 6.68909L13.7134 2.67639" stroke="#2B2B2C" stroke-width="0.6"/>
</svg></g>
<g transform="translate(22, 432)"><svg width="16" height="22" viewBox="0 0 16 22" fill="none" xmlns="http://www.w3.org/2000/svg">
<path d="M0.713452 4.48401C0.713452 3.54512 1.47457 2.78401 2.41345 2.78401H13.5135C14.4523 2.78401 15.2135 3.54512 15.2135 4.48401V16.984C15.2135 17.9229 14.4523 18.684 13.5135 18.684H2.41345C1.47457 18.684 0.713452 17.9229 0.713452 16.984V4.48401Z" fill="white" stroke="#2B2B2C" stroke-width="0.6"/>
<path d="M13.6819 3.01502C13.6819 4.09192 12.8087 4.965 11.7317 4.965L4.19521 4.96502C3.11823 4.96502 2.24501 4.09194 2.24501 3.01503C2.24501 1.93808 3.11805 1.06504 4.195 1.06504L11.732 1.06504C12.8089 1.06504 13.6819 1.93808 13.6819 3.01502Z" fill="white" stroke="#2B2B2C" stroke-width="0.6"/>
<path d="M0.413452 7.68909L1.21345 7.68909C1.76574 7.68909 2.21345 7.24137 2.21345 6.68909L2.21345 2.67639" stroke="#2B2B2C" stroke-width="0.6"/>
<path d="M15.5134 7.68909L14.7134 7.68909C14.1611 7.68909 13.7134 7.24137 13.7134 6.68909L13.7134 2.67639" stroke="#2B2B2C" stroke-width="0.6"/>
</svg></g>
<g transform="translate(55, 432)"><svg width="16" height="22" viewBox="0 0 16 22" fill="none" xmlns="http://www.w3.org/2000/svg">
<path d="M0.713452 4.48401C0.713452 3.54512 1.47457 2.78401 2.41345 2.78401H13.5135C14.4523 2.78401 15.2135 3.54512 15.2135 4.48401V16.984C15.2135 17.9229 14.4523 18.684 13.5135 18.684H2.41345C1.47457 18.684 0.713452 17.9229 0.713452 16.984V4.48401Z" fill="white" stroke="#2B2B2C" stroke-width="0.6"/>
<path d="M13.6819 3.01502C13.6819 4.09192 12.8087 4.965 11.7317 4.965L4.19521 4.96502C3.11823 4.96502 2.24501 4.09194 2.24501 3.01503C2.24501 1.93808 3.11805 1.06504 4.195 1.06504L11.732 1.06504C12.8089 1.06504 13.6819 1.93808 13.6819 3.01502Z" fill="white" stroke="#2B2B2C" stroke-width="0.6"/>
<path d="M0.413452 7.68909L1.21345 7.68909C1.76574 7.68909 2.21345 7.24137 2.21345 6.68909L2.21345 2.67639" stroke="#2B2B2C" stroke-width="0.6"/>
<path d="M15.5134 7.68909L14.7134 7.68909C14.1611 7.68909 13.7134 7.24137 13.7134 6.68909L13.7134 2.67639" stroke="#2B2B2C" stroke-width="0.6"/>
</svg></g>
<g transform="translate(71, 432)"><svg width="16" height="22" viewBox="0 0 16 22" fill="none" xmlns="http://www.w3.org/2000/svg">
<path d="M0.713452 4.48401C0.713452 3.54512 1.47457 2.78401 2.41345 2.78401H13.5135C14.4523 2.78401 15.2135 3.54512 15.2135 4.48401V16.984C15.2135 17.9229 14.4523 18.684 13.5135 18.684H2.41345C1.47457 18.684 0.713452 17.9229 0.713452 16.984V4.48401Z" fill="white" stroke="#2B2B2C" stroke-width="0.6"/>
<path d="M13.6819 3.01502C13.6819 4.09192 12.8087 4.965 11.7317 4.965L4.19521 4.96502C3.11823 4.96502 2.24501 4.09194 2.24501 3.01503C2.24501 1.93808 3.11805 1.06504 4.195 1.06504L11.732 1.06504C12.8089 1.06504 13.6819 1.93808 13.6819 3.01502Z" fill="white" stroke="#2B2B2C" stroke-width="0.6"/>
<path d="M0.413452 7.68909L1.21345 7.68909C1.76574 7.68909 2.21345 7.24137 2.21345 6.68909L2.21345 2.67639" stroke="#2B2B2C" stroke-width="0.6"/>
<path d="M15.5134 7.68909L14.7134 7.68909C14.1611 7.68909 13.7134 7.24137 13.7134 6.68909L13.7134 2.67639" stroke="#2B2B2C" stroke-width="0.6"/>
</svg></g>
<g transform="translate(6, 406)"><svg width="16" height="22" viewBox="0 0 16 22" fill="none" xmlns="http://www.w3.org/2000/svg">
<path d="M0.713452 4.48401C0.713452 3.54512 1.47457 2.78401 2.41345 2.78401H13.5135C14.4523 2.78401 15.2135 3.54512 15.2135 4.48401V16.984C15.2135 17.9229 14.4523 18.684 13.5135 18.684H2.41345C1.47457 18.684 0.713452 17.9229 0.713452 16.984V4.48401Z" fill="white" stroke="#2B2B2C" stroke-width="0.6"/>
<path d="M13.6819 3.01502C13.6819 4.09192 12.8087 4.965 11.7317 4.965L4.19521 4.96502C3.11823 4.96502 2.24501 4.09194 2.24501 3.01503C2.24501 1.93808 3.11805 1.06504 4.195 1.06504L11.732 1.06504C12.8089 1.06504 13.6819 1.93808 13.6819 3.01502Z" fill="white" stroke="#2B2B2C" stroke-width="0.6"/>
<path d="M0.413452 7.68909L1.21345 7.68909C1.76574 7.68909 2.21345 7.24137 2.21345 6.68909L2.21345 2.67639" stroke="#2B2B2C" stroke-width="0.6"/>
<path d="M15.5134 7.68909L14.7134 7.68909C14.1611 7.68909 13.7134 7.24137 13.7134 6.68909L13.7134 2.67639" stroke="#2B2B2C" stroke-width="0.6"/>
</svg></g>
<g transform="translate(22, 406)"><svg width="16" height="22" viewBox="0 0 16 22" fill="none" xmlns="http://www.w3.org/2000/svg">
<path d="M0.713452 4.48401C0.713452 3.54512 1.47457 2.78401 2.41345 2.78401H13.5135C14.4523 2.78401 15.2135 3.54512 15.2135 4.48401V16.984C15.2135 17.9229 14.4523 18.684 13.5135 18.684H2.41345C1.47457 18.684 0.713452 17.9229 0.713452 16.984V4.48401Z" fill="white" stroke="#2B2B2C" stroke-width="0.6"/>
<path d="M13.6819 3.01502C13.6819 4.09192 12.8087 4.965 11.7317 4.965L4.19521 4.96502C3.11823 4.96502 2.24501 4.09194 2.24501 3.01503C2.24501 1.93808 3.11805 1.06504 4.195 1.06504L11.732 1.06504C12.8089 1.06504 13.6819 1.93808 13.6819 3.01502Z" fill="white" stroke="#2B2B2C" stroke-width="0.6"/>
<path d="M0.413452 7.68909L1.21345 7.68909C1.76574 7.68909 2.21345 7.24137 2.21345 6.68909L2.21345 2.67639" stroke="#2B2B2C" stroke-width="0.6"/>
<path d="M15.5134 7.68909L14.7134 7.68909C14.1611 7.68909 13.7134 7.24137 13.7134 6.68909L13.7134 2.67639" stroke="#2B2B2C" stroke-width="0.6"/>
</svg></g>
<g transform="translate(55, 406)"><svg width="16" height="22" viewBox="0 0 16 22" fill="none" xmlns="http://www.w3.org/2000/svg">
<path d="M0.713452 4.48401C0.713452 3.54512 1.47457 2.78401 2.41345 2.78401H13.5135C14.4523 2.78401 15.2135 3.54512 15.2135 4.48401V16.984C15.2135 17.9229 14.4523 18.684 13.5135 18.684H2.41345C1.47457 18.684 0.713452 17.9229 0.713452 16.984V4.48401Z" fill="white" stroke="#2B2B2C" stroke-width="0.6"/>
<path d="M13.6819 3.01502C13.6819 4.09192 12.8087 4.965 11.7317 4.965L4.19521 4.96502C3.11823 4.96502 2.24501 4.09194 2.24501 3.01503C2.24501 1.93808 3.11805 1.06504 4.195 1.06504L11.732 1.06504C12.8089 1.06504 13.6819 1.93808 13.6819 3.01502Z" fill="white" stroke="#2B2B2C" stroke-width="0.6"/>
<path d="M0.413452 7.68909L1.21345 7.68909C1.76574 7.68909 2.21345 7.24137 2.21345 6.68909L2.21345 2.67639" stroke="#2B2B2C" stroke-width="0.6"/>
<path d="M15.5134 7.68909L14.7134 7.68909C14.1611 7.68909 13.7134 7.24137 13.7134 6.68909L13.7134 2.67639" stroke="#2B2B2C" stroke-width="0.6"/>
</svg></g>
<g transform="translate(71, 406)"><svg width="16" height="22" viewBox="0 0 16 22" fill="none" xmlns="http://www.w3.org/2000/svg">
<path d="M0.713452 4.48401C0.713452 3.54512 1.47457 2.78401 2.41345 2.78401H13.5135C14.4523 2.78401 15.2135 3.54512 15.2135 4.48401V16.984C15.2135 17.9229 14.4523 18.684 13.5135 18.684H2.41345C1.47457 18.684 0.713452 17.9229 0.713452 16.984V4.48401Z" fill="white" stroke="#2B2B2C" stroke-width="0.6"/>
<path d="M13.6819 3.01502C13.6819 4.09192 12.8087 4.965 11.7317 4.965L4.19521 4.96502C3.11823 4.96502 2.24501 4.09194 2.24501 3.01503C2.24501 1.93808 3.11805 1.06504 4.195 1.06504L11.732 1.06504C12.8089 1.06504 13.6819 1.93808 13.6819 3.01502Z" fill="white" stroke="#2B2B2C" stroke-width="0.6"/>
<path d="M0.413452 7.68909L1.21345 7.68909C1.76574 7.68909 2.21345 7.24137 2.21345 6.68909L2.21345 2.67639" stroke="#2B2B2C" stroke-width="0.6"/>
<path d="M15.5134 7.68909L14.7134 7.68909C14.1611 7.68909 13.7134 7.24137 13.7134 6.68909L13.7134 2.67639" stroke="#2B2B2C" stroke-width="0.6"/>
</svg></g>
<g transform="translate(6, 380)"><svg width="16" height="22" viewBox="0 0 16 22" fill="none" xmlns="http://www.w3.org/2000/svg">
<path d="M0.713452 4.48401C0.713452 3.54512 1.47457 2.78401 2.41345 2.78401H13.5135C14.4523 2.78401 15.2135 3.54512 15.2135 4.48401V16.984C15.2135 17.9229 14.4523 18.684 13.5135 18.684H2.41345C1.47457 18.684 0.713452 17.9229 0.713452 16.984V4.48401Z" fill="white" stroke="#2B2B2C" stroke-width="0.6"/>
<path d="M13.6819 3.01502C13.6819 4.09192 12.8087 4.965 11.7317 4.965L4.19521 4.96502C3.11823 4.96502 2.24501 4.09194 2.24501 3.01503C2.24501 1.93808 3.11805 1.06504 4.195 1.06504L11.732 1.06504C12.8089 1.06504 13.6819 1.93808 13.6819 3.01502Z" fill="white" stroke="#2B2B2C" stroke-width="0.6"/>
<path d="M0.413452 7.68909L1.21345 7.68909C1.76574 7.68909 2.21345 7.24137 2.21345 6.68909L2.21345 2.67639" stroke="#2B2B2C" stroke-width="0.6"/>
<path d="M15.5134 7.68909L14.7134 7.68909C14.1611 7.68909 13.7134 7.24137 13.7134 6.68909L13.7134 2.67639" stroke="#2B2B2C" stroke-width="0.6"/>
</svg></g>
<g transform="translate(22, 380)"><svg width="16" height="22" viewBox="0 0 16 22" fill="none" xmlns="http://www.w3.org/2000/svg">
<path d="M0.713452 4.48401C0.713452 3.54512 1.47457 2.78401 2.41345 2.78401H13.5135C14.4523 2.78401 15.2135 3.54512 15.2135 4.48401V16.984C15.2135 17.9229 14.4523 18.684 13.5135 18.684H2.41345C1.47457 18.684 0.713452 17.9229 0.713452 16.984V4.48401Z" fill="white" stroke="#2B2B2C" stroke-width="0.6"/>
<path d="M13.6819 3.01502C13.6819 4.09192 12.8087 4.965 11.7317 4.965L4.19521 4.96502C3.11823 4.96502 2.24501 4.09194 2.24501 3.01503C2.24501 1.93808 3.11805 1.06504 4.195 1.06504L11.732 1.06504C12.8089 1.06504 13.6819 1.93808 13.6819 3.01502Z" fill="white" stroke="#2B2B2C" stroke-width="0.6"/>
<path d="M0.413452 7.68909L1.21345 7.68909C1.76574 7.68909 2.21345 7.24137 2.21345 6.68909L2.21345 2.67639" stroke="#2B2B2C" stroke-width="0.6"/>
<path d="M15.5134 7.68909L14.7134 7.68909C14.1611 7.68909 13.7134 7.24137 13.7134 6.68909L13.7134 2.67639" stroke="#2B2B2C" stroke-width="0.6"/>
</svg></g>
<g transform="translate(55, 380)"><svg width="16" height="22" viewBox="0 0 16 22" fill="none" xmlns="http://www.w3.org/2000/svg">
<path d="M0.713452 4.48401C0.713452 3.54512 1.47457 2.78401 2.41345 2.78401H13.5135C14.4523 2.78401 15.2135 3.54512 15.2135 4.48401V16.984C15.2135 17.9229 14.4523 18.684 13.5135 18.684H2.41345C1.47457 18.684 0.713452 17.9229 0.713452 16.984V4.48401Z" fill="white" stroke="#2B2B2C" stroke-width="0.6"/>
<path d="M13.6819 3.01502C13.6819 4.09192 12.8087 4.965 11.7317 4.965L4.19521 4.96502C3.11823 4.96502 2.24501 4.09194 2.24501 3.01503C2.24501 1.93808 3.11805 1.06504 4.195 1.06504L11.732 1.06504C12.8089 1.06504 13.6819 1.93808 13.6819 3.01502Z" fill="white" stroke="#2B2B2C" stroke-width="0.6"/>
<path d="M0.413452 7.68909L1.21345 7.68909C1.76574 7.68909 2.21345 7.24137 2.21345 6.68909L2.21345 2.67639" stroke="#2B2B2C" stroke-width="0.6"/>
<path d="M15.5134 7.68909L14.7134 7.68909C14.1611 7.68909 13.7134 7.24137 13.7134 6.68909L13.7134 2.67639" stroke="#2B2B2C" stroke-width="0.6"/>
</svg></g>
<g transform="translate(71, 380)"><svg width="16" height="22" viewBox="0 0 16 22" fill="none" xmlns="http://www.w3.org/2000/svg">
<path d="M0.713452 4.48401C0.713452 3.54512 1.47457 2.78401 2.41345 2.78401H13.5135C14.4523 2.78401 15.2135 3.54512 15.2135 4.48401V16.984C15.2135 17.9229 14.4523 18.684 13.5135 18.684H2.41345C1.47457 18.684 0.713452 17.9229 0.713452 16.984V4.48401Z" fill="white" stroke="#2B2B2C" stroke-width="0.6"/>
<path d="M13.6819 3.01502C13.6819 4.09192 12.8087 4.965 11.7317 4.965L4.19521 4.96502C3.11823 4.96502 2.24501 4.09194 2.24501 3.01503C2.24501 1.93808 3.11805 1.06504 4.195 1.06504L11.732 1.06504C12.8089 1.06504 13.6819 1.93808 13.6819 3.01502Z" fill="white" stroke="#2B2B2C" stroke-width="0.6"/>
<path d="M0.413452 7.68909L1.21345 7.68909C1.76574 7.68909 2.21345 7.24137 2.21345 6.68909L2.21345 2.67639" stroke="#2B2B2C" stroke-width="0.6"/>
<path d="M15.5134 7.68909L14.7134 7.68909C14.1611 7.68909 13.7134 7.24137 13.7134 6.68909L13.7134 2.67639" stroke="#2B2B2C" stroke-width="0.6"/>
</svg></g>
<g transform="translate(6, 354)"><svg width="16" height="22" viewBox="0 0 16 22" fill="none" xmlns="http://www.w3.org/2000/svg">
<path d="M0.713452 4.48401C0.713452 3.54512 1.47457 2.78401 2.41345 2.78401H13.5135C14.4523 2.78401 15.2135 3.54512 15.2135 4.48401V16.984C15.2135 17.9229 14.4523 18.684 13.5135 18.684H2.41345C1.47457 18.684 0.713452 17.9229 0.713452 16.984V4.48401Z" fill="white" stroke="#2B2B2C" stroke-width="0.6"/>
<path d="M13.6819 3.01502C13.6819 4.09192 12.8087 4.965 11.7317 4.965L4.19521 4.96502C3.11823 4.96502 2.24501 4.09194 2.24501 3.01503C2.24501 1.93808 3.11805 1.06504 4.195 1.06504L11.732 1.06504C12.8089 1.06504 13.6819 1.93808 13.6819 3.01502Z" fill="white" stroke="#2B2B2C" stroke-width="0.6"/>
<path d="M0.413452 7.68909L1.21345 7.68909C1.76574 7.68909 2.21345 7.24137 2.21345 6.68909L2.21345 2.67639" stroke="#2B2B2C" stroke-width="0.6"/>
<path d="M15.5134 7.68909L14.7134 7.68909C14.1611 7.68909 13.7134 7.24137 13.7134 6.68909L13.7134 2.67639" stroke="#2B2B2C" stroke-width="0.6"/>
</svg></g>
<g transform="translate(22, 354)"><svg width="16" height="22" viewBox="0 0 16 22" fill="none" xmlns="http://www.w3.org/2000/svg">
<path d="M0.713452 4.48401C0.713452 3.54512 1.47457 2.78401 2.41345 2.78401H13.5135C14.4523 2.78401 15.2135 3.54512 15.2135 4.48401V16.984C15.2135 17.9229 14.4523 18.684 13.5135 18.684H2.41345C1.47457 18.684 0.713452 17.9229 0.713452 16.984V4.48401Z" fill="white" stroke="#2B2B2C" stroke-width="0.6"/>
<path d="M13.6819 3.01502C13.6819 4.09192 12.8087 4.965 11.7317 4.965L4.19521 4.96502C3.11823 4.96502 2.24501 4.09194 2.24501 3.01503C2.24501 1.93808 3.11805 1.06504 4.195 1.06504L11.732 1.06504C12.8089 1.06504 13.6819 1.93808 13.6819 3.01502Z" fill="white" stroke="#2B2B2C" stroke-width="0.6"/>
<path d="M0.413452 7.68909L1.21345 7.68909C1.76574 7.68909 2.21345 7.24137 2.21345 6.68909L2.21345 2.67639" stroke="#2B2B2C" stroke-width="0.6"/>
<path d="M15.5134 7.68909L14.7134 7.68909C14.1611 7.68909 13.7134 7.24137 13.7134 6.68909L13.7134 2.67639" stroke="#2B2B2C" stroke-width="0.6"/>
</svg></g>
<g transform="translate(55, 354)"><svg width="16" height="22" viewBox="0 0 16 22" fill="none" xmlns="http://www.w3.org/2000/svg">
<path d="M0.713452 4.48401C0.713452 3.54512 1.47457 2.78401 2.41345 2.78401H13.5135C14.4523 2.78401 15.2135 3.54512 15.2135 4.48401V16.984C15.2135 17.9229 14.4523 18.684 13.5135 18.684H2.41345C1.47457 18.684 0.713452 17.9229 0.713452 16.984V4.48401Z" fill="white" stroke="#2B2B2C" stroke-width="0.6"/>
<path d="M13.6819 3.01502C13.6819 4.09192 12.8087 4.965 11.7317 4.965L4.19521 4.96502C3.11823 4.96502 2.24501 4.09194 2.24501 3.01503C2.24501 1.93808 3.11805 1.06504 4.195 1.06504L11.732 1.06504C12.8089 1.06504 13.6819 1.93808 13.6819 3.01502Z" fill="white" stroke="#2B2B2C" stroke-width="0.6"/>
<path d="M0.413452 7.68909L1.21345 7.68909C1.76574 7.68909 2.21345 7.24137 2.21345 6.68909L2.21345 2.67639" stroke="#2B2B2C" stroke-width="0.6"/>
<path d="M15.5134 7.68909L14.7134 7.68909C14.1611 7.68909 13.7134 7.24137 13.7134 6.68909L13.7134 2.67639" stroke="#2B2B2C" stroke-width="0.6"/>
</svg></g>
<g transform="translate(71, 354)"><svg width="16" height="22" viewBox="0 0 16 22" fill="none" xmlns="http://www.w3.org/2000/svg">
<path d="M0.713452 4.48401C0.713452 3.54512 1.47457 2.78401 2.41345 2.78401H13.5135C14.4523 2.78401 15.2135 3.54512 15.2135 4.48401V16.984C15.2135 17.9229 14.4523 18.684 13.5135 18.684H2.41345C1.47457 18.684 0.713452 17.9229 0.713452 16.984V4.48401Z" fill="white" stroke="#2B2B2C" stroke-width="0.6"/>
<path d="M13.6819 3.01502C13.6819 4.09192 12.8087 4.965 11.7317 4.965L4.19521 4.96502C3.11823 4.96502 2.24501 4.09194 2.24501 3.01503C2.24501 1.93808 3.11805 1.06504 4.195 1.06504L11.732 1.06504C12.8089 1.06504 13.6819 1.93808 13.6819 3.01502Z" fill="white" stroke="#2B2B2C" stroke-width="0.6"/>
<path d="M0.413452 7.68909L1.21345 7.68909C1.76574 7.68909 2.21345 7.24137 2.21345 6.68909L2.21345 2.67639" stroke="#2B2B2C" stroke-width="0.6"/>
<path d="M15.5134 7.68909L14.7134 7.68909C14.1611 7.68909 13.7134 7.24137 13.7134 6.68909L13.7134 2.67639" stroke="#2B2B2C" stroke-width="0.6"/>
</svg></g>
<g transform="translate(6, 328)"><svg width="16" height="22" viewBox="0 0 16 22" fill="none" xmlns="http://www.w3.org/2000/svg">
<path d="M0.713452 4.48401C0.713452 3.54512 1.47457 2.78401 2.41345 2.78401H13.5135C14.4523 2.78401 15.2135 3.54512 15.2135 4.48401V16.984C15.2135 17.9229 14.4523 18.684 13.5135 18.684H2.41345C1.47457 18.684 0.713452 17.9229 0.713452 16.984V4.48401Z" fill="white" stroke="#2B2B2C" stroke-width="0.6"/>
<path d="M13.6819 3.01502C13.6819 4.09192 12.8087 4.965 11.7317 4.965L4.19521 4.96502C3.11823 4.96502 2.24501 4.09194 2.24501 3.01503C2.24501 1.93808 3.11805 1.06504 4.195 1.06504L11.732 1.06504C12.8089 1.06504 13.6819 1.93808 13.6819 3.01502Z" fill="white" stroke="#2B2B2C" stroke-width="0.6"/>
<path d="M0.413452 7.68909L1.21345 7.68909C1.76574 7.68909 2.21345 7.24137 2.21345 6.68909L2.21345 2.67639" stroke="#2B2B2C" stroke-width="0.6"/>
<path d="M15.5134 7.68909L14.7134 7.68909C14.1611 7.68909 13.7134 7.24137 13.7134 6.68909L13.7134 2.67639" stroke="#2B2B2C" stroke-width="0.6"/>
</svg></g>
<g transform="translate(22, 328)"><svg width="16" height="22" viewBox="0 0 16 22" fill="none" xmlns="http://www.w3.org/2000/svg">
<path d="M0.713452 4.48401C0.713452 3.54512 1.47457 2.78401 2.41345 2.78401H13.5135C14.4523 2.78401 15.2135 3.54512 15.2135 4.48401V16.984C15.2135 17.9229 14.4523 18.684 13.5135 18.684H2.41345C1.47457 18.684 0.713452 17.9229 0.713452 16.984V4.48401Z" fill="white" stroke="#2B2B2C" stroke-width="0.6"/>
<path d="M13.6819 3.01502C13.6819 4.09192 12.8087 4.965 11.7317 4.965L4.19521 4.96502C3.11823 4.96502 2.24501 4.09194 2.24501 3.01503C2.24501 1.93808 3.11805 1.06504 4.195 1.06504L11.732 1.06504C12.8089 1.06504 13.6819 1.93808 13.6819 3.01502Z" fill="white" stroke="#2B2B2C" stroke-width="0.6"/>
<path d="M0.413452 7.68909L1.21345 7.68909C1.76574 7.68909 2.21345 7.24137 2.21345 6.68909L2.21345 2.67639" stroke="#2B2B2C" stroke-width="0.6"/>
<path d="M15.5134 7.68909L14.7134 7.68909C14.1611 7.68909 13.7134 7.24137 13.7134 6.68909L13.7134 2.67639" stroke="#2B2B2C" stroke-width="0.6"/>
</svg></g>
<g transform="translate(55, 328)"><svg width="16" height="22" viewBox="0 0 16 22" fill="none" xmlns="http://www.w3.org/2000/svg">
<path d="M0.713452 4.48401C0.713452 3.54512 1.47457 2.78401 2.41345 2.78401H13.5135C14.4523 2.78401 15.2135 3.54512 15.2135 4.48401V16.984C15.2135 17.9229 14.4523 18.684 13.5135 18.684H2.41345C1.47457 18.684 0.713452 17.9229 0.713452 16.984V4.48401Z" fill="white" stroke="#2B2B2C" stroke-width="0.6"/>
<path d="M13.6819 3.01502C13.6819 4.09192 12.8087 4.965 11.7317 4.965L4.19521 4.96502C3.11823 4.96502 2.24501 4.09194 2.24501 3.01503C2.24501 1.93808 3.11805 1.06504 4.195 1.06504L11.732 1.06504C12.8089 1.06504 13.6819 1.93808 13.6819 3.01502Z" fill="white" stroke="#2B2B2C" stroke-width="0.6"/>
<path d="M0.413452 7.68909L1.21345 7.68909C1.76574 7.68909 2.21345 7.24137 2.21345 6.68909L2.21345 2.67639" stroke="#2B2B2C" stroke-width="0.6"/>
<path d="M15.5134 7.68909L14.7134 7.68909C14.1611 7.68909 13.7134 7.24137 13.7134 6.68909L13.7134 2.67639" stroke="#2B2B2C" stroke-width="0.6"/>
</svg></g>
<g transform="translate(71, 328)"><svg width="16" height="22" viewBox="0 0 16 22" fill="none" xmlns="http://www.w3.org/2000/svg">
<path d="M0.713452 4.48401C0.713452 3.54512 1.47457 2.78401 2.41345 2.78401H13.5135C14.4523 2.78401 15.2135 3.54512 15.2135 4.48401V16.984C15.2135 17.9229 14.4523 18.684 13.5135 18.684H2.41345C1.47457 18.684 0.713452 17.9229 0.713452 16.984V4.48401Z" fill="white" stroke="#2B2B2C" stroke-width="0.6"/>
<path d="M13.6819 3.01502C13.6819 4.09192 12.8087 4.965 11.7317 4.965L4.19521 4.96502C3.11823 4.96502 2.24501 4.09194 2.24501 3.01503C2.24501 1.93808 3.11805 1.06504 4.195 1.06504L11.732 1.06504C12.8089 1.06504 13.6819 1.93808 13.6819 3.01502Z" fill="white" stroke="#2B2B2C" stroke-width="0.6"/>
<path d="M0.413452 7.68909L1.21345 7.68909C1.76574 7.68909 2.21345 7.24137 2.21345 6.68909L2.21345 2.67639" stroke="#2B2B2C" stroke-width="0.6"/>
<path d="M15.5134 7.68909L14.7134 7.68909C14.1611 7.68909 13.7134 7.24137 13.7134 6.68909L13.7134 2.67639" stroke="#2B2B2C" stroke-width="0.6"/>
</svg></g>
<g transform="translate(6, 302)"><svg width="16" height="22" viewBox="0 0 16 22" fill="none" xmlns="http://www.w3.org/2000/svg">
<path d="M0.713452 4.48401C0.713452 3.54512 1.47457 2.78401 2.41345 2.78401H13.5135C14.4523 2.78401 15.2135 3.54512 15.2135 4.48401V16.984C15.2135 17.9229 14.4523 18.684 13.5135 18.684H2.41345C1.47457 18.684 0.713452 17.9229 0.713452 16.984V4.48401Z" fill="white" stroke="#2B2B2C" stroke-width="0.6"/>
<path d="M13.6819 3.01502C13.6819 4.09192 12.8087 4.965 11.7317 4.965L4.19521 4.96502C3.11823 4.96502 2.24501 4.09194 2.24501 3.01503C2.24501 1.93808 3.11805 1.06504 4.195 1.06504L11.732 1.06504C12.8089 1.06504 13.6819 1.93808 13.6819 3.01502Z" fill="white" stroke="#2B2B2C" stroke-width="0.6"/>
<path d="M0.413452 7.68909L1.21345 7.68909C1.76574 7.68909 2.21345 7.24137 2.21345 6.68909L2.21345 2.67639" stroke="#2B2B2C" stroke-width="0.6"/>
<path d="M15.5134 7.68909L14.7134 7.68909C14.1611 7.68909 13.7134 7.24137 13.7134 6.68909L13.7134 2.67639" stroke="#2B2B2C" stroke-width="0.6"/>
</svg></g>
<g transform="translate(22, 302)"><svg width="16" height="22" viewBox="0 0 16 22" fill="none" xmlns="http://www.w3.org/2000/svg">
<path d="M0.713452 4.48401C0.713452 3.54512 1.47457 2.78401 2.41345 2.78401H13.5135C14.4523 2.78401 15.2135 3.54512 15.2135 4.48401V16.984C15.2135 17.9229 14.4523 18.684 13.5135 18.684H2.41345C1.47457 18.684 0.713452 17.9229 0.713452 16.984V4.48401Z" fill="white" stroke="#2B2B2C" stroke-width="0.6"/>
<path d="M13.6819 3.01502C13.6819 4.09192 12.8087 4.965 11.7317 4.965L4.19521 4.96502C3.11823 4.96502 2.24501 4.09194 2.24501 3.01503C2.24501 1.93808 3.11805 1.06504 4.195 1.06504L11.732 1.06504C12.8089 1.06504 13.6819 1.93808 13.6819 3.01502Z" fill="white" stroke="#2B2B2C" stroke-width="0.6"/>
<path d="M0.413452 7.68909L1.21345 7.68909C1.76574 7.68909 2.21345 7.24137 2.21345 6.68909L2.21345 2.67639" stroke="#2B2B2C" stroke-width="0.6"/>
<path d="M15.5134 7.68909L14.7134 7.68909C14.1611 7.68909 13.7134 7.24137 13.7134 6.68909L13.7134 2.67639" stroke="#2B2B2C" stroke-width="0.6"/>
</svg></g>
<g transform="translate(55, 302)"><svg width="16" height="22" viewBox="0 0 16 22" fill="none" xmlns="http://www.w3.org/2000/svg">
<path d="M0.713452 4.48401C0.713452 3.54512 1.47457 2.78401 2.41345 2.78401H13.5135C14.4523 2.78401 15.2135 3.54512 15.2135 4.48401V16.984C15.2135 17.9229 14.4523 18.684 13.5135 18.684H2.41345C1.47457 18.684 0.713452 17.9229 0.713452 16.984V4.48401Z" fill="white" stroke="#2B2B2C" stroke-width="0.6"/>
<path d="M13.6819 3.01502C13.6819 4.09192 12.8087 4.965 11.7317 4.965L4.19521 4.96502C3.11823 4.96502 2.24501 4.09194 2.24501 3.01503C2.24501 1.93808 3.11805 1.06504 4.195 1.06504L11.732 1.06504C12.8089 1.06504 13.6819 1.93808 13.6819 3.01502Z" fill="white" stroke="#2B2B2C" stroke-width="0.6"/>
<path d="M0.413452 7.68909L1.21345 7.68909C1.76574 7.68909 2.21345 7.24137 2.21345 6.68909L2.21345 2.67639" stroke="#2B2B2C" stroke-width="0.6"/>
<path d="M15.5134 7.68909L14.7134 7.68909C14.1611 7.68909 13.7134 7.24137 13.7134 6.68909L13.7134 2.67639" stroke="#2B2B2C" stroke-width="0.6"/>
</svg></g>
<g transform="translate(71, 302)"><svg width="16" height="22" viewBox="0 0 16 22" fill="none" xmlns="http://www.w3.org/2000/svg">
<path d="M0.713452 4.48401C0.713452 3.54512 1.47457 2.78401 2.41345 2.78401H13.5135C14.4523 2.78401 15.2135 3.54512 15.2135 4.48401V16.984C15.2135 17.9229 14.4523 18.684 13.5135 18.684H2.41345C1.47457 18.684 0.713452 17.9229 0.713452 16.984V4.48401Z" fill="white" stroke="#2B2B2C" stroke-width="0.6"/>
<path d="M13.6819 3.01502C13.6819 4.09192 12.8087 4.965 11.7317 4.965L4.19521 4.96502C3.11823 4.96502 2.24501 4.09194 2.24501 3.01503C2.24501 1.93808 3.11805 1.06504 4.195 1.06504L11.732 1.06504C12.8089 1.06504 13.6819 1.93808 13.6819 3.01502Z" fill="white" stroke="#2B2B2C" stroke-width="0.6"/>
<path d="M0.413452 7.68909L1.21345 7.68909C1.76574 7.68909 2.21345 7.24137 2.21345 6.68909L2.21345 2.67639" stroke="#2B2B2C" stroke-width="0.6"/>
<path d="M15.5134 7.68909L14.7134 7.68909C14.1611 7.68909 13.7134 7.24137 13.7134 6.68909L13.7134 2.67639" stroke="#2B2B2C" stroke-width="0.6"/>
</svg></g>
<g transform="translate(22, 274)"><svg width="16" height="22" viewBox="0 0 16 22" fill="none" xmlns="http://www.w3.org/2000/svg">
<path d="M0.713452 4.48401C0.713452 3.54512 1.47457 2.78401 2.41345 2.78401H13.5135C14.4523 2.78401 15.2135 3.54512 15.2135 4.48401V16.984C15.2135 17.9229 14.4523 18.684 13.5135 18.684H2.41345C1.47457 18.684 0.713452 17.9229 0.713452 16.984V4.48401Z" fill="white" stroke="#2B2B2C" stroke-width="0.6"/>
<path d="M13.6819 3.01502C13.6819 4.09192 12.8087 4.965 11.7317 4.965L4.19521 4.96502C3.11823 4.96502 2.24501 4.09194 2.24501 3.01503C2.24501 1.93808 3.11805 1.06504 4.195 1.06504L11.732 1.06504C12.8089 1.06504 13.6819 1.93808 13.6819 3.01502Z" fill="white" stroke="#2B2B2C" stroke-width="0.6"/>
<path d="M0.413452 7.68909L1.21345 7.68909C1.76574 7.68909 2.21345 7.24137 2.21345 6.68909L2.21345 2.67639" stroke="#2B2B2C" stroke-width="0.6"/>
<path d="M15.5134 7.68909L14.7134 7.68909C14.1611 7.68909 13.7134 7.24137 13.7134 6.68909L13.7134 2.67639" stroke="#2B2B2C" stroke-width="0.6"/>
</svg></g>
<g transform="translate(55, 274)"><svg width="16" height="22" viewBox="0 0 16 22" fill="none" xmlns="http://www.w3.org/2000/svg">
<path d="M0.713452 4.48401C0.713452 3.54512 1.47457 2.78401 2.41345 2.78401H13.5135C14.4523 2.78401 15.2135 3.54512 15.2135 4.48401V16.984C15.2135 17.9229 14.4523 18.684 13.5135 18.684H2.41345C1.47457 18.684 0.713452 17.9229 0.713452 16.984V4.48401Z" fill="white" stroke="#2B2B2C" stroke-width="0.6"/>
<path d="M13.6819 3.01502C13.6819 4.09192 12.8087 4.965 11.7317 4.965L4.19521 4.96502C3.11823 4.96502 2.24501 4.09194 2.24501 3.01503C2.24501 1.93808 3.11805 1.06504 4.195 1.06504L11.732 1.06504C12.8089 1.06504 13.6819 1.93808 13.6819 3.01502Z" fill="white" stroke="#2B2B2C" stroke-width="0.6"/>
<path d="M0.413452 7.68909L1.21345 7.68909C1.76574 7.68909 2.21345 7.24137 2.21345 6.68909L2.21345 2.67639" stroke="#2B2B2C" stroke-width="0.6"/>
<path d="M15.5134 7.68909L14.7134 7.68909C14.1611 7.68909 13.7134 7.24137 13.7134 6.68909L13.7134 2.67639" stroke="#2B2B2C" stroke-width="0.6"/>
</svg></g>
<g transform="translate(6, 240)"><svg width="16" height="22" viewBox="0 0 16 22" fill="none" xmlns="http://www.w3.org/2000/svg">
<path d="M0.713452 4.48401C0.713452 3.54512 1.47457 2.78401 2.41345 2.78401H13.5135C14.4523 2.78401 15.2135 3.54512 15.2135 4.48401V16.984C15.2135 17.9229 14.4523 18.684 13.5135 18.684H2.41345C1.47457 18.684 0.713452 17.9229 0.713452 16.984V4.48401Z" fill="white" stroke="#2B2B2C" stroke-width="0.6"/>
<path d="M13.6819 3.01502C13.6819 4.09192 12.8087 4.965 11.7317 4.965L4.19521 4.96502C3.11823 4.96502 2.24501 4.09194 2.24501 3.01503C2.24501 1.93808 3.11805 1.06504 4.195 1.06504L11.732 1.06504C12.8089 1.06504 13.6819 1.93808 13.6819 3.01502Z" fill="white" stroke="#2B2B2C" stroke-width="0.6"/>
<path d="M0.413452 7.68909L1.21345 7.68909C1.76574 7.68909 2.21345 7.24137 2.21345 6.68909L2.21345 2.67639" stroke="#2B2B2C" stroke-width="0.6"/>
<path d="M15.5134 7.68909L14.7134 7.68909C14.1611 7.68909 13.7134 7.24137 13.7134 6.68909L13.7134 2.67639" stroke="#2B2B2C" stroke-width="0.6"/>
</svg></g>
<g transform="translate(22, 240)"><svg width="16" height="22" viewBox="0 0 16 22" fill="none" xmlns="http://www.w3.org/2000/svg">
<path d="M0.713452 4.48401C0.713452 3.54512 1.47457 2.78401 2.41345 2.78401H13.5135C14.4523 2.78401 15.2135 3.54512 15.2135 4.48401V16.984C15.2135 17.9229 14.4523 18.684 13.5135 18.684H2.41345C1.47457 18.684 0.713452 17.9229 0.713452 16.984V4.48401Z" fill="white" stroke="#2B2B2C" stroke-width="0.6"/>
<path d="M13.6819 3.01502C13.6819 4.09192 12.8087 4.965 11.7317 4.965L4.19521 4.96502C3.11823 4.96502 2.24501 4.09194 2.24501 3.01503C2.24501 1.93808 3.11805 1.06504 4.195 1.06504L11.732 1.06504C12.8089 1.06504 13.6819 1.93808 13.6819 3.01502Z" fill="white" stroke="#2B2B2C" stroke-width="0.6"/>
<path d="M0.413452 7.68909L1.21345 7.68909C1.76574 7.68909 2.21345 7.24137 2.21345 6.68909L2.21345 2.67639" stroke="#2B2B2C" stroke-width="0.6"/>
<path d="M15.5134 7.68909L14.7134 7.68909C14.1611 7.68909 13.7134 7.24137 13.7134 6.68909L13.7134 2.67639" stroke="#2B2B2C" stroke-width="0.6"/>
</svg></g>
<g transform="translate(55, 240)"><svg width="16" height="22" viewBox="0 0 16 22" fill="none" xmlns="http://www.w3.org/2000/svg">
<path d="M0.713452 4.48401C0.713452 3.54512 1.47457 2.78401 2.41345 2.78401H13.5135C14.4523 2.78401 15.2135 3.54512 15.2135 4.48401V16.984C15.2135 17.9229 14.4523 18.684 13.5135 18.684H2.41345C1.47457 18.684 0.713452 17.9229 0.713452 16.984V4.48401Z" fill="white" stroke="#2B2B2C" stroke-width="0.6"/>
<path d="M13.6819 3.01502C13.6819 4.09192 12.8087 4.965 11.7317 4.965L4.19521 4.96502C3.11823 4.96502 2.24501 4.09194 2.24501 3.01503C2.24501 1.93808 3.11805 1.06504 4.195 1.06504L11.732 1.06504C12.8089 1.06504 13.6819 1.93808 13.6819 3.01502Z" fill="white" stroke="#2B2B2C" stroke-width="0.6"/>
<path d="M0.413452 7.68909L1.21345 7.68909C1.76574 7.68909 2.21345 7.24137 2.21345 6.68909L2.21345 2.67639" stroke="#2B2B2C" stroke-width="0.6"/>
<path d="M15.5134 7.68909L14.7134 7.68909C14.1611 7.68909 13.7134 7.24137 13.7134 6.68909L13.7134 2.67639" stroke="#2B2B2C" stroke-width="0.6"/>
</svg></g>
<g transform="translate(71, 240)"><svg width="16" height="22" viewBox="0 0 16 22" fill="none" xmlns="http://www.w3.org/2000/svg">
<path d="M0.713452 4.48401C0.713452 3.54512 1.47457 2.78401 2.41345 2.78401H13.5135C14.4523 2.78401 15.2135 3.54512 15.2135 4.48401V16.984C15.2135 17.9229 14.4523 18.684 13.5135 18.684H2.41345C1.47457 18.684 0.713452 17.9229 0.713452 16.984V4.48401Z" fill="white" stroke="#2B2B2C" stroke-width="0.6"/>
<path d="M13.6819 3.01502C13.6819 4.09192 12.8087 4.965 11.7317 4.965L4.19521 4.96502C3.11823 4.96502 2.24501 4.09194 2.24501 3.01503C2.24501 1.93808 3.11805 1.06504 4.195 1.06504L11.732 1.06504C12.8089 1.06504 13.6819 1.93808 13.6819 3.01502Z" fill="white" stroke="#2B2B2C" stroke-width="0.6"/>
<path d="M0.413452 7.68909L1.21345 7.68909C1.76574 7.68909 2.21345 7.24137 2.21345 6.68909L2.21345 2.67639" stroke="#2B2B2C" stroke-width="0.6"/>
<path d="M15.5134 7.68909L14.7134 7.68909C14.1611 7.68909 13.7134 7.24137 13.7134 6.68909L13.7134 2.67639" stroke="#2B2B2C" stroke-width="0.6"/>
</svg></g>
<g transform="translate(72, 518)"><svg width="13" height="13" viewBox="0 0 13 13" fill="none" xmlns="http://www.w3.org/2000/svg">
<path d="M7.52221 8.70898C7.52221 9.91784 6.54223 10.8978 5.33337 10.8978C4.12451 10.8978 3.14453 9.91784 3.14453 8.70898C3.14453 7.50012 4.12451 6.52014 5.33337 6.52014C6.54223 6.52014 7.52221 7.50012 7.52221 8.70898Z" stroke="#2B2B2C" stroke-width="0.6"/>
<path d="M8.14788 2.45516C8.14788 2.97325 7.72789 3.39324 7.2098 3.39324C6.69172 3.39324 6.27173 2.97325 6.27173 2.45516C6.27173 1.93708 6.69172 1.51709 7.2098 1.51709C7.72789 1.51709 8.14788 1.93708 8.14788 2.45516Z" stroke="#2B2B2C" stroke-width="0.6"/>
<path d="M6.89685 7.14559L7.29162 5.56651C7.42175 5.04599 7.12918 4.51304 6.62018 4.34338V4.34338C6.0822 4.16405 5.50071 4.4548 5.32138 4.99278L4.70801 6.8329L5.64608 8.39635" stroke="#2B2B2C" stroke-width="0.6" stroke-linecap="round" stroke-linejoin="round"/>
<path d="M6.89673 7.14539H8.46018L9.71095 9.64692H9.4546C8.83968 9.64692 8.2719 9.31742 7.96682 8.78352L7.20942 7.45808" stroke="#2B2B2C" stroke-width="0.6" stroke-linejoin="round"/>
</svg></g>
<g transform="translate(50, 635)"><svg width="17" height="13" viewBox="0 0 17 13" fill="none" xmlns="http://www.w3.org/2000/svg">
<path d="M9.4682 3.55355L8.08967 9.27727H7.18677L6.47735 6.64919C6.24625 5.77854 6.07159 5.06106 5.95335 4.49675C5.82436 5.08256 5.64701 5.80004 5.42128 6.64919L4.71993 9.27727H3.78478L2.39819 3.55355H3.16404L3.80897 6.3106C4.00782 7.18125 4.16637 7.93098 4.2846 8.55979C4.4942 7.65689 4.68231 6.90716 4.84891 6.3106L5.6067 3.55355H6.33224L7.06585 6.3106C7.2432 6.96091 7.42593 7.70795 7.61403 8.55172C7.81289 7.58971 7.97412 6.84267 8.09773 6.3106L8.74265 3.55355H9.4682Z" fill="black"/>
<path d="M12.7542 3.42456C13.1251 3.42456 13.4637 3.48905 13.77 3.61804C14.0817 3.74165 14.4122 3.95125 14.7616 4.24684L14.3424 4.74666C14.0414 4.48331 13.7673 4.30327 13.5201 4.20653C13.2729 4.10979 13.0149 4.06143 12.7462 4.06143C12.3377 4.06143 11.983 4.16085 11.682 4.3597C11.3865 4.55856 11.158 4.83802 10.9968 5.19811C10.8356 5.55282 10.755 5.95858 10.755 6.41541C10.755 6.87223 10.8356 7.28068 10.9968 7.64077C11.158 7.99547 11.3838 8.27226 11.674 8.47111C11.9696 8.66996 12.3108 8.76939 12.6978 8.76939C13.0256 8.76939 13.3159 8.70489 13.5685 8.57591C13.821 8.44155 14.1059 8.22389 14.423 7.92292L14.8664 8.40661C14.5009 8.7667 14.1543 9.02467 13.8264 9.18053C13.4986 9.33101 13.1251 9.40625 12.7059 9.40625C12.1469 9.40625 11.6632 9.27726 11.2548 9.01929C10.8517 8.76132 10.5427 8.40661 10.3277 7.95517C10.1127 7.50372 10.0052 6.98778 10.0052 6.40734C10.0052 5.83228 10.1127 5.31903 10.3277 4.86758C10.5427 4.41613 10.8571 4.06411 11.2709 3.81152C11.6847 3.55355 12.1792 3.42456 12.7542 3.42456Z" fill="black"/>
</svg></g>
<g transform="translate(50, 653)"><svg xmlns="http://www.w3.org/2000/svg" width="17" height="13" fill="none" viewBox="0 0 17 13"><path stroke="#2B2B2C" stroke-width=".6" d="M3.748 7.467a.667.667 0 1 0 1.335 0 .667.667 0 0 0-1.335 0Z"/><path stroke="#2B2B2C" stroke-linecap="round" stroke-linejoin="round" stroke-width=".6" d="m13.089 7.161-.2 3.56a.857.857 0 0 1-1.707.031l-.294-3.201-.81-2.728a.472.472 0 0 1 .308-.584l1.165-.376a.472.472 0 0 1 .594.303l.921 2.822a.472.472 0 0 1 .023.173Z"/><path stroke="#2B2B2C" stroke-width=".6" d="M11.245 1.855a.94.94 0 1 1-1.798.55.94.94 0 0 1 1.798-.55Z"/><path stroke="#2B2B2C" stroke-linecap="round" stroke-width=".6" d="m8.908 7.113 1.866-.566a.236.236 0 0 0 .158-.158l.456-1.532M8.09 8.134h-5"/><path stroke="#2B2B2C" stroke-linecap="round" stroke-linejoin="round" stroke-width=".6" d="M7.432 8.134v-.438 0a.941.941 0 0 0-1.113-.926L5.083 7"/></svg></g>
<g transform="translate(76, 564)"><svg width="13" height="27" viewBox="0 0 13 27" fill="none" xmlns="http://www.w3.org/2000/svg">
<rect x="0.401855" y="26.3997" width="26" height="12" rx="1.38534" transform="rotate(-90 0.401855 26.3997)" fill="#65B152"/>
<path d="M3.44751 18.0164L3.44751 22.208L9.41151 22.208L9.41151 17.9156L8.42871 17.9156L8.42871 21.0236L6.82431 21.0236L6.82431 18.2012L5.83311 18.2012L5.83311 21.0236L4.43031 21.0236L4.43031 18.0164L3.44751 18.0164Z" fill="white"/>
<path d="M9.41151 11.6918L6.25311 13.8674L3.44751 11.9186L3.44751 13.229L5.41311 14.5562L3.44751 15.8834L3.44751 17.219L6.24471 15.2786L9.41151 17.4458L9.41151 16.1522L7.10151 14.573L9.41151 13.0106L9.41151 11.6918Z" fill="white"/>
<path d="M3.44751 9.76754L3.44751 10.9519L9.41151 10.9519L9.41151 9.76754L3.44751 9.76754Z" fill="white"/>
<path d="M3.44751 4.22459L3.44751 8.88659L4.44711 8.88659L4.44711 7.15619L9.41151 7.15619L9.41151 5.97179L4.44711 5.97179L4.44711 4.22459L3.44751 4.22459Z" fill="white"/>
</svg></g>
<g transform="translate(40, 180)"><svg width="13" height="12" viewBox="0 0 13 12" fill="none" xmlns="http://www.w3.org/2000/svg">
<g clip-path="url(#e13984-clip0_887_51915)">
<path d="M1.49023 8.8888V3.11095C1.49023 2.81857 1.72726 2.58154 2.01964 2.58154H10.836C11.1284 2.58154 11.3654 2.81857 11.3654 3.11095V8.8888C11.3654 9.18118 11.1284 9.4182 10.836 9.4182H2.01964C1.72726 9.4182 1.49023 9.18118 1.49023 8.8888Z" stroke="#2B2B2C" stroke-width="0.6" stroke-linejoin="round"/>
<path d="M3.76929 2.58164V9.25194M9.08669 9.25194V2.58164M7.94725 2.58164V1.59178C7.94725 1.2994 7.71022 1.06238 7.41784 1.06238H5.43814C5.14575 1.06238 4.90873 1.2994 4.90873 1.59178V2.58164" stroke="#2B2B2C" stroke-width="0.6" stroke-linejoin="round"/>
<path d="M10.2263 10.1778C10.2263 10.5974 9.88619 10.9375 9.46666 10.9375C9.04713 10.9375 8.70703 10.5974 8.70703 10.1778C8.70703 9.75831 9.04713 9.41821 9.46666 9.41821C9.88619 9.41821 10.2263 9.75831 10.2263 10.1778Z" stroke="#2B2B2C" stroke-width="0.6"/>
<path d="M4.14963 10.1778C4.14963 10.5974 3.80953 10.9375 3.39 10.9375C2.97047 10.9375 2.63037 10.5974 2.63037 10.1778C2.63037 9.75831 2.97047 9.41821 3.39 9.41821C3.80953 9.41821 4.14963 9.75831 4.14963 10.1778Z" stroke="#2B2B2C" stroke-width="0.6"/>
</g>
<defs>
<clipPath id="e13984-clip0_887_51915">
<rect width="11.9999" height="11.9999" fill="white" transform="translate(0.427979)"/>
</clipPath>
</defs>
</svg></g>
<g transform="translate(3, 564)"><svg width="13" height="27" viewBox="0 0 13 27" fill="none" xmlns="http://www.w3.org/2000/svg">
<rect x="12.4136" y="0.399414" width="26" height="12" rx="1.38534" transform="rotate(90 12.4136 0.399414)" fill="#65B152"/>
<path d="M9.36792 8.78266L9.36792 4.59106L3.40392 4.59106L3.40392 8.88346L4.38672 8.88346L4.38672 5.77546L5.99112 5.77546L5.99112 8.59786L6.98232 8.59786L6.98232 5.77546L8.38512 5.77546L8.38512 8.78266L9.36792 8.78266Z" fill="white"/>
<path d="M3.40392 15.1073L6.56232 12.9317L9.36792 14.8805L9.36792 13.5701L7.40232 12.2429L9.36792 10.9157L9.36792 9.58007L6.57072 11.5205L3.40392 9.35327L3.40392 10.6469L5.71392 12.2261L3.40392 13.7885L3.40392 15.1073Z" fill="white"/>
<path d="M9.36792 17.0315L9.36792 15.8471L3.40392 15.8471L3.40392 17.0315L9.36792 17.0315Z" fill="white"/>
<path d="M9.36792 22.5745L9.36792 17.9125L8.36832 17.9125L8.36832 19.6429L3.40392 19.6429L3.40392 20.8273L8.36832 20.8273L8.36832 22.5745L9.36792 22.5745Z" fill="white"/>
</svg></g>
<g transform="translate(40, 160)"><svg width="13" height="13" viewBox="0 0 13 13" fill="none" xmlns="http://www.w3.org/2000/svg">
<path d="M5.12144 6.07415L4.09741 4.36743" stroke="#2B2B2C" stroke-width="0.6" stroke-linecap="round" stroke-linejoin="round"/>
<path d="M5.12151 4.36743H4.14728C3.89684 4.36743 3.65665 4.46692 3.47956 4.64401L3.41479 4.70877" stroke="#2B2B2C" stroke-width="0.6" stroke-linecap="round" stroke-linejoin="round"/>
<path d="M4.43896 8.12203C5.46299 7.098 6.82837 6.41532 8.53508 6.07397" stroke="#2B2B2C" stroke-width="0.6"/>
<path d="M2.73193 8.12226C3.64218 7.21201 5.80402 5.39151 8.19342 5.05017" stroke="#2B2B2C" stroke-width="0.6" stroke-linecap="round" stroke-linejoin="round"/>
<path d="M4.43907 8.122C4.43907 9.06459 3.67494 9.82872 2.73235 9.82872C1.78976 9.82872 1.02563 9.06459 1.02563 8.122C1.02563 7.17941 1.78976 6.41528 2.73235 6.41528C3.67494 6.41528 4.43907 7.17941 4.43907 8.122Z" stroke="#2B2B2C" stroke-width="0.6"/>
<path d="M11.266 8.122C11.266 9.06459 10.5018 9.82872 9.55926 9.82872C8.61666 9.82872 7.85254 9.06459 7.85254 8.122C7.85254 7.17941 8.61666 6.41528 9.55926 6.41528C10.5018 6.41528 11.266 7.17941 11.266 8.122Z" stroke="#2B2B2C" stroke-width="0.6"/>
<path d="M9.55887 8.1221L7.74825 3.59555C7.60485 3.23704 7.25762 3.00195 6.87149 3.00195H6.82812" stroke="#2B2B2C" stroke-width="0.6" stroke-linecap="round" stroke-linejoin="round"/>
</svg></g>
<g transform="translate(61, 687)"><svg width="13" height="13" viewBox="0 0 13 13" fill="none" xmlns="http://www.w3.org/2000/svg">
<path d="M8.21014 9.30169L2.68956 4.10585C2.34805 3.78444 1.81296 3.79255 1.48135 4.12416L1.35498 4.25053" stroke="#2B2B2C" stroke-width="0.6" stroke-linecap="round" stroke-linejoin="round"/>
<path d="M4.24145 10.0234C4.24145 10.6212 3.75684 11.1058 3.15905 11.1058C2.56126 11.1058 2.07666 10.6212 2.07666 10.0234C2.07666 9.42564 2.56126 8.94104 3.15905 8.94104C3.75684 8.94104 4.24145 9.42564 4.24145 10.0234Z" stroke="#2B2B2C" stroke-width="0.6"/>
<path d="M10.3747 10.0234C10.3747 10.6212 9.89014 11.1058 9.29235 11.1058C8.69456 11.1058 8.20996 10.6212 8.20996 10.0234C8.20996 9.42564 8.69456 8.94104 9.29235 8.94104C9.89014 8.94104 10.3747 9.42564 10.3747 10.0234Z" stroke="#2B2B2C" stroke-width="0.6"/>
<path d="M3.88037 9.30191L6.04516 7.49792" stroke="#2B2B2C" stroke-width="0.6"/>
<path d="M3.15918 4.61157H10.7359V4.89494C10.7359 6.33254 9.57052 7.49795 8.13292 7.49795H5.68476" stroke="#2B2B2C" stroke-width="0.6"/>
<path d="M10.7355 4.61148V3.16829L9.65307 2.0859L7.48828 1.7251V4.25068" stroke="#2B2B2C" stroke-width="0.6" stroke-linecap="round" stroke-linejoin="round"/>
</svg></g>
<text x="14" y="764" text-anchor="middle" font-size="8">203</text>
<text x="30" y="764" text-anchor="middle" font-size="8">204</text>
<text x="63" y="764" text-anchor="middle" font-size="8">205</text>
<text x="79" y="764" text-anchor="middle" font-size="8">206</text>
<text x="14" y="726" text-anchor="middle" font-size="8">207</text>
<text x="30" y="726" text-anchor="middle" font-size="8">208</text>
<text x="63" y="726" text-anchor="middle" font-size="8">209</text>
<text x="79" y="726" text-anchor="middle" font-size="8">210</text>
<text x="14" y="508" text-anchor="middle" font-size="8">211</text>
<text x="30" y="508" text-anchor="middle" font-size="8">212</text>
<text x="14" y="472" text-anchor="middle" font-size="8">215</text>
<text x="30" y="472" text-anchor="middle" font-size="8">216</text>
<text x="63" y="472" text-anchor="middle" font-size="8">217</text>
<text x="79" y="472" text-anchor="middle" font-size="8">218</text>
<text x="14" y="446" text-anchor="middle" font-size="8">219</text>
<text x="30" y="446" text-anchor="middle" font-size="8">220</text>
<text x="63" y="446" text-anchor="middle" font-size="8">221</text>
<text x="79" y="446" text-anchor="middle" font-size="8">222</text>
<text x="14" y="420" text-anchor="middle" font-size="8">223</text>
<text x="30" y="420" text-anchor="middle" font-size="8">224</text>
<text x="63" y="420" text-anchor="middle" font-size="8">225</text>
<text x="79" y="420" text-anchor="middle" font-size="8">226</text>
<text x="14" y="394" text-anchor="middle" font-size="8">227</text>
<text x="30" y="394" text-anchor="middle" font-size="8">228</text>
<text x="63" y="394" text-anchor="middle" font-size="8">229</text>
<text x="79" y="394" text-anchor="middle" font-size="8">230</text>
<text x="14" y="368" text-anchor="middle" font-size="8">231</text>
<text x="30" y="368" text-anchor="middle" font-size="8">232</text>
<text x="63" y="368" text-anchor="middle" font-size="8">233</text>
<text x="79" y="368" text-anchor="middle" font-size="8">234</text>
<text x="14" y="342" text-anchor="middle" font-size="8">235</text>
<text x="30" y="342" text-anchor="middle" font-size="8">236</text>
<text x="63" y="342" text-anchor="middle" font-size="8">237</text>
<text x="79" y="342" text-anchor="middle" font-size="8">238</text>
<text x="14" y="316" text-anchor="middle" font-size="8">239</text>
<text x="30" y="316" text-anchor="middle" font-size="8">240</text>
<text x="63" y="316" text-anchor="middle" font-size="8">241</text>
<text x="79" y="316" text-anchor="middle" font-size="8">242</text>
<text x="30" y="288" text-anchor="middle" font-size="8">243</text>
<text x="63" y="288" text-anchor="middle" font-size="8">244</text>
<text x="14" y="254" text-anchor="middle" font-size="8">245</text>
<text x="30" y="254" text-anchor="middle" font-size="8">246</text>
<text x="63" y="254" text-anchor="middle" font-size="8">247</text>
<text x="79" y="254" text-anchor="middle" font-size="8">248</text>
</svg>
