<svg xmlns="http://www.w3.org/2000/svg" xmlns:xlink="http://www.w3.org/1999/xlink" width="92" height="617" viewBox="0 0 92 617">
<svg xmlns="http://www.w3.org/2000/svg" width="92" height="617" fill="none" viewBox="0 0 92 617"><path fill="#606568" d="M73.392 614a3 3 0 0 1-3 3H69.7a3 3 0 0 1-3-3v-16.874h6.692V614ZM25.309 614a3 3 0 0 1-3 3h-.692a3 3 0 0 1-3-3v-16.874h6.692V614Z"/><path fill="#F5F5F5" stroke="#33867E" stroke-width="3" d="M10.006 1.5h71.999a7.5 7.5 0 0 1 7.5 7.5v493.476c0 31.028-.013 58.548-5.521 78.331-2.745 9.858-6.816 17.635-12.795 22.949-5.949 5.287-13.936 8.269-24.794 8.269h-.827c-10.838 0-18.808-2.982-24.745-8.284-5.968-5.33-10.033-13.139-12.774-23.066-5.5-19.918-5.512-47.708-5.512-79.274 0-57.686-.027-430.532-.031-492.637 0-4.09 3.304-7.264 7.5-7.264Z"/><path fill="#33867E" d="M3.385 6.752a6 6 0 0 1 6-6H83.11a6 6 0 0 1 6 6v5.218H3.385V6.752Z"/><mask id="bg-a" fill="#fff"><path d="M91.005 420.015H87.18v-43.043h3.825v43.043Z"/></mask><path fill="#F5F5F5" d="M91.005 420.015H87.18v-43.043h3.825v43.043Z"/><path fill="#99C3BF" d="M90.005 376.972v43.043h2v-43.043h-2Z" mask="url(#bg-a)"/><mask id="bg-b" fill="#fff"><path d="M91.005 302.082H87.18v-43.044h3.825v43.044Z"/></mask><path fill="#F5F5F5" d="M91.005 302.082H87.18v-43.044h3.825v43.044Z"/><path fill="#99C3BF" d="M90.005 259.038v43.044h2v-43.044h-2Z" mask="url(#bg-b)"/><mask id="bg-c" fill="#fff"><path d="M91.005 245.791H87.18v-45.182h3.825v45.182Z"/></mask><path fill="#F5F5F5" d="M91.005 245.791H87.18v-45.182h3.825v45.182Z"/><path fill="#99C3BF" d="M90.005 200.609v45.182h2v-45.182h-2Z" mask="url(#bg-c)"/><mask id="bg-d" fill="#fff"><path d="M91.005 186.009H87.18v-42.725h3.825v42.725Z"/></mask><path fill="#F5F5F5" d="M91.005 186.009H87.18v-42.725h3.825v42.725Z"/><path fill="#99C3BF" d="M90.005 143.284v42.725h2v-42.725h-2Z" mask="url(#bg-d)"/><mask id="bg-e" fill="#fff"><path d="M91.005 69.79H87.18V24.454h3.825V69.79Z"/></mask><path fill="#F5F5F5" d="M91.005 69.79H87.18V24.454h3.825V69.79Z"/><path fill="#99C3BF" d="M90.005 24.454V69.79h2V24.454h-2Z" mask="url(#bg-e)"/><mask id="bg-f" fill="#fff"><path d="M1.005 420.015H4.83v-43.043H1.005v43.043Z"/></mask><path fill="#F5F5F5" d="M1.005 420.015H4.83v-43.043H1.005v43.043Z"/><path fill="#99C3BF" d="M2.005 376.972v43.043h-2v-43.043h2Z" mask="url(#bg-f)"/><mask id="bg-g" fill="#fff"><path d="M1.005 302.082H4.83v-43.044H1.005v43.044Z"/></mask><path fill="#F5F5F5" d="M1.005 302.082H4.83v-43.044H1.005v43.044Z"/><path fill="#99C3BF" d="M2.005 259.038v43.044h-2v-43.044h2Z" mask="url(#bg-g)"/><mask id="bg-h" fill="#fff"><path d="M1.005 245.791H4.83v-45.182H1.005v45.182Z"/></mask><path fill="#F5F5F5" d="M1.005 245.791H4.83v-45.182H1.005v45.182Z"/><path fill="#99C3BF" d="M2.005 200.609v45.182h-2v-45.182h2Z" mask="url(#bg-h)"/><mask id="bg-i" fill="#fff"><path d="M1.005 186.009H4.83v-42.725H1.005v42.725Z"/></mask><path fill="#F5F5F5" d="M1.005 186.009H4.83v-42.725H1.005v42.725Z"/><path fill="#99C3BF" d="M2.005 143.284v42.725h-2v-42.725h2Z" mask="url(#bg-i)"/><mask id="bg-j" fill="#fff"><path d="M1.005 69.79H4.83V24.454H1.005v45.337Z"/></mask><path fill="#F5F5F5" d="M1.005 69.79H4.83V24.454H1.005v45.337Z"/><path fill="#99C3BF" d="M2.005 24.454v45.337h-2V24.453h2Z" mask="url(#bg-j)"/><path fill="#EBEBEC" d="M34.403 394.986a2 2 0 0 1 2 2v4.659a2 2 0 0 1-2 2H4.004v-8.659h30.4Z"/><path stroke="#000" stroke-opacity=".2" stroke-width=".6" d="M34.403 395.286a1.7 1.7 0 0 1 1.7 1.7v4.659a1.7 1.7 0 0 1-1.7 1.7H4.304v-8.059h30.1Z"/><path fill="#EBEBEC" d="M34.403 159.325a2 2 0 0 1 2 2v4.659a2 2 0 0 1-2 2H4.004v-8.659h30.4Z"/><path stroke="#000" stroke-opacity=".2" stroke-width=".6" d="M34.403 159.625a1.7 1.7 0 0 1 1.7 1.7v4.659a1.7 1.7 0 0 1-1.7 1.7H4.304v-8.059h30.1Z"/><path fill="#EBEBEC" d="M57.606 394.986a2 2 0 0 0-2 2v4.659a2 2 0 0 0 2 2h30.4v-8.659h-30.4Z"/><path stroke="#000" stroke-opacity=".2" stroke-width=".6" d="M57.606 395.286a1.7 1.7 0 0 0-1.7 1.7v4.659a1.7 1.7 0 0 0 1.7 1.7h30.1v-8.059h-30.1Z"/><path fill="#EBEBEC" d="M57.606 217.699a2 2 0 0 0-2 2v4.659a2 2 0 0 0 2 2h30.4v-8.659h-30.4Z"/><path stroke="#000" stroke-opacity=".2" stroke-width=".6" d="M57.606 217.999a1.7 1.7 0 0 0-1.7 1.7v4.659a1.7 1.7 0 0 0 1.7 1.7h30.1v-8.059h-30.1Z"/><path fill="#EBEBEC" d="M4.005 525.648v-94.729h28.837a2 2 0 0 1 2 2v77.983a2 2 0 0 1-.17.806l-5.611 12.746a2 2 0 0 1-1.83 1.194H4.004Z"/><path stroke="#000" stroke-opacity=".2" stroke-width=".6" d="M4.305 525.348v-94.129h28.537a1.7 1.7 0 0 1 1.7 1.7v77.983c0 .236-.05.47-.144.686l-5.612 12.745a1.7 1.7 0 0 1-1.556 1.015H4.305Z"/><path fill="#EBEBEC" d="M88.005 525.119v-94.2H59.168a2 2 0 0 0-2 2v90.2a2 2 0 0 0 2 2h28.837Z"/><path stroke="#000" stroke-opacity=".2" stroke-width=".6" d="M87.705 524.819v-93.6H59.168a1.7 1.7 0 0 0-1.7 1.7v90.2a1.7 1.7 0 0 0 1.7 1.7h28.537Z"/><path fill="#EBEBEC" d="M78.814 340.9a2 2 0 0 1-2-2v-10.126h11.639v12.127l-9.64-.001Z"/><path stroke="#000" stroke-opacity=".2" stroke-width=".6" d="M78.814 340.6a1.7 1.7 0 0 1-1.7-1.7v-9.826h11.039v11.527l-9.34-.001Z"/><path fill="#EBEBEC" d="M27.924 306.791a2 2 0 0 0 2-2v-21.719H2.005v19.066h2v16.844h8.756c1.105-.001 2-.896 2-2v-.48a1 1 0 0 1 1-1h9.636a2 2 0 0 0 2-2v-6.711h.527Z"/><path stroke="#000" stroke-opacity=".2" stroke-width=".6" d="M29.624 304.791v-21.419H2.305v18.466h2v16.844h8.456a1.701 1.701 0 0 0 1.7-1.7v-.48a1.3 1.3 0 0 1 1.3-1.3h9.636a1.7 1.7 0 0 0 1.7-1.7v-7.011h.827a1.7 1.7 0 0 0 1.7-1.7Z"/><path fill="#EBEBEC" d="M64.086 306.791a2 2 0 0 1-2-2v-21.719h27.897v18.95h-1.978v16.96h-9.718a2.001 2.001 0 0 1-2-2v-10.191H64.086Z"/><path stroke="#000" stroke-opacity=".2" stroke-width=".6" d="M62.386 304.791v-21.419h27.297v18.35h-1.978v16.96h-9.418a1.7 1.7 0 0 1-1.7-1.7V306.491H64.086a1.7 1.7 0 0 1-1.7-1.7Z"/><rect width="13.467" height="14.019" fill="#F5F5F5" rx=".873" transform="matrix(1 0 0 -1 51.349 342.963)"/><path fill="#fff" d="M52.897 337.305c0 1.5 1.09 2.728 2.432 2.728h5.477c1.343 0 2.432-1.228 2.431-2.728v-8.036h-10.34v8.036Z"/><path stroke="#888B8E" stroke-dasharray="0.87 1.22" stroke-linecap="round" stroke-linejoin="round" stroke-width=".524" d="M52.898 337.85c0 1.201 1.09 2.183 2.432 2.183h5.477c1.343 0 2.432-.982 2.431-2.183v-6.431h-10.34v6.431Z"/><path stroke="#888B8E" stroke-linecap="round" stroke-width=".524" d="M63.268 331.419v-2.15h-10.37v2.15"/><rect width="13.467" height="14.019" fill="#F5F5F5" rx=".873" transform="matrix(1 0 0 -1 63.093 342.998)"/><path fill="#fff" d="M64.641 337.339c0 1.501 1.09 2.728 2.432 2.728h5.477c1.343 0 2.432-1.227 2.431-2.728v-8.036h-10.34v8.036Z"/><path stroke="#888B8E" stroke-dasharray="0.87 1.22" stroke-linecap="round" stroke-linejoin="round" stroke-width=".524" d="M64.642 337.884c0 1.201 1.09 2.183 2.432 2.183h5.477c1.343 0 2.432-.982 2.431-2.183v-6.43h-10.34v6.43Z"/><path stroke="#888B8E" stroke-linecap="round" stroke-width=".524" d="M75.012 331.454v-2.151h-10.37v2.151"/><path stroke="#888B8E" d="M4.355 328.367h30.259M50.26 328.367h38.074"/><mask id="bg-k" fill="#fff"><path d="M92 351.155H2.152v-28.038H92v28.038Z"/></mask><path fill="#F5F5F5" d="M92 351.155H2.152v-28.038H92v28.038Z"/><path fill="#2B2B2C" d="M91 323.117v28.038h2v-28.038h-2Z" mask="url(#bg-k)"/><mask id="bg-l" fill="#fff"><path d="M0 323.117h4.997v28.038H0v-28.038Z"/></mask><path fill="#F5F5F5" d="M0 323.117h4.997v28.038H0v-28.038Z"/><path fill="#2B2B2C" d="M1 351.155v-28.038h-2v28.038h2Z" mask="url(#bg-l)"/><path fill="#D7D8D9" d="M25.594 533.48c0 1.5-1.132 2.728-2.528 2.728h-5.693c-1.397 0-2.529-1.228-2.528-2.728v-8.036h10.749v8.036Z"/><path stroke="#888B8E" stroke-dasharray="1 1.4" stroke-linecap="round" stroke-linejoin="round" stroke-width=".6" d="M25.594 534.025c0 1.201-1.132 2.183-2.528 2.183h-5.693c-1.397 0-2.529-.982-2.528-2.183v-6.431h10.749v6.431Z"/><path stroke="#888B8E" stroke-linecap="round" stroke-width=".6" d="M14.813 527.594v-2.15h10.78v2.15"/><path fill="#EBEBEC" d="M29.873 124.919a2 2 0 0 1 2 2v5.024a2 2 0 0 1-2 2h-9.317a2 2 0 0 1-2-2v-5.024a2 2 0 0 1 2-2h9.317Z"/><path stroke="#000" stroke-opacity=".2" stroke-width=".6" d="M29.873 125.219a1.7 1.7 0 0 1 1.7 1.7v5.024a1.7 1.7 0 0 1-1.7 1.7h-9.317a1.7 1.7 0 0 1-1.7-1.7v-5.024a1.7 1.7 0 0 1 1.7-1.7h9.317Z"/><path fill="#EBEBEC" d="M13.27 121.71a2 2 0 0 1 2 2v8.233a2 2 0 0 1-2 2H4.005V121.71h9.265Z"/><path stroke="#000" stroke-opacity=".2" stroke-width=".6" d="M13.27 122.01a1.7 1.7 0 0 1 1.7 1.7v8.233a1.7 1.7 0 0 1-1.7 1.7H4.306V122.01h8.966Z"/><path fill="#EBEBEC" d="M78.74 121.71a2 2 0 0 0-2 2v8.233a2 2 0 0 0 2 2h9.264V121.71H78.74Z"/><path stroke="#000" stroke-opacity=".2" stroke-width=".6" d="M78.74 122.01a1.7 1.7 0 0 0-1.7 1.7v8.233a1.7 1.7 0 0 0 1.7 1.7h8.964V122.01H78.74Z"/><mask id="bg-m" fill="#fff"><path d="M92 119.364H2.152V91.326H92v28.038Z"/></mask><path fill="#F5F5F5" d="M92 119.364H2.152V91.326H92v28.038Z"/><path fill="#2B2B2C" d="M91 91.326v28.038h2V91.326h-2Z" mask="url(#bg-m)"/><mask id="bg-n" fill="#fff"><path d="M0 91.326h4.997v28.038H0V91.326Z"/></mask><path fill="#F5F5F5" d="M0 91.326h4.997v28.038H0V91.326Z"/><path fill="#2B2B2C" d="M1 119.364V91.326h-2v28.038h2Z" mask="url(#bg-n)"/><path fill="#33867E" d="M12.302 524.661H2.118c0 47.148 5.405 87.827 44.155 87.827v-44.387c-33.555 0-33.971-43.44-33.971-43.44Z"/><path fill="#33867E" d="M79.709 524.661h10.183c0 47.148-5.404 87.827-44.155 87.827v-44.387c33.556 0 33.972-43.44 33.972-43.44Z"/><path fill="#EBEBEC" d="M13.508 356.532a2 2 0 0 1 2 2v10.127H3.827v-12.127h9.68Z"/><path stroke="#000" stroke-opacity=".2" stroke-width=".6" d="M13.508 356.832a1.7 1.7 0 0 1 1.7 1.7v9.827H4.127v-11.527h9.38Z"/><path fill="#EBEBEC" d="M78.324 356.532a2 2 0 0 0-2 2v10.127h11.681v-12.127h-9.68Z"/><path stroke="#000" stroke-opacity=".2" stroke-width=".6" d="M78.324 356.832a1.7 1.7 0 0 0-1.7 1.7v9.827h11.081v-11.527h-9.38Z"/><rect width="12" height="12" x="16.626" y="356.152" fill="#fff" stroke="#888B8E" stroke-dasharray="1.2 1.2" stroke-linecap="round" stroke-width=".6" rx="2"/><rect width="12" height="12" x="30.017" y="356.152" fill="#fff" stroke="#888B8E" stroke-dasharray="1.2 1.2" stroke-linecap="round" stroke-width=".6" rx="2"/><rect width="12" height="12" x="63.127" y="356.152" fill="#fff" stroke="#888B8E" stroke-dasharray="1.2 1.2" stroke-linecap="round" stroke-width=".6" rx="2"/><path fill="#888B8E" d="M57.638 368.159a.5.5 0 0 0 0 1v-1Zm30.367 0H57.638v1h30.367v-1ZM42.156 369.159a.5.5 0 0 0 0-1v1Zm0-1H3.946v1h38.21v-1Z"/><path fill="#EBEBEC" d="M78.324 83.808a2 2 0 0 1-2-2V71.682h11.681v12.126h-9.68Z"/><path stroke="#000" stroke-opacity=".2" stroke-width=".6" d="M78.324 83.508a1.7 1.7 0 0 1-1.7-1.7v-9.826h11.081v11.526h-9.38Z"/><path fill="#EBEBEC" d="M13.508 83.808a2 2 0 0 0 2-2V71.682H3.827v12.126h9.68Z"/><path stroke="#000" stroke-opacity=".2" stroke-width=".6" d="M13.508 83.508a1.7 1.7 0 0 0 1.7-1.7v-9.826H4.127v11.526h9.38Z"/><rect width="12" height="12" x="75.206" y="83.583" fill="#fff" stroke="#888B8E" stroke-dasharray="1.2 1.2" stroke-linecap="round" stroke-width=".6" rx="2" transform="rotate(180 75.206 83.583)"/><rect width="12" height="12" x="61.815" y="83.583" fill="#fff" stroke="#888B8E" stroke-dasharray="1.2 1.2" stroke-linecap="round" stroke-width=".6" rx="2" transform="rotate(180 61.815 83.583)"/><rect width="12" height="12" x="28.705" y="83.583" fill="#fff" stroke="#888B8E" stroke-dasharray="1.2 1.2" stroke-linecap="round" stroke-width=".6" rx="2" transform="rotate(180 28.705 83.583)"/><path fill="#888B8E" d="M34.194 72.182a.5.5 0 0 0 0-1v1Zm-30.367 0h30.367v-1H3.827v1ZM49.676 71.182a.5.5 0 1 0 0 1v-1Zm0 1h38.21v-1h-38.21v1Z"/></svg>
<g transform="translate(74, 16)"><svg width="16" height="22" viewBox="0 0 16 22" fill="none" xmlns="http://www.w3.org/2000/svg">
<path d="M0.713452 4.48401C0.713452 3.54512 1.47457 2.78401 2.41345 2.78401H13.5135C14.4523 2.78401 15.2135 3.54512 15.2135 4.48401V16.984C15.2135 17.9229 14.4523 18.684 13.5135 18.684H2.41345C1.47457 18.684 0.713452 17.9229 0.713452 16.984V4.48401Z" fill="white" stroke="#2B2B2C" stroke-width="0.6"/>
<path d="M13.6819 3.01502C13.6819 4.09192 12.8087 4.965 11.7317 4.965L4.19521 4.96502C3.11823 4.96502 2.24501 4.09194 2.24501 3.01503C2.24501 1.93808 3.11805 1.06504 4.195 1.06504L11.732 1.06504C12.8089 1.06504 13.6819 1.93808 13.6819 3.01502Z" fill="white" stroke="#2B2B2C" stroke-width="0.6"/>
<path d="M0.413452 7.68909L1.21345 7.68909C1.76574 7.68909 2.21345 7.24137 2.21345 6.68909L2.21345 2.67639" stroke="#2B2B2C" stroke-width="0.6"/>
<path d="M15.5134 7.68909L14.7134 7.68909C14.1611 7.68909 13.7134 7.24137 13.7134 6.68909L13.7134 2.67639" stroke="#2B2B2C" stroke-width="0.6"/>
</svg></g>
<g transform="translate(60, 16)"><svg width="16" height="22" viewBox="0 0 16 22" fill="none" xmlns="http://www.w3.org/2000/svg">
<path d="M0.713452 4.48401C0.713452 3.54512 1.47457 2.78401 2.41345 2.78401H13.5135C14.4523 2.78401 15.2135 3.54512 15.2135 4.48401V16.984C15.2135 17.9229 14.4523 18.684 13.5135 18.684H2.41345C1.47457 18.684 0.713452 17.9229 0.713452 16.984V4.48401Z" fill="white" stroke="#2B2B2C" stroke-width="0.6"/>
<path d="M13.6819 3.01502C13.6819 4.09192 12.8087 4.965 11.7317 4.965L4.19521 4.96502C3.11823 4.96502 2.24501 4.09194 2.24501 3.01503C2.24501 1.93808 3.11805 1.06504 4.195 1.06504L11.732 1.06504C12.8089 1.06504 13.6819 1.93808 13.6819 3.01502Z" fill="white" stroke="#2B2B2C" stroke-width="0.6"/>
<path d="M0.413452 7.68909L1.21345 7.68909C1.76574 7.68909 2.21345 7.24137 2.21345 6.68909L2.21345 2.67639" stroke="#2B2B2C" stroke-width="0.6"/>
<path d="M15.5134 7.68909L14.7134 7.68909C14.1611 7.68909 13.7134 7.24137 13.7134 6.68909L13.7134 2.67639" stroke="#2B2B2C" stroke-width="0.6"/>
</svg></g>
<g transform="translate(18, 16)"><svg width="16" height="22" viewBox="0 0 16 22" fill="none" xmlns="http://www.w3.org/2000/svg">
<path d="M0.713452 4.48401C0.713452 3.54512 1.47457 2.78401 2.41345 2.78401H13.5135C14.4523 2.78401 15.2135 3.54512 15.2135 4.48401V16.984C15.2135 17.9229 14.4523 18.684 13.5135 18.684H2.41345C1.47457 18.684 0.713452 17.9229 0.713452 16.984V4.48401Z" fill="white" stroke="#2B2B2C" stroke-width="0.6"/>
<path d="M13.6819 3.01502C13.6819 4.09192 12.8087 4.965 11.7317 4.965L4.19521 4.96502C3.11823 4.96502 2.24501 4.09194 2.24501 3.01503C2.24501 1.93808 3.11805 1.06504 4.195 1.06504L11.732 1.06504C12.8089 1.06504 13.6819 1.93808 13.6819 3.01502Z" fill="white" stroke="#2B2B2C" stroke-width="0.6"/>
<path d="M0.413452 7.68909L1.21345 7.68909C1.76574 7.68909 2.21345 7.24137 2.21345 6.68909L2.21345 2.67639" stroke="#2B2B2C" stroke-width="0.6"/>
<path d="M15.5134 7.68909L14.7134 7.68909C14.1611 7.68909 13.7134 7.24137 13.7134 6.68909L13.7134 2.67639" stroke="#2B2B2C" stroke-width="0.6"/>
</svg></g>
<g transform="translate(3, 16)"><svg width="16" height="22" viewBox="0 0 16 22" fill="none" xmlns="http://www.w3.org/2000/svg">
<path d="M0.713452 4.48401C0.713452 3.54512 1.47457 2.78401 2.41345 2.78401H13.5135C14.4523 2.78401 15.2135 3.54512 15.2135 4.48401V16.984C15.2135 17.9229 14.4523 18.684 13.5135 18.684H2.41345C1.47457 18.684 0.713452 17.9229 0.713452 16.984V4.48401Z" fill="white" stroke="#2B2B2C" stroke-width="0.6"/>
<path d="M13.6819 3.01502C13.6819 4.09192 12.8087 4.965 11.7317 4.965L4.19521 4.96502C3.11823 4.96502 2.24501 4.09194 2.24501 3.01503C2.24501 1.93808 3.11805 1.06504 4.195 1.06504L11.732 1.06504C12.8089 1.06504 13.6819 1.93808 13.6819 3.01502Z" fill="white" stroke="#2B2B2C" stroke-width="0.6"/>
<path d="M0.413452 7.68909L1.21345 7.68909C1.76574 7.68909 2.21345 7.24137 2.21345 6.68909L2.21345 2.67639" stroke="#2B2B2C" stroke-width="0.6"/>
<path d="M15.5134 7.68909L14.7134 7.68909C14.1611 7.68909 13.7134 7.24137 13.7134 6.68909L13.7134 2.67639" stroke="#2B2B2C" stroke-width="0.6"/>
</svg></g>
<g transform="translate(74, 44)"><svg width="16" height="22" viewBox="0 0 16 22" fill="none" xmlns="http://www.w3.org/2000/svg">
<path d="M0.713452 17.5374C0.713452 18.4762 1.47457 19.2374 2.41345 19.2374H13.5135C14.4523 19.2374 15.2135 18.4762 15.2135 17.5374V5.03735C15.2135 4.09847 14.4523 3.33735 13.5135 3.33735H2.41345C1.47457 3.33735 0.713452 4.09847 0.713452 5.03735V17.5374Z" fill="white" stroke="#2B2B2C" stroke-width="0.6"/>
<path d="M13.6819 19.0063C13.6819 17.9294 12.8086 17.0564 11.7317 17.0564L4.19515 17.0563C3.11817 17.0563 2.24495 17.9294 2.24495 19.0063C2.24495 20.0833 3.11799 20.9563 4.19494 20.9563L11.7319 20.9563C12.8088 20.9563 13.6819 20.0833 13.6819 19.0063Z" fill="white" stroke="#2B2B2C" stroke-width="0.6"/>
<path d="M0.413452 14.3323L1.21345 14.3323C1.76574 14.3323 2.21345 14.78 2.21345 15.3323L2.21345 19.345" stroke="#2B2B2C" stroke-width="0.6"/>
<path d="M15.5134 14.3323L14.7134 14.3323C14.1611 14.3323 13.7134 14.78 13.7134 15.3323L13.7134 19.345" stroke="#2B2B2C" stroke-width="0.6"/>
</svg></g>
<g transform="translate(60, 44)"><svg width="16" height="22" viewBox="0 0 16 22" fill="none" xmlns="http://www.w3.org/2000/svg">
<path d="M0.713452 17.5374C0.713452 18.4762 1.47457 19.2374 2.41345 19.2374H13.5135C14.4523 19.2374 15.2135 18.4762 15.2135 17.5374V5.03735C15.2135 4.09847 14.4523 3.33735 13.5135 3.33735H2.41345C1.47457 3.33735 0.713452 4.09847 0.713452 5.03735V17.5374Z" fill="white" stroke="#2B2B2C" stroke-width="0.6"/>
<path d="M13.6819 19.0063C13.6819 17.9294 12.8086 17.0564 11.7317 17.0564L4.19515 17.0563C3.11817 17.0563 2.24495 17.9294 2.24495 19.0063C2.24495 20.0833 3.11799 20.9563 4.19494 20.9563L11.7319 20.9563C12.8088 20.9563 13.6819 20.0833 13.6819 19.0063Z" fill="white" stroke="#2B2B2C" stroke-width="0.6"/>
<path d="M0.413452 14.3323L1.21345 14.3323C1.76574 14.3323 2.21345 14.78 2.21345 15.3323L2.21345 19.345" stroke="#2B2B2C" stroke-width="0.6"/>
<path d="M15.5134 14.3323L14.7134 14.3323C14.1611 14.3323 13.7134 14.78 13.7134 15.3323L13.7134 19.345" stroke="#2B2B2C" stroke-width="0.6"/>
</svg></g>
<g transform="translate(46, 44)"><svg width="16" height="22" viewBox="0 0 16 22" fill="none" xmlns="http://www.w3.org/2000/svg">
<path d="M0.713452 17.5374C0.713452 18.4762 1.47457 19.2374 2.41345 19.2374H13.5135C14.4523 19.2374 15.2135 18.4762 15.2135 17.5374V5.03735C15.2135 4.09847 14.4523 3.33735 13.5135 3.33735H2.41345C1.47457 3.33735 0.713452 4.09847 0.713452 5.03735V17.5374Z" fill="white" stroke="#2B2B2C" stroke-width="0.6"/>
<path d="M13.6819 19.0063C13.6819 17.9294 12.8086 17.0564 11.7317 17.0564L4.19515 17.0563C3.11817 17.0563 2.24495 17.9294 2.24495 19.0063C2.24495 20.0833 3.11799 20.9563 4.19494 20.9563L11.7319 20.9563C12.8088 20.9563 13.6819 20.0833 13.6819 19.0063Z" fill="white" stroke="#2B2B2C" stroke-width="0.6"/>
<path d="M0.413452 14.3323L1.21345 14.3323C1.76574 14.3323 2.21345 14.78 2.21345 15.3323L2.21345 19.345" stroke="#2B2B2C" stroke-width="0.6"/>
<path d="M15.5134 14.3323L14.7134 14.3323C14.1611 14.3323 13.7134 14.78 13.7134 15.3323L13.7134 19.345" stroke="#2B2B2C" stroke-width="0.6"/>
</svg></g>
<g transform="translate(18, 44)"><svg width="16" height="22" viewBox="0 0 16 22" fill="none" xmlns="http://www.w3.org/2000/svg">
<path d="M0.713452 17.5374C0.713452 18.4762 1.47457 19.2374 2.41345 19.2374H13.5135C14.4523 19.2374 15.2135 18.4762 15.2135 17.5374V5.03735C15.2135 4.09847 14.4523 3.33735 13.5135 3.33735H2.41345C1.47457 3.33735 0.713452 4.09847 0.713452 5.03735V17.5374Z" fill="white" stroke="#2B2B2C" stroke-width="0.6"/>
<path d="M13.6819 19.0063C13.6819 17.9294 12.8086 17.0564 11.7317 17.0564L4.19515 17.0563C3.11817 17.0563 2.24495 17.9294 2.24495 19.0063C2.24495 20.0833 3.11799 20.9563 4.19494 20.9563L11.7319 20.9563C12.8088 20.9563 13.6819 20.0833 13.6819 19.0063Z" fill="white" stroke="#2B2B2C" stroke-width="0.6"/>
<path d="M0.413452 14.3323L1.21345 14.3323C1.76574 14.3323 2.21345 14.78 2.21345 15.3323L2.21345 19.345" stroke="#2B2B2C" stroke-width="0.6"/>
<path d="M15.5134 14.3323L14.7134 14.3323C14.1611 14.3323 13.7134 14.78 13.7134 15.3323L13.7134 19.345" stroke="#2B2B2C" stroke-width="0.6"/>
</svg></g>
<g transform="translate(3, 44)"><svg width="16" height="22" viewBox="0 0 16 22" fill="none" xmlns="http://www.w3.org/2000/svg">
<path d="M0.713452 17.5374C0.713452 18.4762 1.47457 19.2374 2.41345 19.2374H13.5135C14.4523 19.2374 15.2135 18.4762 15.2135 17.5374V5.03735C15.2135 4.09847 14.4523 3.33735 13.5135 3.33735H2.41345C1.47457 3.33735 0.713452 4.09847 0.713452 5.03735V17.5374Z" fill="white" stroke="#2B2B2C" stroke-width="0.6"/>
<path d="M13.6819 19.0063C13.6819 17.9294 12.8086 17.0564 11.7317 17.0564L4.19515 17.0563C3.11817 17.0563 2.24495 17.9294 2.24495 19.0063C2.24495 20.0833 3.11799 20.9563 4.19494 20.9563L11.7319 20.9563C12.8088 20.9563 13.6819 20.0833 13.6819 19.0063Z" fill="white" stroke="#2B2B2C" stroke-width="0.6"/>
<path d="M0.413452 14.3323L1.21345 14.3323C1.76574 14.3323 2.21345 14.78 2.21345 15.3323L2.21345 19.345" stroke="#2B2B2C" stroke-width="0.6"/>
<path d="M15.5134 14.3323L14.7134 14.3323C14.1611 14.3323 13.7134 14.78 13.7134 15.3323L13.7134 19.345" stroke="#2B2B2C" stroke-width="0.6"/>
</svg></g>
<g transform="translate(71, 137)"><svg width="16" height="22" viewBox="0 0 16 22" fill="none" xmlns="http://www.w3.org/2000/svg">
<path d="M0.713452 4.48401C0.713452 3.54512 1.47457 2.78401 2.41345 2.78401H13.5135C14.4523 2.78401 15.2135 3.54512 15.2135 4.48401V16.984C15.2135 17.9229 14.4523 18.684 13.5135 18.684H2.41345C1.47457 18.684 0.713452 17.9229 0.713452 16.984V4.48401Z" fill="white" stroke="#2B2B2C" stroke-width="0.6"/>
<path d="M13.6819 3.01502C13.6819 4.09192 12.8087 4.965 11.7317 4.965L4.19521 4.96502C3.11823 4.96502 2.24501 4.09194 2.24501 3.01503C2.24501 1.93808 3.11805 1.06504 4.195 1.06504L11.732 1.06504C12.8089 1.06504 13.6819 1.93808 13.6819 3.01502Z" fill="white" stroke="#2B2B2C" stroke-width="0.6"/>
<path d="M0.413452 7.68909L1.21345 7.68909C1.76574 7.68909 2.21345 7.24137 2.21345 6.68909L2.21345 2.67639" stroke="#2B2B2C" stroke-width="0.6"/>
<path d="M15.5134 7.68909L14.7134 7.68909C14.1611 7.68909 13.7134 7.24137 13.7134 6.68909L13.7134 2.67639" stroke="#2B2B2C" stroke-width="0.6"/>
</svg></g>
<g transform="translate(55, 137)"><svg width="16" height="22" viewBox="0 0 16 22" fill="none" xmlns="http://www.w3.org/2000/svg">
<path d="M0.713452 4.48401C0.713452 3.54512 1.47457 2.78401 2.41345 2.78401H13.5135C14.4523 2.78401 15.2135 3.54512 15.2135 4.48401V16.984C15.2135 17.9229 14.4523 18.684 13.5135 18.684H2.41345C1.47457 18.684 0.713452 17.9229 0.713452 16.984V4.48401Z" fill="white" stroke="#2B2B2C" stroke-width="0.6"/>
<path d="M13.6819 3.01502C13.6819 4.09192 12.8087 4.965 11.7317 4.965L4.19521 4.96502C3.11823 4.96502 2.24501 4.09194 2.24501 3.01503C2.24501 1.93808 3.11805 1.06504 4.195 1.06504L11.732 1.06504C12.8089 1.06504 13.6819 1.93808 13.6819 3.01502Z" fill="white" stroke="#2B2B2C" stroke-width="0.6"/>
<path d="M0.413452 7.68909L1.21345 7.68909C1.76574 7.68909 2.21345 7.24137 2.21345 6.68909L2.21345 2.67639" stroke="#2B2B2C" stroke-width="0.6"/>
<path d="M15.5134 7.68909L14.7134 7.68909C14.1611 7.68909 13.7134 7.24137 13.7134 6.68909L13.7134 2.67639" stroke="#2B2B2C" stroke-width="0.6"/>
</svg></g>
<g transform="translate(22, 137)"><svg width="16" height="22" viewBox="0 0 16 22" fill="none" xmlns="http://www.w3.org/2000/svg">
<path d="M0.713452 4.48401C0.713452 3.54512 1.47457 2.78401 2.41345 2.78401H13.5135C14.4523 2.78401 15.2135 3.54512 15.2135 4.48401V16.984C15.2135 17.9229 14.4523 18.684 13.5135 18.684H2.41345C1.47457 18.684 0.713452 17.9229 0.713452 16.984V4.48401Z" fill="white" stroke="#2B2B2C" stroke-width="0.6"/>
<path d="M13.6819 3.01502C13.6819 4.09192 12.8087 4.965 11.7317 4.965L4.19521 4.96502C3.11823 4.96502 2.24501 4.09194 2.24501 3.01503C2.24501 1.93808 3.11805 1.06504 4.195 1.06504L11.732 1.06504C12.8089 1.06504 13.6819 1.93808 13.6819 3.01502Z" fill="white" stroke="#2B2B2C" stroke-width="0.6"/>
<path d="M0.413452 7.68909L1.21345 7.68909C1.76574 7.68909 2.21345 7.24137 2.21345 6.68909L2.21345 2.67639" stroke="#2B2B2C" stroke-width="0.6"/>
<path d="M15.5134 7.68909L14.7134 7.68909C14.1611 7.68909 13.7134 7.24137 13.7134 6.68909L13.7134 2.67639" stroke="#2B2B2C" stroke-width="0.6"/>
</svg></g>
<g transform="translate(6, 137)"><svg width="16" height="22" viewBox="0 0 16 22" fill="none" xmlns="http://www.w3.org/2000/svg">
<path d="M0.713452 4.48401C0.713452 3.54512 1.47457 2.78401 2.41345 2.78401H13.5135C14.4523 2.78401 15.2135 3.54512 15.2135 4.48401V16.984C15.2135 17.9229 14.4523 18.684 13.5135 18.684H2.41345C1.47457 18.684 0.713452 17.9229 0.713452 16.984V4.48401Z" fill="white" stroke="#2B2B2C" stroke-width="0.6"/>
<path d="M13.6819 3.01502C13.6819 4.09192 12.8087 4.965 11.7317 4.965L4.19521 4.96502C3.11823 4.96502 2.24501 4.09194 2.24501 3.01503C2.24501 1.93808 3.11805 1.06504 4.195 1.06504L11.732 1.06504C12.8089 1.06504 13.6819 1.93808 13.6819 3.01502Z" fill="white" stroke="#2B2B2C" stroke-width="0.6"/>
<path d="M0.413452 7.68909L1.21345 7.68909C1.76574 7.68909 2.21345 7.24137 2.21345 6.68909L2.21345 2.67639" stroke="#2B2B2C" stroke-width="0.6"/>
<path d="M15.5134 7.68909L14.7134 7.68909C14.1611 7.68909 13.7134 7.24137 13.7134 6.68909L13.7134 2.67639" stroke="#2B2B2C" stroke-width="0.6"/>
</svg></g>
<g transform="translate(71, 163)"><svg width="16" height="22" viewBox="0 0 16 22" fill="none" xmlns="http://www.w3.org/2000/svg">
<path d="M0.713452 4.48401C0.713452 3.54512 1.47457 2.78401 2.41345 2.78401H13.5135C14.4523 2.78401 15.2135 3.54512 15.2135 4.48401V16.984C15.2135 17.9229 14.4523 18.684 13.5135 18.684H2.41345C1.47457 18.684 0.713452 17.9229 0.713452 16.984V4.48401Z" fill="white" stroke="#2B2B2C" stroke-width="0.6"/>
<path d="M13.6819 3.01502C13.6819 4.09192 12.8087 4.965 11.7317 4.965L4.19521 4.96502C3.11823 4.96502 2.24501 4.09194 2.24501 3.01503C2.24501 1.93808 3.11805 1.06504 4.195 1.06504L11.732 1.06504C12.8089 1.06504 13.6819 1.93808 13.6819 3.01502Z" fill="white" stroke="#2B2B2C" stroke-width="0.6"/>
<path d="M0.413452 7.68909L1.21345 7.68909C1.76574 7.68909 2.21345 7.24137 2.21345 6.68909L2.21345 2.67639" stroke="#2B2B2C" stroke-width="0.6"/>
<path d="M15.5134 7.68909L14.7134 7.68909C14.1611 7.68909 13.7134 7.24137 13.7134 6.68909L13.7134 2.67639" stroke="#2B2B2C" stroke-width="0.6"/>
</svg></g>
<g transform="translate(55, 163)"><svg width="16" height="22" viewBox="0 0 16 22" fill="none" xmlns="http://www.w3.org/2000/svg">
<path d="M0.713452 4.48401C0.713452 3.54512 1.47457 2.78401 2.41345 2.78401H13.5135C14.4523 2.78401 15.2135 3.54512 15.2135 4.48401V16.984C15.2135 17.9229 14.4523 18.684 13.5135 18.684H2.41345C1.47457 18.684 0.713452 17.9229 0.713452 16.984V4.48401Z" fill="white" stroke="#2B2B2C" stroke-width="0.6"/>
<path d="M13.6819 3.01502C13.6819 4.09192 12.8087 4.965 11.7317 4.965L4.19521 4.96502C3.11823 4.96502 2.24501 4.09194 2.24501 3.01503C2.24501 1.93808 3.11805 1.06504 4.195 1.06504L11.732 1.06504C12.8089 1.06504 13.6819 1.93808 13.6819 3.01502Z" fill="white" stroke="#2B2B2C" stroke-width="0.6"/>
<path d="M0.413452 7.68909L1.21345 7.68909C1.76574 7.68909 2.21345 7.24137 2.21345 6.68909L2.21345 2.67639" stroke="#2B2B2C" stroke-width="0.6"/>
<path d="M15.5134 7.68909L14.7134 7.68909C14.1611 7.68909 13.7134 7.24137 13.7134 6.68909L13.7134 2.67639" stroke="#2B2B2C" stroke-width="0.6"/>
</svg></g>
<g transform="translate(22, 173)"><svg width="16" height="22" viewBox="0 0 16 22" fill="none" xmlns="http://www.w3.org/2000/svg">
<path d="M0.713452 17.5374C0.713452 18.4762 1.47457 19.2374 2.41345 19.2374H13.5135C14.4523 19.2374 15.2135 18.4762 15.2135 17.5374V5.03735C15.2135 4.09847 14.4523 3.33735 13.5135 3.33735H2.41345C1.47457 3.33735 0.713452 4.09847 0.713452 5.03735V17.5374Z" fill="white" stroke="#2B2B2C" stroke-width="0.6"/>
<path d="M13.6819 19.0063C13.6819 17.9294 12.8086 17.0564 11.7317 17.0564L4.19515 17.0563C3.11817 17.0563 2.24495 17.9294 2.24495 19.0063C2.24495 20.0833 3.11799 20.9563 4.19494 20.9563L11.7319 20.9563C12.8088 20.9563 13.6819 20.0833 13.6819 19.0063Z" fill="white" stroke="#2B2B2C" stroke-width="0.6"/>
<path d="M0.413452 14.3323L1.21345 14.3323C1.76574 14.3323 2.21345 14.78 2.21345 15.3323L2.21345 19.345" stroke="#2B2B2C" stroke-width="0.6"/>
<path d="M15.5134 14.3323L14.7134 14.3323C14.1611 14.3323 13.7134 14.78 13.7134 15.3323L13.7134 19.345" stroke="#2B2B2C" stroke-width="0.6"/>
</svg></g>
<g transform="translate(6, 173)"><svg width="16" height="22" viewBox="0 0 16 22" fill="none" xmlns="http://www.w3.org/2000/svg">
<path d="M0.713452 17.5374C0.713452 18.4762 1.47457 19.2374 2.41345 19.2374H13.5135C14.4523 19.2374 15.2135 18.4762 15.2135 17.5374V5.03735C15.2135 4.09847 14.4523 3.33735 13.5135 3.33735H2.41345C1.47457 3.33735 0.713452 4.09847 0.713452 5.03735V17.5374Z" fill="white" stroke="#2B2B2C" stroke-width="0.6"/>
<path d="M13.6819 19.0063C13.6819 17.9294 12.8086 17.0564 11.7317 17.0564L4.19515 17.0563C3.11817 17.0563 2.24495 17.9294 2.24495 19.0063C2.24495 20.0833 3.11799 20.9563 4.19494 20.9563L11.7319 20.9563C12.8088 20.9563 13.6819 20.0833 13.6819 19.0063Z" fill="white" stroke="#2B2B2C" stroke-width="0.6"/>
<path d="M0.413452 14.3323L1.21345 14.3323C1.76574 14.3323 2.21345 14.78 2.21345 15.3323L2.21345 19.345" stroke="#2B2B2C" stroke-width="0.6"/>
<path d="M15.5134 14.3323L14.7134 14.3323C14.1611 14.3323 13.7134 14.78 13.7134 15.3323L13.7134 19.345" stroke="#2B2B2C" stroke-width="0.6"/>
</svg></g>
<g transform="translate(71, 195)"><svg width="16" height="22" viewBox="0 0 16 22" fill="none" xmlns="http://www.w3.org/2000/svg">
<path d="M0.713452 4.48401C0.713452 3.54512 1.47457 2.78401 2.41345 2.78401H13.5135C14.4523 2.78401 15.2135 3.54512 15.2135 4.48401V16.984C15.2135 17.9229 14.4523 18.684 13.5135 18.684H2.41345C1.47457 18.684 0.713452 17.9229 0.713452 16.984V4.48401Z" fill="white" stroke="#2B2B2C" stroke-width="0.6"/>
<path d="M13.6819 3.01502C13.6819 4.09192 12.8087 4.965 11.7317 4.965L4.19521 4.96502C3.11823 4.96502 2.24501 4.09194 2.24501 3.01503C2.24501 1.93808 3.11805 1.06504 4.195 1.06504L11.732 1.06504C12.8089 1.06504 13.6819 1.93808 13.6819 3.01502Z" fill="white" stroke="#2B2B2C" stroke-width="0.6"/>
<path d="M0.413452 7.68909L1.21345 7.68909C1.76574 7.68909 2.21345 7.24137 2.21345 6.68909L2.21345 2.67639" stroke="#2B2B2C" stroke-width="0.6"/>
<path d="M15.5134 7.68909L14.7134 7.68909C14.1611 7.68909 13.7134 7.24137 13.7134 6.68909L13.7134 2.67639" stroke="#2B2B2C" stroke-width="0.6"/>
</svg></g>
<g transform="translate(55, 195)"><svg width="16" height="22" viewBox="0 0 16 22" fill="none" xmlns="http://www.w3.org/2000/svg">
<path d="M0.713452 4.48401C0.713452 3.54512 1.47457 2.78401 2.41345 2.78401H13.5135C14.4523 2.78401 15.2135 3.54512 15.2135 4.48401V16.984C15.2135 17.9229 14.4523 18.684 13.5135 18.684H2.41345C1.47457 18.684 0.713452 17.9229 0.713452 16.984V4.48401Z" fill="white" stroke="#2B2B2C" stroke-width="0.6"/>
<path d="M13.6819 3.01502C13.6819 4.09192 12.8087 4.965 11.7317 4.965L4.19521 4.96502C3.11823 4.96502 2.24501 4.09194 2.24501 3.01503C2.24501 1.93808 3.11805 1.06504 4.195 1.06504L11.732 1.06504C12.8089 1.06504 13.6819 1.93808 13.6819 3.01502Z" fill="white" stroke="#2B2B2C" stroke-width="0.6"/>
<path d="M0.413452 7.68909L1.21345 7.68909C1.76574 7.68909 2.21345 7.24137 2.21345 6.68909L2.21345 2.67639" stroke="#2B2B2C" stroke-width="0.6"/>
<path d="M15.5134 7.68909L14.7134 7.68909C14.1611 7.68909 13.7134 7.24137 13.7134 6.68909L13.7134 2.67639" stroke="#2B2B2C" stroke-width="0.6"/>
</svg></g>
<g transform="translate(22, 203)"><svg width="16" height="22" viewBox="0 0 16 22" fill="none" xmlns="http://www.w3.org/2000/svg">
<path d="M0.713452 17.5374C0.713452 18.4762 1.47457 19.2374 2.41345 19.2374H13.5135C14.4523 19.2374 15.2135 18.4762 15.2135 17.5374V5.03735C15.2135 4.09847 14.4523 3.33735 13.5135 3.33735H2.41345C1.47457 3.33735 0.713452 4.09847 0.713452 5.03735V17.5374Z" fill="white" stroke="#2B2B2C" stroke-width="0.6"/>
<path d="M13.6819 19.0063C13.6819 17.9294 12.8086 17.0564 11.7317 17.0564L4.19515 17.0563C3.11817 17.0563 2.24495 17.9294 2.24495 19.0063C2.24495 20.0833 3.11799 20.9563 4.19494 20.9563L11.7319 20.9563C12.8088 20.9563 13.6819 20.0833 13.6819 19.0063Z" fill="white" stroke="#2B2B2C" stroke-width="0.6"/>
<path d="M0.413452 14.3323L1.21345 14.3323C1.76574 14.3323 2.21345 14.78 2.21345 15.3323L2.21345 19.345" stroke="#2B2B2C" stroke-width="0.6"/>
<path d="M15.5134 14.3323L14.7134 14.3323C14.1611 14.3323 13.7134 14.78 13.7134 15.3323L13.7134 19.345" stroke="#2B2B2C" stroke-width="0.6"/>
</svg></g>
<g transform="translate(6, 203)"><svg width="16" height="22" viewBox="0 0 16 22" fill="none" xmlns="http://www.w3.org/2000/svg">
<path d="M0.713452 17.5374C0.713452 18.4762 1.47457 19.2374 2.41345 19.2374H13.5135C14.4523 19.2374 15.2135 18.4762 15.2135 17.5374V5.03735C15.2135 4.09847 14.4523 3.33735 13.5135 3.33735H2.41345C1.47457 3.33735 0.713452 4.09847 0.713452 5.03735V17.5374Z" fill="white" stroke="#2B2B2C" stroke-width="0.6"/>
<path d="M13.6819 19.0063C13.6819 17.9294 12.8086 17.0564 11.7317 17.0564L4.19515 17.0563C3.11817 17.0563 2.24495 17.9294 2.24495 19.0063C2.24495 20.0833 3.11799 20.9563 4.19494 20.9563L11.7319 20.9563C12.8088 20.9563 13.6819 20.0833 13.6819 19.0063Z" fill="white" stroke="#2B2B2C" stroke-width="0.6"/>
<path d="M0.413452 14.3323L1.21345 14.3323C1.76574 14.3323 2.21345 14.78 2.21345 15.3323L2.21345 19.345" stroke="#2B2B2C" stroke-width="0.6"/>
<path d="M15.5134 14.3323L14.7134 14.3323C14.1611 14.3323 13.7134 14.78 13.7134 15.3323L13.7134 19.345" stroke="#2B2B2C" stroke-width="0.6"/>
</svg></g>
<g transform="translate(71, 230)"><svg width="16" height="22" viewBox="0 0 16 22" fill="none" xmlns="http://www.w3.org/2000/svg">
<path d="M0.713452 17.5374C0.713452 18.4762 1.47457 19.2374 2.41345 19.2374H13.5135C14.4523 19.2374 15.2135 18.4762 15.2135 17.5374V5.03735C15.2135 4.09847 14.4523 3.33735 13.5135 3.33735H2.41345C1.47457 3.33735 0.713452 4.09847 0.713452 5.03735V17.5374Z" fill="white" stroke="#2B2B2C" stroke-width="0.6"/>
<path d="M13.6819 19.0063C13.6819 17.9294 12.8086 17.0564 11.7317 17.0564L4.19515 17.0563C3.11817 17.0563 2.24495 17.9294 2.24495 19.0063C2.24495 20.0833 3.11799 20.9563 4.19494 20.9563L11.7319 20.9563C12.8088 20.9563 13.6819 20.0833 13.6819 19.0063Z" fill="white" stroke="#2B2B2C" stroke-width="0.6"/>
<path d="M0.413452 14.3323L1.21345 14.3323C1.76574 14.3323 2.21345 14.78 2.21345 15.3323L2.21345 19.345" stroke="#2B2B2C" stroke-width="0.6"/>
<path d="M15.5134 14.3323L14.7134 14.3323C14.1611 14.3323 13.7134 14.78 13.7134 15.3323L13.7134 19.345" stroke="#2B2B2C" stroke-width="0.6"/>
</svg></g>
<g transform="translate(55, 230)"><svg width="16" height="22" viewBox="0 0 16 22" fill="none" xmlns="http://www.w3.org/2000/svg">
<path d="M0.713452 17.5374C0.713452 18.4762 1.47457 19.2374 2.41345 19.2374H13.5135C14.4523 19.2374 15.2135 18.4762 15.2135 17.5374V5.03735C15.2135 4.09847 14.4523 3.33735 13.5135 3.33735H2.41345C1.47457 3.33735 0.713452 4.09847 0.713452 5.03735V17.5374Z" fill="white" stroke="#2B2B2C" stroke-width="0.6"/>
<path d="M13.6819 19.0063C13.6819 17.9294 12.8086 17.0564 11.7317 17.0564L4.19515 17.0563C3.11817 17.0563 2.24495 17.9294 2.24495 19.0063C2.24495 20.0833 3.11799 20.9563 4.19494 20.9563L11.7319 20.9563C12.8088 20.9563 13.6819 20.0833 13.6819 19.0063Z" fill="white" stroke="#2B2B2C" stroke-width="0.6"/>
<path d="M0.413452 14.3323L1.21345 14.3323C1.76574 14.3323 2.21345 14.78 2.21345 15.3323L2.21345 19.345" stroke="#2B2B2C" stroke-width="0.6"/>
<path d="M15.5134 14.3323L14.7134 14.3323C14.1611 14.3323 13.7134 14.78 13.7134 15.3323L13.7134 19.345" stroke="#2B2B2C" stroke-width="0.6"/>
</svg></g>
<g transform="translate(22, 230)"><svg width="16" height="22" viewBox="0 0 16 22" fill="none" xmlns="http://www.w3.org/2000/svg">
<path d="M0.713452 17.5374C0.713452 18.4762 1.47457 19.2374 2.41345 19.2374H13.5135C14.4523 19.2374 15.2135 18.4762 15.2135 17.5374V5.03735C15.2135 4.09847 14.4523 3.33735 13.5135 3.33735H2.41345C1.47457 3.33735 0.713452 4.09847 0.713452 5.03735V17.5374Z" fill="white" stroke="#2B2B2C" stroke-width="0.6"/>
<path d="M13.6819 19.0063C13.6819 17.9294 12.8086 17.0564 11.7317 17.0564L4.19515 17.0563C3.11817 17.0563 2.24495 17.9294 2.24495 19.0063C2.24495 20.0833 3.11799 20.9563 4.19494 20.9563L11.7319 20.9563C12.8088 20.9563 13.6819 20.0833 13.6819 19.0063Z" fill="white" stroke="#2B2B2C" stroke-width="0.6"/>
<path d="M0.413452 14.3323L1.21345 14.3323C1.76574 14.3323 2.21345 14.78 2.21345 15.3323L2.21345 19.345" stroke="#2B2B2C" stroke-width="0.6"/>
<path d="M15.5134 14.3323L14.7134 14.3323C14.1611 14.3323 13.7134 14.78 13.7134 15.3323L13.7134 19.345" stroke="#2B2B2C" stroke-width="0.6"/>
</svg></g>
<g transform="translate(6, 230)"><svg width="16" height="22" viewBox="0 0 16 22" fill="none" xmlns="http://www.w3.org/2000/svg">
<path d="M0.713452 17.5374C0.713452 18.4762 1.47457 19.2374 2.41345 19.2374H13.5135C14.4523 19.2374 15.2135 18.4762 15.2135 17.5374V5.03735C15.2135 4.09847 14.4523 3.33735 13.5135 3.33735H2.41345C1.47457 3.33735 0.713452 4.09847 0.713452 5.03735V17.5374Z" fill="white" stroke="#2B2B2C" stroke-width="0.6"/>
<path d="M13.6819 19.0063C13.6819 17.9294 12.8086 17.0564 11.7317 17.0564L4.19515 17.0563C3.11817 17.0563 2.24495 17.9294 2.24495 19.0063C2.24495 20.0833 3.11799 20.9563 4.19494 20.9563L11.7319 20.9563C12.8088 20.9563 13.6819 20.0833 13.6819 19.0063Z" fill="white" stroke="#2B2B2C" stroke-width="0.6"/>
<path d="M0.413452 14.3323L1.21345 14.3323C1.76574 14.3323 2.21345 14.78 2.21345 15.3323L2.21345 19.345" stroke="#2B2B2C" stroke-width="0.6"/>
<path d="M15.5134 14.3323L14.7134 14.3323C14.1611 14.3323 13.7134 14.78 13.7134 15.3323L13.7134 19.345" stroke="#2B2B2C" stroke-width="0.6"/>
</svg></g>
<g transform="translate(71, 255)"><svg width="16" height="22" viewBox="0 0 16 22" fill="none" xmlns="http://www.w3.org/2000/svg">
<path d="M0.713452 17.5374C0.713452 18.4762 1.47457 19.2374 2.41345 19.2374H13.5135C14.4523 19.2374 15.2135 18.4762 15.2135 17.5374V5.03735C15.2135 4.09847 14.4523 3.33735 13.5135 3.33735H2.41345C1.47457 3.33735 0.713452 4.09847 0.713452 5.03735V17.5374Z" fill="white" stroke="#2B2B2C" stroke-width="0.6"/>
<path d="M13.6819 19.0063C13.6819 17.9294 12.8086 17.0564 11.7317 17.0564L4.19515 17.0563C3.11817 17.0563 2.24495 17.9294 2.24495 19.0063C2.24495 20.0833 3.11799 20.9563 4.19494 20.9563L11.7319 20.9563C12.8088 20.9563 13.6819 20.0833 13.6819 19.0063Z" fill="white" stroke="#2B2B2C" stroke-width="0.6"/>
<path d="M0.413452 14.3323L1.21345 14.3323C1.76574 14.3323 2.21345 14.78 2.21345 15.3323L2.21345 19.345" stroke="#2B2B2C" stroke-width="0.6"/>
<path d="M15.5134 14.3323L14.7134 14.3323C14.1611 14.3323 13.7134 14.78 13.7134 15.3323L13.7134 19.345" stroke="#2B2B2C" stroke-width="0.6"/>
</svg></g>
<g transform="translate(55, 255)"><svg width="16" height="22" viewBox="0 0 16 22" fill="none" xmlns="http://www.w3.org/2000/svg">
<path d="M0.713452 17.5374C0.713452 18.4762 1.47457 19.2374 2.41345 19.2374H13.5135C14.4523 19.2374 15.2135 18.4762 15.2135 17.5374V5.03735C15.2135 4.09847 14.4523 3.33735 13.5135 3.33735H2.41345C1.47457 3.33735 0.713452 4.09847 0.713452 5.03735V17.5374Z" fill="white" stroke="#2B2B2C" stroke-width="0.6"/>
<path d="M13.6819 19.0063C13.6819 17.9294 12.8086 17.0564 11.7317 17.0564L4.19515 17.0563C3.11817 17.0563 2.24495 17.9294 2.24495 19.0063C2.24495 20.0833 3.11799 20.9563 4.19494 20.9563L11.7319 20.9563C12.8088 20.9563 13.6819 20.0833 13.6819 19.0063Z" fill="white" stroke="#2B2B2C" stroke-width="0.6"/>
<path d="M0.413452 14.3323L1.21345 14.3323C1.76574 14.3323 2.21345 14.78 2.21345 15.3323L2.21345 19.345" stroke="#2B2B2C" stroke-width="0.6"/>
<path d="M15.5134 14.3323L14.7134 14.3323C14.1611 14.3323 13.7134 14.78 13.7134 15.3323L13.7134 19.345" stroke="#2B2B2C" stroke-width="0.6"/>
</svg></g>
<g transform="translate(22, 255)"><svg width="16" height="22" viewBox="0 0 16 22" fill="none" xmlns="http://www.w3.org/2000/svg">
<path d="M0.713452 17.5374C0.713452 18.4762 1.47457 19.2374 2.41345 19.2374H13.5135C14.4523 19.2374 15.2135 18.4762 15.2135 17.5374V5.03735C15.2135 4.09847 14.4523 3.33735 13.5135 3.33735H2.41345C1.47457 3.33735 0.713452 4.09847 0.713452 5.03735V17.5374Z" fill="white" stroke="#2B2B2C" stroke-width="0.6"/>
<path d="M13.6819 19.0063C13.6819 17.9294 12.8086 17.0564 11.7317 17.0564L4.19515 17.0563C3.11817 17.0563 2.24495 17.9294 2.24495 19.0063C2.24495 20.0833 3.11799 20.9563 4.19494 20.9563L11.7319 20.9563C12.8088 20.9563 13.6819 20.0833 13.6819 19.0063Z" fill="white" stroke="#2B2B2C" stroke-width="0.6"/>
<path d="M0.413452 14.3323L1.21345 14.3323C1.76574 14.3323 2.21345 14.78 2.21345 15.3323L2.21345 19.345" stroke="#2B2B2C" stroke-width="0.6"/>
<path d="M15.5134 14.3323L14.7134 14.3323C14.1611 14.3323 13.7134 14.78 13.7134 15.3323L13.7134 19.345" stroke="#2B2B2C" stroke-width="0.6"/>
</svg></g>
<g transform="translate(6, 255)"><svg width="16" height="22" viewBox="0 0 16 22" fill="none" xmlns="http://www.w3.org/2000/svg">
<path d="M0.713452 17.5374C0.713452 18.4762 1.47457 19.2374 2.41345 19.2374H13.5135C14.4523 19.2374 15.2135 18.4762 15.2135 17.5374V5.03735C15.2135 4.09847 14.4523 3.33735 13.5135 3.33735H2.41345C1.47457 3.33735 0.713452 4.09847 0.713452 5.03735V17.5374Z" fill="white" stroke="#2B2B2C" stroke-width="0.6"/>
<path d="M13.6819 19.0063C13.6819 17.9294 12.8086 17.0564 11.7317 17.0564L4.19515 17.0563C3.11817 17.0563 2.24495 17.9294 2.24495 19.0063C2.24495 20.0833 3.11799 20.9563 4.19494 20.9563L11.7319 20.9563C12.8088 20.9563 13.6819 20.0833 13.6819 19.0063Z" fill="white" stroke="#2B2B2C" stroke-width="0.6"/>
<path d="M0.413452 14.3323L1.21345 14.3323C1.76574 14.3323 2.21345 14.78 2.21345 15.3323L2.21345 19.345" stroke="#2B2B2C" stroke-width="0.6"/>
<path d="M15.5134 14.3323L14.7134 14.3323C14.1611 14.3323 13.7134 14.78 13.7134 15.3323L13.7134 19.345" stroke="#2B2B2C" stroke-width="0.6"/>
</svg></g>
<g transform="translate(71, 371)"><svg width="16" height="22" viewBox="0 0 16 22" fill="none" xmlns="http://www.w3.org/2000/svg">
<path d="M0.713452 4.48401C0.713452 3.54512 1.47457 2.78401 2.41345 2.78401H13.5135C14.4523 2.78401 15.2135 3.54512 15.2135 4.48401V16.984C15.2135 17.9229 14.4523 18.684 13.5135 18.684H2.41345C1.47457 18.684 0.713452 17.9229 0.713452 16.984V4.48401Z" fill="white" stroke="#2B2B2C" stroke-width="0.6"/>
<path d="M13.6819 3.01502C13.6819 4.09192 12.8087 4.965 11.7317 4.965L4.19521 4.96502C3.11823 4.96502 2.24501 4.09194 2.24501 3.01503C2.24501 1.93808 3.11805 1.06504 4.195 1.06504L11.732 1.06504C12.8089 1.06504 13.6819 1.93808 13.6819 3.01502Z" fill="white" stroke="#2B2B2C" stroke-width="0.6"/>
<path d="M0.413452 7.68909L1.21345 7.68909C1.76574 7.68909 2.21345 7.24137 2.21345 6.68909L2.21345 2.67639" stroke="#2B2B2C" stroke-width="0.6"/>
<path d="M15.5134 7.68909L14.7134 7.68909C14.1611 7.68909 13.7134 7.24137 13.7134 6.68909L13.7134 2.67639" stroke="#2B2B2C" stroke-width="0.6"/>
</svg></g>
<g transform="translate(55, 371)"><svg width="16" height="22" viewBox="0 0 16 22" fill="none" xmlns="http://www.w3.org/2000/svg">
<path d="M0.713452 4.48401C0.713452 3.54512 1.47457 2.78401 2.41345 2.78401H13.5135C14.4523 2.78401 15.2135 3.54512 15.2135 4.48401V16.984C15.2135 17.9229 14.4523 18.684 13.5135 18.684H2.41345C1.47457 18.684 0.713452 17.9229 0.713452 16.984V4.48401Z" fill="white" stroke="#2B2B2C" stroke-width="0.6"/>
<path d="M13.6819 3.01502C13.6819 4.09192 12.8087 4.965 11.7317 4.965L4.19521 4.96502C3.11823 4.96502 2.24501 4.09194 2.24501 3.01503C2.24501 1.93808 3.11805 1.06504 4.195 1.06504L11.732 1.06504C12.8089 1.06504 13.6819 1.93808 13.6819 3.01502Z" fill="white" stroke="#2B2B2C" stroke-width="0.6"/>
<path d="M0.413452 7.68909L1.21345 7.68909C1.76574 7.68909 2.21345 7.24137 2.21345 6.68909L2.21345 2.67639" stroke="#2B2B2C" stroke-width="0.6"/>
<path d="M15.5134 7.68909L14.7134 7.68909C14.1611 7.68909 13.7134 7.24137 13.7134 6.68909L13.7134 2.67639" stroke="#2B2B2C" stroke-width="0.6"/>
</svg></g>
<g transform="translate(22, 371)"><svg width="16" height="22" viewBox="0 0 16 22" fill="none" xmlns="http://www.w3.org/2000/svg">
<path d="M0.713452 4.48401C0.713452 3.54512 1.47457 2.78401 2.41345 2.78401H13.5135C14.4523 2.78401 15.2135 3.54512 15.2135 4.48401V16.984C15.2135 17.9229 14.4523 18.684 13.5135 18.684H2.41345C1.47457 18.684 0.713452 17.9229 0.713452 16.984V4.48401Z" fill="white" stroke="#2B2B2C" stroke-width="0.6"/>
<path d="M13.6819 3.01502C13.6819 4.09192 12.8087 4.965 11.7317 4.965L4.19521 4.96502C3.11823 4.96502 2.24501 4.09194 2.24501 3.01503C2.24501 1.93808 3.11805 1.06504 4.195 1.06504L11.732 1.06504C12.8089 1.06504 13.6819 1.93808 13.6819 3.01502Z" fill="white" stroke="#2B2B2C" stroke-width="0.6"/>
<path d="M0.413452 7.68909L1.21345 7.68909C1.76574 7.68909 2.21345 7.24137 2.21345 6.68909L2.21345 2.67639" stroke="#2B2B2C" stroke-width="0.6"/>
<path d="M15.5134 7.68909L14.7134 7.68909C14.1611 7.68909 13.7134 7.24137 13.7134 6.68909L13.7134 2.67639" stroke="#2B2B2C" stroke-width="0.6"/>
</svg></g>
<g transform="translate(6, 371)"><svg width="16" height="22" viewBox="0 0 16 22" fill="none" xmlns="http://www.w3.org/2000/svg">
<path d="M0.713452 4.48401C0.713452 3.54512 1.47457 2.78401 2.41345 2.78401H13.5135C14.4523 2.78401 15.2135 3.54512 15.2135 4.48401V16.984C15.2135 17.9229 14.4523 18.684 13.5135 18.684H2.41345C1.47457 18.684 0.713452 17.9229 0.713452 16.984V4.48401Z" fill="white" stroke="#2B2B2C" stroke-width="0.6"/>
<path d="M13.6819 3.01502C13.6819 4.09192 12.8087 4.965 11.7317 4.965L4.19521 4.96502C3.11823 4.96502 2.24501 4.09194 2.24501 3.01503C2.24501 1.93808 3.11805 1.06504 4.195 1.06504L11.732 1.06504C12.8089 1.06504 13.6819 1.93808 13.6819 3.01502Z" fill="white" stroke="#2B2B2C" stroke-width="0.6"/>
<path d="M0.413452 7.68909L1.21345 7.68909C1.76574 7.68909 2.21345 7.24137 2.21345 6.68909L2.21345 2.67639" stroke="#2B2B2C" stroke-width="0.6"/>
<path d="M15.5134 7.68909L14.7134 7.68909C14.1611 7.68909 13.7134 7.24137 13.7134 6.68909L13.7134 2.67639" stroke="#2B2B2C" stroke-width="0.6"/>
</svg></g>
<g transform="translate(71, 407)"><svg width="16" height="22" viewBox="0 0 16 22" fill="none" xmlns="http://www.w3.org/2000/svg">
<path d="M0.713452 17.5374C0.713452 18.4762 1.47457 19.2374 2.41345 19.2374H13.5135C14.4523 19.2374 15.2135 18.4762 15.2135 17.5374V5.03735C15.2135 4.09847 14.4523 3.33735 13.5135 3.33735H2.41345C1.47457 3.33735 0.713452 4.09847 0.713452 5.03735V17.5374Z" fill="white" stroke="#2B2B2C" stroke-width="0.6"/>
<path d="M13.6819 19.0063C13.6819 17.9294 12.8086 17.0564 11.7317 17.0564L4.19515 17.0563C3.11817 17.0563 2.24495 17.9294 2.24495 19.0063C2.24495 20.0833 3.11799 20.9563 4.19494 20.9563L11.7319 20.9563C12.8088 20.9563 13.6819 20.0833 13.6819 19.0063Z" fill="white" stroke="#2B2B2C" stroke-width="0.6"/>
<path d="M0.413452 14.3323L1.21345 14.3323C1.76574 14.3323 2.21345 14.78 2.21345 15.3323L2.21345 19.345" stroke="#2B2B2C" stroke-width="0.6"/>
<path d="M15.5134 14.3323L14.7134 14.3323C14.1611 14.3323 13.7134 14.78 13.7134 15.3323L13.7134 19.345" stroke="#2B2B2C" stroke-width="0.6"/>
</svg></g>
<g transform="translate(55, 407)"><svg width="16" height="22" viewBox="0 0 16 22" fill="none" xmlns="http://www.w3.org/2000/svg">
<path d="M0.713452 17.5374C0.713452 18.4762 1.47457 19.2374 2.41345 19.2374H13.5135C14.4523 19.2374 15.2135 18.4762 15.2135 17.5374V5.03735C15.2135 4.09847 14.4523 3.33735 13.5135 3.33735H2.41345C1.47457 3.33735 0.713452 4.09847 0.713452 5.03735V17.5374Z" fill="white" stroke="#2B2B2C" stroke-width="0.6"/>
<path d="M13.6819 19.0063C13.6819 17.9294 12.8086 17.0564 11.7317 17.0564L4.19515 17.0563C3.11817 17.0563 2.24495 17.9294 2.24495 19.0063C2.24495 20.0833 3.11799 20.9563 4.19494 20.9563L11.7319 20.9563C12.8088 20.9563 13.6819 20.0833 13.6819 19.0063Z" fill="white" stroke="#2B2B2C" stroke-width="0.6"/>
<path d="M0.413452 14.3323L1.21345 14.3323C1.76574 14.3323 2.21345 14.78 2.21345 15.3323L2.21345 19.345" stroke="#2B2B2C" stroke-width="0.6"/>
<path d="M15.5134 14.3323L14.7134 14.3323C14.1611 14.3323 13.7134 14.78 13.7134 15.3323L13.7134 19.345" stroke="#2B2B2C" stroke-width="0.6"/>
</svg></g>
<g transform="translate(22, 407)"><svg width="16" height="22" viewBox="0 0 16 22" fill="none" xmlns="http://www.w3.org/2000/svg">
<path d="M0.713452 17.5374C0.713452 18.4762 1.47457 19.2374 2.41345 19.2374H13.5135C14.4523 19.2374 15.2135 18.4762 15.2135 17.5374V5.03735C15.2135 4.09847 14.4523 3.33735 13.5135 3.33735H2.41345C1.47457 3.33735 0.713452 4.09847 0.713452 5.03735V17.5374Z" fill="white" stroke="#2B2B2C" stroke-width="0.6"/>
<path d="M13.6819 19.0063C13.6819 17.9294 12.8086 17.0564 11.7317 17.0564L4.19515 17.0563C3.11817 17.0563 2.24495 17.9294 2.24495 19.0063C2.24495 20.0833 3.11799 20.9563 4.19494 20.9563L11.7319 20.9563C12.8088 20.9563 13.6819 20.0833 13.6819 19.0063Z" fill="white" stroke="#2B2B2C" stroke-width="0.6"/>
<path d="M0.413452 14.3323L1.21345 14.3323C1.76574 14.3323 2.21345 14.78 2.21345 15.3323L2.21345 19.345" stroke="#2B2B2C" stroke-width="0.6"/>
<path d="M15.5134 14.3323L14.7134 14.3323C14.1611 14.3323 13.7134 14.78 13.7134 15.3323L13.7134 19.345" stroke="#2B2B2C" stroke-width="0.6"/>
</svg></g>
<g transform="translate(6, 407)"><svg width="16" height="22" viewBox="0 0 16 22" fill="none" xmlns="http://www.w3.org/2000/svg">
<path d="M0.713452 17.5374C0.713452 18.4762 1.47457 19.2374 2.41345 19.2374H13.5135C14.4523 19.2374 15.2135 18.4762 15.2135 17.5374V5.03735C15.2135 4.09847 14.4523 3.33735 13.5135 3.33735H2.41345C1.47457 3.33735 0.713452 4.09847 0.713452 5.03735V17.5374Z" fill="white" stroke="#2B2B2C" stroke-width="0.6"/>
<path d="M13.6819 19.0063C13.6819 17.9294 12.8086 17.0564 11.7317 17.0564L4.19515 17.0563C3.11817 17.0563 2.24495 17.9294 2.24495 19.0063C2.24495 20.0833 3.11799 20.9563 4.19494 20.9563L11.7319 20.9563C12.8088 20.9563 13.6819 20.0833 13.6819 19.0063Z" fill="white" stroke="#2B2B2C" stroke-width="0.6"/>
<path d="M0.413452 14.3323L1.21345 14.3323C1.76574 14.3323 2.21345 14.78 2.21345 15.3323L2.21345 19.345" stroke="#2B2B2C" stroke-width="0.6"/>
<path d="M15.5134 14.3323L14.7134 14.3323C14.1611 14.3323 13.7134 14.78 13.7134 15.3323L13.7134 19.345" stroke="#2B2B2C" stroke-width="0.6"/>
</svg></g>
<g transform="translate(69, 289)"><svg width="13" height="13" viewBox="0 0 13 13" fill="none" xmlns="http://www.w3.org/2000/svg">
<path d="M10.4903 10.4903V9.00868H4.28924V1.97085H9.93471C10.2416 1.97085 10.4903 1.7221 10.4903 1.41524C10.4903 1.10838 10.2416 0.859619 9.93471 0.859619H2.91122V1.97085L1.5332 10.4903H4.28924H10.4903Z" stroke="#2B2B2C" stroke-width="0.6" stroke-linejoin="round"/>
<path d="M6.35645 1.97095L6.70094 3.28809H8.07896L8.42347 1.97095" stroke="#2B2B2C" stroke-width="0.6" stroke-linejoin="round"/>
<path d="M6.01172 7.26038V5.50647H8.76776V7.26038C8.76776 8.02144 8.1508 8.6384 7.38974 8.6384C6.62868 8.6384 6.01172 8.02144 6.01172 7.26038Z" stroke="#2B2B2C" stroke-width="0.6" stroke-linejoin="round"/>
<path d="M8.76782 6.20227H9.44986C9.83424 6.20227 10.1458 6.51387 10.1458 6.89825V6.89825C10.1458 7.28264 9.83424 7.59424 9.44986 7.59424H8.76782" stroke="#2B2B2C" stroke-width="0.6" stroke-linejoin="round"/>
<path d="M7.38989 3.28809V5.50647" stroke="#2B2B2C" stroke-width="0.6" stroke-linejoin="round"/>
</svg></g>
<g transform="translate(76, 92)"><svg width="13" height="27" viewBox="0 0 13 27" fill="none" xmlns="http://www.w3.org/2000/svg">
<rect x="0.401855" y="26.3997" width="26" height="12" rx="1.38534" transform="rotate(-90 0.401855 26.3997)" fill="#65B152"/>
<path d="M3.44751 18.0164L3.44751 22.208L9.41151 22.208L9.41151 17.9156L8.42871 17.9156L8.42871 21.0236L6.82431 21.0236L6.82431 18.2012L5.83311 18.2012L5.83311 21.0236L4.43031 21.0236L4.43031 18.0164L3.44751 18.0164Z" fill="white"/>
<path d="M9.41151 11.6918L6.25311 13.8674L3.44751 11.9186L3.44751 13.229L5.41311 14.5562L3.44751 15.8834L3.44751 17.219L6.24471 15.2786L9.41151 17.4458L9.41151 16.1522L7.10151 14.573L9.41151 13.0106L9.41151 11.6918Z" fill="white"/>
<path d="M3.44751 9.76754L3.44751 10.9519L9.41151 10.9519L9.41151 9.76754L3.44751 9.76754Z" fill="white"/>
<path d="M3.44751 4.22459L3.44751 8.88659L4.44711 8.88659L4.44711 7.15619L9.41151 7.15619L9.41151 5.97179L4.44711 5.97179L4.44711 4.22459L3.44751 4.22459Z" fill="white"/>
</svg></g>
<g transform="translate(3, 324)"><svg width="13" height="27" viewBox="0 0 13 27" fill="none" xmlns="http://www.w3.org/2000/svg">
<rect x="12.4136" y="0.399414" width="26" height="12" rx="1.38534" transform="rotate(90 12.4136 0.399414)" fill="#65B152"/>
<path d="M9.36792 8.78266L9.36792 4.59106L3.40392 4.59106L3.40392 8.88346L4.38672 8.88346L4.38672 5.77546L5.99112 5.77546L5.99112 8.59786L6.98232 8.59786L6.98232 5.77546L8.38512 5.77546L8.38512 8.78266L9.36792 8.78266Z" fill="white"/>
<path d="M3.40392 15.1073L6.56232 12.9317L9.36792 14.8805L9.36792 13.5701L7.40232 12.2429L9.36792 10.9157L9.36792 9.58007L6.57072 11.5205L3.40392 9.35327L3.40392 10.6469L5.71392 12.2261L3.40392 13.7885L3.40392 15.1073Z" fill="white"/>
<path d="M9.36792 17.0315L9.36792 15.8471L3.40392 15.8471L3.40392 17.0315L9.36792 17.0315Z" fill="white"/>
<path d="M9.36792 22.5745L9.36792 17.9125L8.36832 17.9125L8.36832 19.6429L3.40392 19.6429L3.40392 20.8273L8.36832 20.8273L8.36832 22.5745L9.36792 22.5745Z" fill="white"/>
</svg></g>
<g transform="translate(3, 92)"><svg width="13" height="27" viewBox="0 0 13 27" fill="none" xmlns="http://www.w3.org/2000/svg">
<rect x="12.4136" y="0.399414" width="26" height="12" rx="1.38534" transform="rotate(90 12.4136 0.399414)" fill="#65B152"/>
<path d="M9.36792 8.78266L9.36792 4.59106L3.40392 4.59106L3.40392 8.88346L4.38672 8.88346L4.38672 5.77546L5.99112 5.77546L5.99112 8.59786L6.98232 8.59786L6.98232 5.77546L8.38512 5.77546L8.38512 8.78266L9.36792 8.78266Z" fill="white"/>
<path d="M3.40392 15.1073L6.56232 12.9317L9.36792 14.8805L9.36792 13.5701L7.40232 12.2429L9.36792 10.9157L9.36792 9.58007L6.57072 11.5205L3.40392 9.35327L3.40392 10.6469L5.71392 12.2261L3.40392 13.7885L3.40392 15.1073Z" fill="white"/>
<path d="M9.36792 17.0315L9.36792 15.8471L3.40392 15.8471L3.40392 17.0315L9.36792 17.0315Z" fill="white"/>
<path d="M9.36792 22.5745L9.36792 17.9125L8.36832 17.9125L8.36832 19.6429L3.40392 19.6429L3.40392 20.8273L8.36832 20.8273L8.36832 22.5745L9.36792 22.5745Z" fill="white"/>
</svg></g>
<g transform="translate(20, 340)"><svg width="13" height="13" viewBox="0 0 13 13" fill="none" xmlns="http://www.w3.org/2000/svg">
<path d="M8.21014 9.30169L2.68956 4.10585C2.34805 3.78444 1.81296 3.79255 1.48135 4.12416L1.35498 4.25053" stroke="#2B2B2C" stroke-width="0.6" stroke-linecap="round" stroke-linejoin="round"/>
<path d="M4.24145 10.0234C4.24145 10.6212 3.75684 11.1058 3.15905 11.1058C2.56126 11.1058 2.07666 10.6212 2.07666 10.0234C2.07666 9.42564 2.56126 8.94104 3.15905 8.94104C3.75684 8.94104 4.24145 9.42564 4.24145 10.0234Z" stroke="#2B2B2C" stroke-width="0.6"/>
<path d="M10.3747 10.0234C10.3747 10.6212 9.89014 11.1058 9.29235 11.1058C8.69456 11.1058 8.20996 10.6212 8.20996 10.0234C8.20996 9.42564 8.69456 8.94104 9.29235 8.94104C9.89014 8.94104 10.3747 9.42564 10.3747 10.0234Z" stroke="#2B2B2C" stroke-width="0.6"/>
<path d="M3.88037 9.30191L6.04516 7.49792" stroke="#2B2B2C" stroke-width="0.6"/>
<path d="M3.15918 4.61157H10.7359V4.89494C10.7359 6.33254 9.57052 7.49795 8.13292 7.49795H5.68476" stroke="#2B2B2C" stroke-width="0.6"/>
<path d="M10.7355 4.61148V3.16829L9.65307 2.0859L7.48828 1.7251V4.25068" stroke="#2B2B2C" stroke-width="0.6" stroke-linecap="round" stroke-linejoin="round"/>
</svg></g>
<g transform="translate(60, 88)"><svg width="13" height="13" viewBox="0 0 13 13" fill="none" xmlns="http://www.w3.org/2000/svg">
<path d="M8.21014 9.30169L2.68956 4.10585C2.34805 3.78444 1.81296 3.79255 1.48135 4.12416L1.35498 4.25053" stroke="#2B2B2C" stroke-width="0.6" stroke-linecap="round" stroke-linejoin="round"/>
<path d="M4.24145 10.0234C4.24145 10.6212 3.75684 11.1058 3.15905 11.1058C2.56126 11.1058 2.07666 10.6212 2.07666 10.0234C2.07666 9.42564 2.56126 8.94104 3.15905 8.94104C3.75684 8.94104 4.24145 9.42564 4.24145 10.0234Z" stroke="#2B2B2C" stroke-width="0.6"/>
<path d="M10.3747 10.0234C10.3747 10.6212 9.89014 11.1058 9.29235 11.1058C8.69456 11.1058 8.20996 10.6212 8.20996 10.0234C8.20996 9.42564 8.69456 8.94104 9.29235 8.94104C9.89014 8.94104 10.3747 9.42564 10.3747 10.0234Z" stroke="#2B2B2C" stroke-width="0.6"/>
<path d="M3.88037 9.30191L6.04516 7.49792" stroke="#2B2B2C" stroke-width="0.6"/>
<path d="M3.15918 4.61157H10.7359V4.89494C10.7359 6.33254 9.57052 7.49795 8.13292 7.49795H5.68476" stroke="#2B2B2C" stroke-width="0.6"/>
<path d="M10.7355 4.61148V3.16829L9.65307 2.0859L7.48828 1.7251V4.25068" stroke="#2B2B2C" stroke-width="0.6" stroke-linecap="round" stroke-linejoin="round"/>
</svg></g>
<g transform="translate(76, 324)"><svg width="13" height="27" viewBox="0 0 13 27" fill="none" xmlns="http://www.w3.org/2000/svg">
<rect x="0.401855" y="26.3997" width="26" height="12" rx="1.38534" transform="rotate(-90 0.401855 26.3997)" fill="#65B152"/>
<path d="M3.44751 18.0164L3.44751 22.208L9.41151 22.208L9.41151 17.9156L8.42871 17.9156L8.42871 21.0236L6.82431 21.0236L6.82431 18.2012L5.83311 18.2012L5.83311 21.0236L4.43031 21.0236L4.43031 18.0164L3.44751 18.0164Z" fill="white"/>
<path d="M9.41151 11.6918L6.25311 13.8674L3.44751 11.9186L3.44751 13.229L5.41311 14.5562L3.44751 15.8834L3.44751 17.219L6.24471 15.2786L9.41151 17.4458L9.41151 16.1522L7.10151 14.573L9.41151 13.0106L9.41151 11.6918Z" fill="white"/>
<path d="M3.44751 9.76754L3.44751 10.9519L9.41151 10.9519L9.41151 9.76754L3.44751 9.76754Z" fill="white"/>
<path d="M3.44751 4.22459L3.44751 8.88659L4.44711 8.88659L4.44711 7.15619L9.41151 7.15619L9.41151 5.97179L4.44711 5.97179L4.44711 4.22459L3.44751 4.22459Z" fill="white"/>
</svg></g>
<text x="82" y="30" text-anchor="middle" font-size="8">201</text>
<text x="68" y="30" text-anchor="middle" font-size="8">202</text>
<text x="26" y="30" text-anchor="middle" font-size="8">203</text>
<text x="11" y="30" text-anchor="middle" font-size="8">204</text>
<text x="82" y="58" text-anchor="middle" font-size="8">205</text>
<text x="68" y="58" text-anchor="middle" font-size="8">206</text>
<text x="54" y="58" text-anchor="middle" font-size="8">207</text>
<text x="26" y="58" text-anchor="middle" font-size="8">208</text>
<text x="11" y="58" text-anchor="middle" font-size="8">209</text>
<text x="79" y="151" text-anchor="middle" font-size="8">210</text>
<text x="63" y="151" text-anchor="middle" font-size="8">211</text>
<text x="30" y="151" text-anchor="middle" font-size="8">212</text>
<text x="14" y="151" text-anchor="middle" font-size="8">213</text>
<text x="79" y="177" text-anchor="middle" font-size="8">214</text>
<text x="63" y="177" text-anchor="middle" font-size="8">215</text>
<text x="30" y="187" text-anchor="middle" font-size="8">216</text>
<text x="14" y="187" text-anchor="middle" font-size="8">217</text>
<text x="79" y="209" text-anchor="middle" font-size="8">218</text>
<text x="63" y="209" text-anchor="middle" font-size="8">219</text>
<text x="30" y="217" text-anchor="middle" font-size="8">220</text>
<text x="14" y="217" text-anchor="middle" font-size="8">221</text>
<text x="79" y="244" text-anchor="middle" font-size="8">222</text>
<text x="63" y="244" text-anchor="middle" font-size="8">223</text>
<text x="30" y="244" text-anchor="middle" font-size="8">224</text>
<text x="14" y="244" text-anchor="middle" font-size="8">225</text>
<text x="79" y="269" text-anchor="middle" font-size="8">226</text>
<text x="63" y="269" text-anchor="middle" font-size="8">227</text>
<text x="30" y="269" text-anchor="middle" font-size="8">228</text>
<text x="14" y="269" text-anchor="middle" font-size="8">229</text>
<text x="79" y="385" text-anchor="middle" font-size="8">230</text>
<text x="63" y="385" text-anchor="middle" font-size="8">231</text>
<text x="30" y="385" text-anchor="middle" font-size="8">232</text>
<text x="14" y="385" text-anchor="middle" font-size="8">233</text>
<text x="79" y="421" text-anchor="middle" font-size="8">234</text>
<text x="63" y="421" text-anchor="middle" font-size="8">235</text>
<text x="30" y="421" text-anchor="middle" font-size="8">236</text>
<text x="14" y="421" text-anchor="middle" font-size="8">237</text>
</svg>
